<svg xmlns="http://www.w3.org/2000/svg" width="312.737" height="227.9" viewBox="0 0 312.737 227.9">
  <g id="FAQs-amico" transform="translate(-15.55 -25.018)">
    <g id="freepik--Plants--inject-13" transform="translate(15.55 121.266)">
      <g id="freepik--plants--inject-13-2" data-name="freepik--plants--inject-13">
        <path id="Path_40987" data-name="Path 40987" d="M46.44,260.232l5.766-2.774s2.8-11.053.72-20.808c-2.92-13.763-15.506-18.494-20.079-17.137s-5.653,5.45,2.607,13.377A38.458,38.458,0,0,1,46.44,260.232Z" transform="translate(-20.14 -219.29)" fill="#ffc759"/>
        <g id="Group_46039" data-name="Group 46039" transform="translate(9.18)" opacity="0.3">
          <path id="Path_40988" data-name="Path 40988" d="M46.44,260.232l5.766-2.774s2.8-11.053.72-20.808c-2.92-13.763-15.506-18.494-20.079-17.137s-5.653,5.45,2.607,13.377A38.458,38.458,0,0,1,46.44,260.232Z" transform="translate(-29.32 -219.29)" fill="#fff"/>
        </g>
        <path id="Path_40989" data-name="Path 40989" d="M51.684,256.782h-.06c-.225-.026-.381-.179-.353-.347,2.393-12.881-4.567-26.961-12.393-32.644a.256.256,0,0,1-.007-.436.522.522,0,0,1,.587,0c7.966,5.782,15.06,20.095,12.633,33.164A.39.39,0,0,1,51.684,256.782Z" transform="translate(-23.285 -221.294)" fill="#fff"/>
        <path id="Path_40990" data-name="Path 40990" d="M27.33,280.649c-.867.367-3.333-1.045-4-1.387a7.144,7.144,0,0,1-2.747-2.343,4.449,4.449,0,0,1-.667-3.468,10.908,10.908,0,0,1,.587-1.838c.233-.594.46-1.189.667-1.784a3.421,3.421,0,0,0,.347-1.8c-.207-1.219-1.667-2.071-2.987-2.809-1.467-.812-2.987-1.888-2.98-3.354a4.588,4.588,0,0,1,1.74-3.072c.947-.892,2.067-1.675,2.92-2.616A3.032,3.032,0,0,0,21.2,253.9a3.207,3.207,0,0,0-.667-1.422,21.875,21.875,0,0,1-2.093-2.859,2.329,2.329,0,0,1,.667-3.037,5.717,5.717,0,0,1,3.393-.629,9.655,9.655,0,0,1,3.16.827c3.133,1.293,4.927,4.053,8.253,5.048,1.311.307,2.647.552,4,.733a5.321,5.321,0,0,1,3.333,1.689c1.22,1.813-1.047,4.048-.187,5.97.76,1.7,2.987,2.353,4.233,3.889a2.884,2.884,0,0,1,.587,2.229,8.544,8.544,0,0,1-1.267,3.765,32.75,32.75,0,0,1-2.767,3.572Z" transform="translate(-15.55 -232.735)" fill="#ffc759"/>
        <g id="Group_46040" data-name="Group 46040" transform="translate(0 13.202)" opacity="0.65">
          <path id="Path_40991" data-name="Path 40991" d="M27.33,280.649c-.867.367-3.333-1.045-4-1.387a7.144,7.144,0,0,1-2.747-2.343,4.449,4.449,0,0,1-.667-3.468,10.908,10.908,0,0,1,.587-1.838c.233-.594.46-1.189.667-1.784a3.421,3.421,0,0,0,.347-1.8c-.207-1.219-1.667-2.071-2.987-2.809-1.467-.812-2.987-1.888-2.98-3.354a4.588,4.588,0,0,1,1.74-3.072c.947-.892,2.067-1.675,2.92-2.616A3.032,3.032,0,0,0,21.2,253.9a3.207,3.207,0,0,0-.667-1.422,21.875,21.875,0,0,1-2.093-2.859,2.329,2.329,0,0,1,.667-3.037,5.717,5.717,0,0,1,3.393-.629,9.655,9.655,0,0,1,3.16.827c3.133,1.293,4.927,4.053,8.253,5.048,1.311.307,2.647.552,4,.733a5.321,5.321,0,0,1,3.333,1.689c1.22,1.813-1.047,4.048-.187,5.97.76,1.7,2.987,2.353,4.233,3.889a2.884,2.884,0,0,1,.587,2.229,8.544,8.544,0,0,1-1.267,3.765,32.75,32.75,0,0,1-2.767,3.572Z" transform="translate(-15.55 -245.938)" fill="#fff"/>
        </g>
        <path id="Path_40992" data-name="Path 40992" d="M39.543,279.4h0a.454.454,0,0,1-.272-.093.248.248,0,0,1-.1-.209c.667-11.514-6.666-24.232-12-27.923a.24.24,0,0,1,.006-.393.5.5,0,0,1,.527-.033c5.413,3.77,12.866,16.7,12.213,28.373a.355.355,0,0,1-.373.277Z" transform="translate(-19.391 -235.133)" fill="#fff"/>
        <path id="Path_40993" data-name="Path 40993" d="M36.146,278.251h-.113a69.589,69.589,0,0,0-11.22-1.363.454.454,0,0,1-.272-.093.249.249,0,0,1-.1-.209.258.258,0,0,1,.123-.2.467.467,0,0,1,.284-.074,71.111,71.111,0,0,1,11.446,1.372c.2.052.315.214.253.367A.407.407,0,0,1,36.146,278.251Z" transform="translate(-18.513 -248.06)" fill="#fff"/>
      </g>
    </g>
    <g id="freepik--Floor--inject-13" transform="translate(20.31 120.776)">
      <path id="freepik--floor--inject-13-2" data-name="freepik--floor--inject-13" d="M153.989,0c85.046,0,153.989,29.581,153.989,66.071s-68.943,66.071-153.989,66.071S0,102.561,0,66.071,68.943,0,153.989,0Z" fill="#fff"/>
    </g>
    <g id="freepik--Shadows--inject-13" transform="translate(68.005 148.188)">
      <path id="freepik--Shadow--inject-13" d="M118.691,284.123c32.619-13.991,85.5-13.991,118.11,0,27.646,11.861,31.846,29.969,12.626,43.737l71.765,30.4c4.373,1.878,4.373,4.92,0,6.8l-6.453,2.769a21.287,21.287,0,0,1-15.573-.327L236.5,334.93c-32.666,13.872-85.277,13.818-117.783-.129C86.079,320.805,86.079,298.119,118.691,284.123Z" transform="translate(-94.235 -273.63)" fill="#e6e6e6"/>
    </g>
    <g id="freepik--Glass--inject-13" transform="translate(78.401 135.809)">
      <g id="freepik--glass--inject-13-2" data-name="freepik--glass--inject-13">
        <path id="Path_40994" data-name="Path 40994" d="M109.83,280.621V295.7c0,8.185,7.28,16.349,21.833,22.616,29.106,12.49,76.3,12.49,105.41,0,14.553-6.247,21.833-14.432,21.833-22.616V280.621h0c0-8.185-7.28-16.349-21.833-22.612-29.106-12.49-76.3-12.49-105.41,0C117.11,264.252,109.83,272.437,109.83,280.621Zm141.862,0c0,6.55-6.473,12.931-18.226,17.974-13,5.579-30.432,8.65-49.1,8.65s-36.1-3.072-49.1-8.65c-11.753-5.044-18.226-11.425-18.226-17.974s6.473-12.931,18.226-17.974c13-5.579,30.432-8.65,49.1-8.65s36.106,3.072,49.1,8.65C245.226,267.691,251.692,274.087,251.692,280.621Z" transform="translate(-109.83 -248.642)" fill="#ffc759"/>
        <path id="Path_40995" data-name="Path 40995" d="M109.83,280.621V295.7c0,8.185,7.28,16.349,21.833,22.616,29.106,12.49,76.3,12.49,105.41,0,14.553-6.247,21.833-14.432,21.833-22.616V280.621h0c0-8.185-7.28-16.349-21.833-22.612-29.106-12.49-76.3-12.49-105.41,0C117.11,264.252,109.83,272.437,109.83,280.621Zm141.862,0c0,6.55-6.473,12.931-18.226,17.974-13,5.579-30.432,8.65-49.1,8.65s-36.1-3.072-49.1-8.65c-11.753-5.044-18.226-11.425-18.226-17.974s6.473-12.931,18.226-17.974c13-5.579,30.432-8.65,49.1-8.65s36.106,3.072,49.1,8.65C245.226,267.691,251.692,274.087,251.692,280.621Z" transform="translate(-109.83 -248.642)" fill="#fff" opacity="0.2"/>
        <path id="Path_40996" data-name="Path 40996" d="M258.832,312c-1.16,5.187-4.233,9.091-16.613,16.27-17.5,10.156-61.811,14.3-87.531,8-24.259-5.945-32-17.583-32-25.564l.067-4.692c-3.747-3.314-5.72-6.877-5.72-10.493,0-3.706,2.073-7.357,6-10.741l.087-6.609h-1.38c-7.94,5.267-11.913,11.306-11.913,17.34v15.076c0,8.185,7.28,16.349,21.833,22.616,29.106,12.49,76.3,12.49,105.41,0C250.792,327.327,258.046,319.7,258.832,312Z" transform="translate(-109.83 -263.541)" fill="#ffc759" opacity="0.6"/>
        <path id="Path_40997" data-name="Path 40997" d="M237.083,258.01c-29.113-12.49-76.3-12.49-105.41,0s-29.112,32.738,0,45.228,76.3,12.49,105.41,0S266.189,270.5,237.083,258.01ZM233.477,298.6c-13,5.579-30.439,8.65-49.1,8.65s-36.1-3.072-49.105-8.65c-11.753-5.044-18.226-11.425-18.226-17.974s6.473-12.931,18.226-17.974c13-5.579,30.439-8.65,49.105-8.65s36.1,3.072,49.1,8.65c11.753,5.044,18.226,11.43,18.226,17.974S245.23,293.552,233.477,298.6Z" transform="translate(-109.834 -248.642)" fill="#ffc759"/>
        <path id="Path_40998" data-name="Path 40998" d="M237.083,258.01c-29.113-12.49-76.3-12.49-105.41,0s-29.112,32.738,0,45.228,76.3,12.49,105.41,0S266.189,270.5,237.083,258.01ZM233.477,298.6c-13,5.579-30.439,8.65-49.1,8.65s-36.1-3.072-49.105-8.65c-11.753-5.044-18.226-11.425-18.226-17.974s6.473-12.931,18.226-17.974c13-5.579,30.439-8.65,49.105-8.65s36.1,3.072,49.1,8.65c11.753,5.044,18.226,11.43,18.226,17.974S245.23,293.552,233.477,298.6Z" transform="translate(-109.834 -248.642)" fill="#fff" opacity="0.5"/>
        <path id="Path_40999" data-name="Path 40999" d="M255.313,286.075a12.182,12.182,0,0,1-2.913,7.54c-2.953-3.8-8.16-7.367-15.333-10.434-12.986-5.584-30.432-8.655-49.1-8.655s-36.1,3.072-49.092,8.655c-7.166,3.067-12.366,6.634-15.333,10.434a12.272,12.272,0,0,1-2.893-7.54c0-6.545,6.473-12.931,18.233-17.979,12.993-5.569,30.432-8.645,49.092-8.645s36.112,3.077,49.1,8.645C248.84,273.144,255.313,279.54,255.313,286.075Z" transform="translate(-113.437 -254.096)" fill="#ffc759"/>
        <path id="Path_41000" data-name="Path 41000" d="M255.313,286.075a12.182,12.182,0,0,1-2.913,7.54c-2.953-3.8-8.16-7.367-15.333-10.434-12.986-5.584-30.432-8.655-49.1-8.655s-36.1,3.072-49.092,8.655c-7.166,3.067-12.366,6.634-15.333,10.434a12.272,12.272,0,0,1-2.893-7.54c0-6.545,6.473-12.931,18.233-17.979,12.993-5.569,30.432-8.645,49.092-8.645s36.112,3.077,49.1,8.645C248.84,273.144,255.313,279.54,255.313,286.075Z" transform="translate(-113.437 -254.096)" fill="#fff" opacity="0.3"/>
        <path id="Path_41001" data-name="Path 41001" d="M138.883,268.585c-11.76,5.048-18.233,11.435-18.233,17.979a12.277,12.277,0,0,0,2.9,7.54c2.973-3.8,8.173-7.367,15.333-10.434A87.809,87.809,0,0,1,148.3,280.3c-2.84.817-11.56,2.9-8.38-3.275,3.78-7.337,22.226-15.284,35.779-16.6h0C161.755,261.446,148.976,264.26,138.883,268.585Z" transform="translate(-113.437 -254.585)" fill="#ffc759" opacity="0.6"/>
        <path id="Path_41002" data-name="Path 41002" d="M237.38,281.88c-13-5.579-30.439-8.65-49.1-8.65s-36.106,3.072-49.105,8.65c-9.693,4.162-15.786,9.235-17.626,14.561,1.84,5.326,7.933,10.4,17.626,14.561,13.006,5.579,30.439,8.65,49.105,8.65s36.1-3.072,49.1-8.65c9.7-4.162,15.793-9.235,17.626-14.561C253.179,291.115,247.08,286.042,237.38,281.88Z" transform="translate(-113.737 -261.049)" fill="#fff" opacity="0.4"/>
        <path id="Path_41003" data-name="Path 41003" d="M140.52,321.071a52.852,52.852,0,0,0,13.713,5.182,126.745,126.745,0,0,0,14.806,2.715,196.567,196.567,0,0,0,30.372,1.288c5.073-.168,10.153-.52,15.2-1.026q7.546-.753,14.926-2.185a79.629,79.629,0,0,0,14.086-3.964q1.656-.656,3.2-1.452a25.468,25.468,0,0,0,2.927-1.734,14.444,14.444,0,0,0,2.46-2.115,8.313,8.313,0,0,0,1.66-2.591,6.458,6.458,0,0,1-.667,2.973,12.286,12.286,0,0,1-1.907,2.715,18.434,18.434,0,0,1-2.613,2.378,31.191,31.191,0,0,1-3.06,2.056,62.383,62.383,0,0,1-14.286,5.826,116.892,116.892,0,0,1-15.579,3.225,156.024,156.024,0,0,1-16,1.412,135.938,135.938,0,0,1-32-2.532,87.607,87.607,0,0,1-15.006-4.459,50.141,50.141,0,0,1-6.733-3.339c-.527-.312-1.02-.654-1.527-.991s-.987-.679-1.447-1.04a20.222,20.222,0,0,1-2.527-2.343Z" transform="translate(-120.061 -282.22)" fill="#fff"/>
        <path id="Path_41004" data-name="Path 41004" d="M297.38,370.8c.182-2.733,2.109-5.236,5.187-6.738a4.768,4.768,0,0,1,3.673-.287h0l16.613,7.06h0a2.546,2.546,0,0,1,1.533,2.477c-.185,2.732-2.111,5.235-5.187,6.738a4.749,4.749,0,0,1-3.693.282h0L298.9,373.279h0A2.5,2.5,0,0,1,297.38,370.8Z" transform="translate(-172.35 -306.61)" fill="#18a34c"/>
        <path id="Path_41005" data-name="Path 41005" d="M298.933,377.765a2.557,2.557,0,0,1-1.553-2.512,5.786,5.786,0,0,1,.887-2.9l23.873,10.166a9.446,9.446,0,0,1-2.906,2.021,4.749,4.749,0,0,1-3.693.282Z" transform="translate(-172.35 -311.061)" fill="#0d682f"/>
        <path id="Path_41006" data-name="Path 41006" d="M388.235,398.078h0l-52.865-20.02h0l-.067-.03h0a6.234,6.234,0,0,0-4.727.386c-3.747,1.625-6.766,5.549-6.746,8.769a3.337,3.337,0,0,0,2,3.27l49.685,23.781h0a16.414,16.414,0,0,0,12.849.277c4.029-1.66,6.517-4.823,6.489-8.246s-2.569-6.563-6.625-8.187Z" transform="translate(-181.168 -313.772)" fill="#18a34c"/>
        <path id="Path_41007" data-name="Path 41007" d="M325.83,397.567l49.685,23.781a16.42,16.42,0,0,0,12.429.4c3.949-1.5,6.542-4.44,6.824-7.731-.953,3.077-7.793,5.693-16.273,2.17S338.6,397.909,324.33,391.8a6.606,6.606,0,0,0-.52,2.477A3.36,3.36,0,0,0,325.83,397.567Z" transform="translate(-181.161 -320.875)" fill="#0d682f"/>
        <path id="Path_41008" data-name="Path 41008" d="M325.84,390.476a3.308,3.308,0,0,1-2-3.27c0-3.22,3-7.144,6.746-8.769a6.257,6.257,0,0,1,4.727-.386l4.667,1.764a6.454,6.454,0,0,0-4.846.4c-3.84,1.665-6.94,5.693-6.92,9a3.414,3.414,0,0,0,2.033,3.374" transform="translate(-181.171 -313.784)" fill="#ffc759"/>
        <path id="Path_41009" data-name="Path 41009" d="M330.236,399.672A3.462,3.462,0,0,1,328.2,396.3a6.791,6.791,0,0,1,.54-2.581c-1.593-.7-3.08-1.347-4.406-1.917a7.8,7.8,0,0,0-.393,1.263q-.06.312-.1.624a3.72,3.72,0,0,0,0,.609,3.336,3.336,0,0,0,2,3.27Z" transform="translate(-181.167 -320.875)" opacity="0.2"/>
      </g>
    </g>
    <g id="freepik--paper-planes--inject-13" transform="translate(40.723 32.564)">
      <g id="freepik--paper-plane--inject-13" transform="translate(0 123.951)">
        <path id="Path_41010" data-name="Path 41010" d="M109.242,434.618l-40-14.868L53.31,424.992Z" transform="translate(-53.31 -355.684)" fill="#ffc759"/>
        <g id="Group_46041" data-name="Group 46041" transform="translate(0 64.066)" opacity="0.15">
          <path id="Path_41011" data-name="Path 41011" d="M109.242,434.618l-40-14.868L53.31,424.992Z" transform="translate(-53.31 -419.75)" fill="#fff"/>
        </g>
        <path id="Path_41012" data-name="Path 41012" d="M119.592,425.072l-35.232-17.5,6.306-6.738Z" transform="translate(-63.661 -346.138)" fill="#ffc759"/>
        <g id="Group_46042" data-name="Group 46042" transform="translate(20.699 54.692)" opacity="0.15">
          <path id="Path_41013" data-name="Path 41013" d="M119.592,425.072l-35.232-17.5,6.306-6.738Z" transform="translate(-84.36 -400.83)" fill="#fff"/>
        </g>
        <path id="Path_41014" data-name="Path 41014" d="M84.36,414.43l.66,4.652,34.572,12.852Z" transform="translate(-63.661 -353)" fill="#ffc759"/>
        <g id="Group_46043" data-name="Group 46043" transform="translate(20.699 61.43)" opacity="0.2">
          <path id="Path_41015" data-name="Path 41015" d="M84.36,414.43l.66,4.652,34.572,12.852Z" transform="translate(-84.36 -414.43)"/>
        </g>
        <path id="Path_41016" data-name="Path 41016" d="M75.216,411.185a.472.472,0,0,0,.26-.079.285.285,0,0,0,.04-.461l-.767-.763a.415.415,0,0,0-.268-.114.459.459,0,0,0-.292.075.289.289,0,0,0-.047.461c.253.253.513.5.773.748A.43.43,0,0,0,75.216,411.185Z" transform="translate(-60.223 -350.647)" fill="#455a64"/>
        <path id="Path_41017" data-name="Path 41017" d="M65,349.158q-.713-.773-1.38-1.561a.294.294,0,0,1,.1-.456.465.465,0,0,1,.3-.054.38.38,0,0,1,.249.133c.447.52.9,1.035,1.333,1.546a.285.285,0,0,1-.08.456.411.411,0,0,1-.52-.064ZM61.473,344.9c-.407-.55-.807-1.11-1.187-1.67a.3.3,0,0,1,.153-.446.487.487,0,0,1,.31-.028.353.353,0,0,1,.23.157c.373.55.767,1.1,1.167,1.645a.294.294,0,0,1-.127.451.515.515,0,0,1-.207.045A.427.427,0,0,1,61.473,344.9ZM58.5,340.364c-.333-.59-.667-1.184-.947-1.774a.31.31,0,0,1,.213-.426.511.511,0,0,1,.313,0,.335.335,0,0,1,.207.175c.287.58.6,1.164.933,1.744a.308.308,0,0,1-.193.436.49.49,0,0,1-.167.03.413.413,0,0,1-.36-.188Zm-2.307-4.8c-.24-.619-.467-1.248-.667-1.858-.066-.168.057-.345.28-.4a.512.512,0,0,1,.31.035.307.307,0,0,1,.177.193c.193.6.413,1.219.667,1.828.07.165-.039.343-.253.411h-.12A.416.416,0,0,1,56.193,335.568Zm-1.547-5.009c-.133-.629-.253-1.273-.353-1.912-.041-.171.111-.334.34-.367a.4.4,0,0,1,.447.282c.093.629.213,1.263.347,1.883.047.167-.091.333-.313.376H55.04A.4.4,0,0,1,54.646,330.559Zm-.667-5.133c0-.5-.04-.991-.04-1.521v-.416a.265.265,0,0,1,.107-.222.483.483,0,0,1,.287-.1h0c.23.013.4.161.387.332v1.893c.019.172-.149.324-.38.342h0c-.207-.02-.362-.152-.36-.307Zm.527-4.8c-.227-.03-.382-.187-.353-.357.073-.639.167-1.288.273-1.927a.284.284,0,0,1,.147-.209.5.5,0,0,1,.306-.063c.226.035.374.2.333.367-.107.629-.2,1.268-.273,1.893a.377.377,0,0,1-.393.3Zm.933-5.063c-.222-.052-.35-.224-.293-.391.173-.629.373-1.258.593-1.878a.3.3,0,0,1,.177-.191.5.5,0,0,1,.31-.032c.219.063.337.239.273.406-.213.6-.413,1.229-.587,1.843a.377.377,0,0,1-.38.253Zm1.8-4.9c-.21-.076-.306-.26-.22-.421.287-.595.607-1.194.94-1.779a.35.35,0,0,1,.217-.165.51.51,0,0,1,.31.006.312.312,0,0,1,.193.436,18.738,18.738,0,0,0-.927,1.744.4.4,0,0,1-.367.2.381.381,0,0,1-.147-.025Zm2.74-4.6a.3.3,0,0,1-.14-.451c.407-.55.833-1.1,1.267-1.63a.381.381,0,0,1,.249-.139.477.477,0,0,1,.3.05.3.3,0,0,1,.107.456c-.433.52-.853,1.06-1.247,1.6a.415.415,0,0,1-.34.159A.463.463,0,0,1,59.98,306.06Zm3.54-4.206a.285.285,0,0,1-.047-.456c.5-.5,1.027-.991,1.553-1.456a.454.454,0,0,1,.56,0,.284.284,0,0,1,0,.461c-.52.461-1.033.936-1.527,1.427a.431.431,0,0,1-.307.119.419.419,0,0,1-.267-.094Zm4.287-3.706a.284.284,0,0,1,0-.461c.587-.431,1.193-.852,1.8-1.249a.465.465,0,0,1,.3-.068.4.4,0,0,1,.263.122.294.294,0,0,1-.067.461c-.6.386-1.193.8-1.773,1.219a.443.443,0,0,1-.26.084.436.436,0,0,1-.293-.109Zm4.907-3.136a.3.3,0,0,1,.12-.451c.667-.357,1.333-.689,2-.991a.49.49,0,0,1,.306-.025.354.354,0,0,1,.227.154.3.3,0,0,1-.153.441c-.667.3-1.333.624-2,.991a.459.459,0,0,1-.213.049.421.421,0,0,1-.32-.168Z" transform="translate(-53.52 -291.998)" fill="#455a64"/>
        <path id="Path_41018" data-name="Path 41018" d="M90.7,291.31h.12a7.792,7.792,0,0,1,1.087-.223c.227-.037.375-.2.333-.372a.287.287,0,0,0-.145-.209.508.508,0,0,0-.3-.069,9.691,9.691,0,0,0-1.213.248c-.219.065-.333.245-.26.411A.409.409,0,0,0,90.7,291.31Z" transform="translate(-65.64 -290.437)" fill="#455a64"/>
      </g>
      <g id="freepik--paper-plane--inject-13-2" data-name="freepik--paper-plane--inject-13" transform="translate(171.255)">
        <path id="Path_41019" data-name="Path 41019" d="M351.2,52.639l-41-9.339,31.586,16.126Z" transform="translate(-310.2 -41.789)" fill="#ffc759"/>
        <path id="Path_41020" data-name="Path 41020" d="M351.2,52.639l-41-9.339,31.586,16.126Z" transform="translate(-310.2 -41.789)" fill="#fff" opacity="0.15"/>
        <path id="Path_41021" data-name="Path 41021" d="M310.2,41.761l44.125,5.276,9.413-6.787Z" transform="translate(-310.2 -40.25)" fill="#ffc759"/>
        <path id="Path_41022" data-name="Path 41022" d="M310.2,41.761l44.125,5.276,9.413-6.787Z" transform="translate(-310.2 -40.25)" fill="#fff" opacity="0.15"/>
        <path id="Path_41023" data-name="Path 41023" d="M354.325,48.576l.04,8.105L351.2,52.639l-41-9.339Z" transform="translate(-310.2 -41.789)" fill="#ffc759"/>
        <path id="Path_41024" data-name="Path 41024" d="M354.325,48.576l.04,8.105L351.2,52.639l-41-9.339Z" transform="translate(-310.2 -41.789)" opacity="0.2"/>
        <path id="Path_41025" data-name="Path 41025" d="M373.3,66.193l-6.307-1.779,3.14-2.264Z" transform="translate(-329.131 -51.3)" fill="#ffc759"/>
        <path id="Path_41026" data-name="Path 41026" d="M370.13,62.15l-3.14,2.264L368,64.7Z" transform="translate(-329.131 -51.3)" opacity="0.2"/>
        <path id="Path_41027" data-name="Path 41027" d="M388.788,59.213a.26.26,0,0,0-.14.178c-.029.175.119.339.347.386l1.213.243a.478.478,0,0,0,.306-.03.28.28,0,0,0,.167-.193c.033-.172-.109-.337-.333-.386l-1.227-.243a.489.489,0,0,0-.333.045Z" transform="translate(-336.35 -49.79)" fill="#455a64"/>
        <path id="Path_41028" data-name="Path 41028" d="M396.939,61.482c.793.2,1.587.406,2.367.619.221.062.348.234.3.406a.315.315,0,0,1-.2.177.492.492,0,0,1-.31.006c-.773-.213-1.56-.416-2.347-.614-.222-.056-.353-.226-.307-.4a.257.257,0,0,1,.133-.159A.49.49,0,0,1,396.939,61.482Zm6.273,1.793c.78.258,1.547.5,2.307.8.213.074.317.256.24.421a.352.352,0,0,1-.223.161.5.5,0,0,1-.31-.017c-.747-.272-1.507-.535-2.273-.783-.213-.072-.324-.249-.26-.416a.279.279,0,0,1,.127-.134.5.5,0,0,1,.393-.03Zm6.066,2.274q1.12.476,2.2.991a.3.3,0,0,1,.18.436.4.4,0,0,1-.252.14.5.5,0,0,1-.308-.045c-.707-.332-1.433-.654-2.167-.991a.306.306,0,0,1-.2-.431.266.266,0,0,1,.107-.1A.518.518,0,0,1,409.278,65.55Zm5.747,2.779c.7.381,1.387.778,2.047,1.174a.28.28,0,0,1,.1.446.435.435,0,0,1-.276.112.474.474,0,0,1-.3-.078q-1-.587-2-1.154a.288.288,0,0,1-.133-.446.22.22,0,0,1,.08-.064A.533.533,0,0,1,415.025,68.329Zm5.3,3.309c.627.441,1.247.9,1.847,1.362a.266.266,0,0,1,0,.446.519.519,0,0,1-.587,0c-.587-.456-1.2-.907-1.813-1.338a.271.271,0,0,1-.053-.446l.053-.04A.524.524,0,0,1,420.325,71.639Zm4.727,3.775c.433.391.853.788,1.273,1.194l.333.332a.261.261,0,0,1-.053.436h0a.531.531,0,0,1-.314.049.439.439,0,0,1-.266-.133l-.333-.327c-.407-.4-.82-.788-1.247-1.174a.262.262,0,0,1,0-.441h0a.511.511,0,0,1,.316-.077.462.462,0,0,1,.29.122Zm3.5,4.063a.523.523,0,0,1,.573.119c.46.545.913,1.1,1.333,1.66a.239.239,0,0,1,.053.231.326.326,0,0,1-.186.19.521.521,0,0,1-.567-.144c-.427-.55-.873-1.1-1.333-1.63a.256.256,0,0,1,.073-.411Zm3.38,4.459a.511.511,0,0,1,.56.178c.367.58.727,1.169,1.053,1.759a.228.228,0,0,1,.012.233.36.36,0,0,1-.219.168.5.5,0,0,1-.547-.2c-.32-.58-.667-1.159-1.033-1.724a.25.25,0,0,1,.1-.377.228.228,0,0,1,.073-.069Zm2.567,4.707a.48.48,0,0,1,.52.238c.253.6.493,1.224.7,1.838a.221.221,0,0,1-.037.23.4.4,0,0,1-.256.132.464.464,0,0,1-.5-.258c-.207-.6-.44-1.214-.667-1.8a.249.249,0,0,1,.12-.327.319.319,0,0,1,.12-.084Zm1.6,4.88a.448.448,0,0,1,.473.3c.133.619.24,1.248.327,1.873a.233.233,0,0,1-.089.217.437.437,0,0,1-.277.095.427.427,0,0,1-.453-.312c-.087-.609-.187-1.224-.32-1.833a.259.259,0,0,1,.14-.277.406.406,0,0,1,.2-.094Z" transform="translate(-338.947 -50.954)" fill="#455a64"/>
      </g>
    </g>
    <g id="freepik--Stars--inject-13" transform="translate(248.73 25.029)">
      <g id="freepik--stars--inject-13-2" data-name="freepik--stars--inject-13" transform="translate(0 128.695)">
        <path id="Path_41029" data-name="Path 41029" d="M433.028,285.311c-1.787-.793-4.307-.684-7.106.5l-50.772,21.8c-5.42,2.324-9.82,7.853-9.82,12.346a4.532,4.532,0,0,0,2.76,4.459l5.446,2.333c1.78.753,4.267.634,7.026-.55l50.779-21.8c5.42-2.324,9.813-7.853,9.813-12.346a4.553,4.553,0,0,0-2.733-4.459C437.494,287.214,433.921,285.708,433.028,285.311Z" transform="translate(-365.33 -284.802)" fill="#e0e0e0"/>
        <path id="Path_41030" data-name="Path 41030" d="M378.933,329.65c-3.067,0-4.973-1.8-4.973-4.7,0-4.4,4.326-9.849,9.646-12.128l50.779-21.8a11.244,11.244,0,0,1,4.34-.991c3.067,0,4.973,1.8,4.973,4.7,0,4.409-4.327,9.849-9.646,12.133l-50.778,21.8A11.159,11.159,0,0,1,378.933,329.65Z" transform="translate(-368.207 -287.44)" fill="#fafafa"/>
        <path id="Path_41031" data-name="Path 41031" d="M438.558,289.99h0c2.86,0,4.667,1.709,4.667,4.459,0,4.33-4.253,9.676-9.48,11.89l-50.779,21.8a10.8,10.8,0,0,1-4.173.961,4.863,4.863,0,0,1-3.333-1.115,4.325,4.325,0,0,1-1.333-3.339c0-4.325,4.253-9.671,9.48-11.89l50.779-21.8a10.8,10.8,0,0,1,4.173-.961m0-.5a11.519,11.519,0,0,0-4.507,1.031l-50.778,21.8c-5.42,2.329-9.813,7.853-9.813,12.346,0,3.146,2.153,4.954,5.333,4.954A11.616,11.616,0,0,0,383.3,328.6l50.778-21.8c5.42-2.324,9.813-7.853,9.813-12.346,0-3.146-2.153-4.954-5.333-4.954Z" transform="translate(-368.04 -287.173)" fill="#ebebeb"/>
        <g id="freepik--stars--inject-13-3" data-name="freepik--stars--inject-13" transform="translate(12.486 6.993)">
          <path id="Path_41032" data-name="Path 41032" d="M394.769,342.7c.207-.287.173-.585,0-.664l-1.7-.728a.332.332,0,0,0-.233,0l-1.56.446-.513-.813a.251.251,0,0,0-.12-.094l-1.7-.733c-.213-.089-.567.114-.707.451l-1.06,2.581a.805.805,0,0,1-.347.4l-2.367,1.362c-.38.213-.527.738-.253.882l1.713.922a.321.321,0,0,1,.133.347l-.407,2.512a.291.291,0,0,0,.153.352l1.7.733a.526.526,0,0,0,.513-.163l2.12-2.011a.558.558,0,0,1,.427-.183l2.127.173a.731.731,0,0,0,.667-.763l-.407-2.165a.638.638,0,0,1,.133-.461Z" transform="translate(-384.063 -319.696)" fill="#ffc759"/>
          <path id="Path_41033" data-name="Path 41033" d="M398.343,343.237a.37.37,0,0,0-.233,0l-2.373.674a.325.325,0,0,1-.2.006.225.225,0,0,1-.141-.106l-.547-.862,1.56-.441a.342.342,0,0,1,.233,0Z" transform="translate(-387.657 -320.902)" fill="#fff" opacity="0.15"/>
          <path id="Path_41034" data-name="Path 41034" d="M388.917,346.978a.826.826,0,0,1-.347.4l-2.367,1.357a.713.713,0,0,0-.253.238l-1.7-.733A.813.813,0,0,1,384.5,348l2.367-1.357a.815.815,0,0,0,.347-.391h0Z" transform="translate(-384.123 -322.8)" fill="#fff" opacity="0.15"/>
          <path id="Path_41035" data-name="Path 41035" d="M392.18,340.837c-.213-.1-.573.1-.72.446l-1.06,2.581-1.7-.733,1.06-2.581c.14-.337.493-.54.707-.451.047,0,1.487.644,1.707.733Z" transform="translate(-385.607 -319.686)" opacity="0.1"/>
          <path id="Path_41036" data-name="Path 41036" d="M387.6,352.574l-1.687-.723h0l-1.713-.922c-.2-.109-.173-.406,0-.649l1.7.733c-.173.238-.2.54,0,.649Z" transform="translate(-384.06 -324.833)" opacity="0.25"/>
          <path id="Path_41037" data-name="Path 41037" d="M388.148,357.037c0,.183.04.307.167.357h0l-1.707-.733a.294.294,0,0,1-.147-.352l.407-2.512a.32.32,0,0,0-.12-.337l1.687.723h0a.309.309,0,0,1,.12.332Z" transform="translate(-384.855 -326.438)" opacity="0.15"/>
          <path id="Path_41038" data-name="Path 41038" d="M391.6,341.671l1.06,1.675a.225.225,0,0,0,.141.106.326.326,0,0,0,.2-.006l2.373-.674c.373-.109.527.287.253.669l-1.713,2.388a.638.638,0,0,0-.133.461l.407,2.165a.731.731,0,0,1-.667.763l-2.12-.193a.558.558,0,0,0-.427.183l-2.093,2.011c-.34.322-.733.208-.667-.193l.407-2.512a.313.313,0,0,0-.133-.347l-1.713-.917c-.273-.149-.12-.669.253-.887l2.367-1.357a.806.806,0,0,0,.347-.4l1.06-2.581C390.937,341.617,391.424,341.409,391.6,341.671Z" transform="translate(-384.917 -320.431)" fill="#ffc759"/>
          <path id="Path_41039" data-name="Path 41039" d="M391.6,341.671l1.06,1.675a.225.225,0,0,0,.141.106.326.326,0,0,0,.2-.006l2.373-.674c.373-.109.527.287.253.669l-1.713,2.388a.638.638,0,0,0-.133.461l.407,2.165a.731.731,0,0,1-.667.763l-2.12-.193a.558.558,0,0,0-.427.183l-2.093,2.011c-.34.322-.733.208-.667-.193l.407-2.512a.313.313,0,0,0-.133-.347l-1.713-.917c-.273-.149-.12-.669.253-.887l2.367-1.357a.806.806,0,0,0,.347-.4l1.06-2.581C390.937,341.617,391.424,341.409,391.6,341.671Z" transform="translate(-384.917 -320.431)" fill="#fff" opacity="0.5"/>
          <path id="Path_41040" data-name="Path 41040" d="M412.628,332.41c.207-.287.167-.58,0-.659l-1.693-.728a.35.35,0,0,0-.24,0l-1.553.446-.52-.812a.209.209,0,0,0-.113-.094l-1.7-.733c-.213-.089-.567.114-.707.451l-1.107,2.6a.842.842,0,0,1-.347.4l-2.367,1.357c-.38.218-.527.743-.26.887l1.72.921a.311.311,0,0,1,.127.347l-.4,2.512a.288.288,0,0,0,.147.352l1.68.708a.529.529,0,0,0,.513-.163l2.12-2.011a.557.557,0,0,1,.427-.183l2.12.193a.734.734,0,0,0,.667-.763l-.4-2.165a.611.611,0,0,1,.133-.461Z" transform="translate(-390.002 -314.504)" fill="#ffc759"/>
          <path id="Path_41041" data-name="Path 41041" d="M416.183,332.957a.379.379,0,0,0-.233,0l-2.393.674a.334.334,0,0,1-.2.007.232.232,0,0,1-.144-.106l-.54-.862,1.553-.441a.359.359,0,0,1,.24,0Z" transform="translate(-393.597 -315.715)" fill="#fff" opacity="0.15"/>
          <path id="Path_41042" data-name="Path 41042" d="M406.763,336.7a.827.827,0,0,1-.347.4l-2.387,1.372a.714.714,0,0,0-.253.238l-1.687-.733a.926.926,0,0,1,.26-.238l2.367-1.357a.841.841,0,0,0,.347-.4h0Z" transform="translate(-390.07 -317.618)" fill="#fff" opacity="0.15"/>
          <path id="Path_41043" data-name="Path 41043" d="M410.03,330.572c-.213-.1-.573.1-.72.446l-1.06,2.581-1.7-.708,1.06-2.581c.14-.337.493-.54.707-.451.047,0,1.487.644,1.7.728Z" transform="translate(-391.557 -314.519)" opacity="0.1"/>
          <path id="Path_41044" data-name="Path 41044" d="M405.452,342.279l-1.687-.718h0l-1.713-.922c-.193-.109-.167-.406,0-.649l1.707.733c-.173.238-.2.54,0,.644Z" transform="translate(-390.013 -319.641)" opacity="0.25"/>
          <path id="Path_41045" data-name="Path 41045" d="M405.962,346.742a.3.3,0,0,0,.16.362h0l-1.7-.733a.291.291,0,0,1-.147-.352l.407-2.512a.332.332,0,0,0-.12-.337l1.687.718h0a.309.309,0,0,1,.12.332Z" transform="translate(-390.796 -321.246)" opacity="0.15"/>
          <path id="Path_41046" data-name="Path 41046" d="M409.423,331.388l1.06,1.674a.233.233,0,0,0,.144.106.334.334,0,0,0,.2-.007l2.373-.674c.373-.109.527.287.253.664l-1.713,2.393a.611.611,0,0,0-.133.461l.4,2.165a.725.725,0,0,1-.667.763l-2.12-.193a.558.558,0,0,0-.427.183l-2.12,2.011c-.34.322-.733.208-.667-.193l.407-2.512a.32.32,0,0,0-.133-.347l-1.713-.917c-.273-.149-.127-.669.253-.887l2.367-1.357a.806.806,0,0,0,.347-.4l1.06-2.581C408.77,331.334,409.256,331.14,409.423,331.388Z" transform="translate(-390.85 -315.246)" fill="#ffc759"/>
          <path id="Path_41047" data-name="Path 41047" d="M409.423,331.388l1.06,1.674a.233.233,0,0,0,.144.106.334.334,0,0,0,.2-.007l2.373-.674c.373-.109.527.287.253.664l-1.713,2.393a.611.611,0,0,0-.133.461l.4,2.165a.725.725,0,0,1-.667.763l-2.12-.193a.558.558,0,0,0-.427.183l-2.12,2.011c-.34.322-.733.208-.667-.193l.407-2.512a.32.32,0,0,0-.133-.347l-1.713-.917c-.273-.149-.127-.669.253-.887l2.367-1.357a.806.806,0,0,0,.347-.4l1.06-2.581C408.77,331.334,409.256,331.14,409.423,331.388Z" transform="translate(-390.85 -315.246)" fill="#fff" opacity="0.5"/>
          <path id="Path_41048" data-name="Path 41048" d="M430.457,322.135c.2-.287.167-.58,0-.659l-1.72-.713a.387.387,0,0,0-.24,0l-1.56.446-.513-.813a.209.209,0,0,0-.113-.094l-1.7-.733c-.213-.089-.573.114-.707.451l-1.06,2.581a.842.842,0,0,1-.347.4l-2.373,1.358c-.373.218-.527.738-.253.887l1.713.922a.3.3,0,0,1,.133.347l-.407,2.512c0,.183.04.3.153.352l1.7.733a.537.537,0,0,0,.52-.164l2.113-2.011a.561.561,0,0,1,.433-.183l2.113.193a.725.725,0,0,0,.667-.763l-.4-2.165a.631.631,0,0,1,.127-.461Z" transform="translate(-395.951 -309.327)" fill="#ffc759"/>
          <path id="Path_41049" data-name="Path 41049" d="M434.04,322.667a.4.4,0,0,0-.24,0l-2.367.674a.334.334,0,0,1-.2.007.233.233,0,0,1-.144-.106l-.547-.862,1.56-.441a.342.342,0,0,1,.233,0Z" transform="translate(-399.554 -310.523)" fill="#fff" opacity="0.15"/>
          <path id="Path_41050" data-name="Path 41050" d="M424.663,326.388a.852.852,0,0,1-.347.4l-2.367,1.357a.794.794,0,0,0-.26.238l-1.7-.733a.925.925,0,0,1,.26-.238l2.367-1.357a.841.841,0,0,0,.347-.4h0Z" transform="translate(-396.037 -312.411)" fill="#fff" opacity="0.15"/>
          <path id="Path_41051" data-name="Path 41051" d="M427.9,320.242c-.213-.1-.58.1-.72.441l-1.027,2.6-1.7-.728,1.06-2.581c.14-.337.493-.54.707-.451.047,0,1.48.644,1.7.728Z" transform="translate(-397.524 -309.302)" opacity="0.1"/>
          <path id="Path_41052" data-name="Path 41052" d="M423.284,331.984l-1.68-.718h0l-1.733-.927c-.193-.109-.173-.406,0-.649l1.7.733c-.167.238-.193.54,0,.644Z" transform="translate(-395.952 -314.444)" opacity="0.25"/>
          <path id="Path_41053" data-name="Path 41053" d="M423.81,336.452a.3.3,0,0,0,.16.362h0l-1.7-.733a.3.3,0,0,1-.153-.352l.407-2.517a.315.315,0,0,0-.113-.332l1.68.718h0a.328.328,0,0,1,.12.332Z" transform="translate(-396.744 -316.054)" opacity="0.15"/>
          <path id="Path_41054" data-name="Path 41054" d="M427.275,321.091l1.06,1.675a.233.233,0,0,0,.144.106.334.334,0,0,0,.2-.007l2.367-.674c.38-.109.527.287.26.664l-1.72,2.393a.631.631,0,0,0-.127.461l.4,2.165a.725.725,0,0,1-.667.763l-2.113-.193a.559.559,0,0,0-.433.183l-2.113,2.011c-.34.322-.733.208-.667-.193l.4-2.512a.311.311,0,0,0-.127-.347l-1.72-.922c-.267-.144-.12-.669.26-.882l2.367-1.357a.842.842,0,0,0,.347-.4l1.06-2.581C426.622,321.037,427.109,320.829,427.275,321.091Z" transform="translate(-396.803 -310.047)" fill="#ffc759"/>
          <path id="Path_41055" data-name="Path 41055" d="M427.275,321.091l1.06,1.675a.233.233,0,0,0,.144.106.334.334,0,0,0,.2-.007l2.367-.674c.38-.109.527.287.26.664l-1.72,2.393a.631.631,0,0,0-.127.461l.4,2.165a.725.725,0,0,1-.667.763l-2.113-.193a.559.559,0,0,0-.433.183l-2.113,2.011c-.34.322-.733.208-.667-.193l.4-2.512a.311.311,0,0,0-.127-.347l-1.72-.922c-.267-.144-.12-.669.26-.882l2.367-1.357a.842.842,0,0,0,.347-.4l1.06-2.581C426.622,321.037,427.109,320.829,427.275,321.091Z" transform="translate(-396.803 -310.047)" fill="#fff" opacity="0.5"/>
          <path id="Path_41056" data-name="Path 41056" d="M448.31,311.825c.207-.287.173-.58,0-.659l-1.693-.733a.386.386,0,0,0-.24,0l-1.56.446-.513-.812a.24.24,0,0,0-.113-.1c-.213-.084-1.653-.708-1.7-.728-.213-.089-.573.114-.713.451l-1.06,2.581a.825.825,0,0,1-.34.4L438,314.024c-.373.218-.527.738-.253.887l1.713.922a.3.3,0,0,1,.133.342l-.407,2.512c0,.183.04.307.153.357l1.7.733a.526.526,0,0,0,.513-.164l2.12-2.011a.558.558,0,0,1,.427-.183l2.12.193a.725.725,0,0,0,.667-.763l-.407-2.165a.664.664,0,0,1,.133-.461Z" transform="translate(-401.911 -304.115)" fill="#ffc759"/>
          <path id="Path_41057" data-name="Path 41057" d="M451.883,312.375a.369.369,0,0,0-.233,0l-2.373.674a.326.326,0,0,1-.2.006.224.224,0,0,1-.141-.106l-.547-.862,1.56-.441a.314.314,0,0,1,.233,0Z" transform="translate(-405.504 -305.329)" fill="#fff" opacity="0.15"/>
          <path id="Path_41058" data-name="Path 41058" d="M442.463,316.1a.853.853,0,0,1-.347.4l-2.367,1.357a.8.8,0,0,0-.26.238l-1.7-.733a.893.893,0,0,1,.253-.238l2.367-1.357a.817.817,0,0,0,.353-.4h0Z" transform="translate(-401.971 -307.219)" fill="#fff" opacity="0.15"/>
          <path id="Path_41059" data-name="Path 41059" d="M445.73,309.967c-.213-.1-.58.1-.72.441l-1.06,2.581-1.7-.728,1.06-2.581c.133-.337.493-.54.707-.451.047,0,1.48.644,1.7.728Z" transform="translate(-403.458 -304.11)" opacity="0.1"/>
          <path id="Path_41060" data-name="Path 41060" d="M441.143,321.669l-1.68-.718h0l-1.713-.922c-.2-.109-.173-.406,0-.649l1.7.733c-.173.238-.193.54,0,.644Z" transform="translate(-401.911 -309.242)" opacity="0.25"/>
          <path id="Path_41061" data-name="Path 41061" d="M441.647,326.137c0,.188.047.312.167.362h0l-1.713-.758a.3.3,0,0,1-.153-.352l.407-2.517a.326.326,0,0,0-.113-.332l1.68.718h0a.315.315,0,0,1,.113.332Z" transform="translate(-402.688 -310.837)" opacity="0.15"/>
          <path id="Path_41062" data-name="Path 41062" d="M445.124,310.8l1.06,1.675a.233.233,0,0,0,.144.106.335.335,0,0,0,.2-.007l2.367-.674c.38-.109.527.287.253.664l-1.713,2.393a.665.665,0,0,0-.133.461l.407,2.165a.725.725,0,0,1-.667.763l-2.12-.193a.558.558,0,0,0-.427.183l-2.12,2.011c-.333.322-.727.208-.667-.193l.407-2.512a.3.3,0,0,0-.133-.347l-1.713-.922c-.273-.144-.12-.669.253-.882l2.373-1.357a.862.862,0,0,0,.347-.4l1.06-2.586C444.47,310.747,444.957,310.539,445.124,310.8Z" transform="translate(-402.751 -304.855)" fill="#ffc759"/>
          <path id="Path_41063" data-name="Path 41063" d="M445.124,310.8l1.06,1.675a.233.233,0,0,0,.144.106.335.335,0,0,0,.2-.007l2.367-.674c.38-.109.527.287.253.664l-1.713,2.393a.665.665,0,0,0-.133.461l.407,2.165a.725.725,0,0,1-.667.763l-2.12-.193a.558.558,0,0,0-.427.183l-2.12,2.011c-.333.322-.727.208-.667-.193l.407-2.512a.3.3,0,0,0-.133-.347l-1.713-.922c-.273-.144-.12-.669.253-.882l2.373-1.357a.862.862,0,0,0,.347-.4l1.06-2.586C444.47,310.747,444.957,310.539,445.124,310.8Z" transform="translate(-402.751 -304.855)" fill="#fff" opacity="0.5"/>
          <path id="Path_41064" data-name="Path 41064" d="M466.143,301.534c.207-.287.173-.58,0-.664l-1.7-.728a.369.369,0,0,0-.233,0l-1.56.446-.513-.813a.331.331,0,0,0-.113-.1c-.22-.084-1.66-.708-1.7-.728-.22-.089-.573.109-.713.451l-1.06,2.581a.805.805,0,0,1-.347.4l-2.4,1.353c-.38.218-.527.738-.253.887l1.713.922a.3.3,0,0,1,.133.342l-.393,2.5c0,.183.04.307.153.357l1.7.733a.526.526,0,0,0,.513-.164l2.12-2.011a.558.558,0,0,1,.427-.183l2.12.193a.734.734,0,0,0,.667-.763l-.407-2.165a.634.634,0,0,1,.133-.461Z" transform="translate(-407.844 -298.922)" fill="#ffc759"/>
          <path id="Path_41065" data-name="Path 41065" d="M469.733,302.082a.341.341,0,0,0-.233,0l-2.373.674a.325.325,0,0,1-.2.006.225.225,0,0,1-.14-.105l-.547-.862,1.56-.446a.332.332,0,0,1,.233,0Z" transform="translate(-411.455 -300.133)" fill="#fff" opacity="0.15"/>
          <path id="Path_41066" data-name="Path 41066" d="M460.313,305.808a.864.864,0,0,1-.353.4l-2.367,1.357a.773.773,0,0,0-.253.238l-1.7-.733a.813.813,0,0,1,.253-.238l2.367-1.357a.806.806,0,0,0,.347-.4h0Z" transform="translate(-407.921 -302.027)" fill="#fff" opacity="0.15"/>
          <path id="Path_41067" data-name="Path 41067" d="M463.577,299.672c-.213-.1-.58.1-.72.446L461.8,302.7l-1.707-.728,1.06-2.581c.14-.337.5-.54.713-.451.047,0,1.48.644,1.7.728Z" transform="translate(-409.405 -298.918)" opacity="0.1"/>
          <path id="Path_41068" data-name="Path 41068" d="M458.99,311.409l-1.687-.718-1.713-.922c-.2-.109-.173-.406,0-.649l1.7.733c-.173.238-.2.54,0,.644Z" transform="translate(-407.858 -304.065)" opacity="0.25"/>
          <path id="Path_41069" data-name="Path 41069" d="M459.487,315.867c0,.188.04.312.167.357h0l-1.733-.733a.3.3,0,0,1-.153-.357l.407-2.512a.317.317,0,0,0-.12-.332l1.687.718h0a.311.311,0,0,1,.113.332Z" transform="translate(-408.628 -305.665)" opacity="0.15"/>
          <path id="Path_41070" data-name="Path 41070" d="M462.974,300.509l1.06,1.675a.233.233,0,0,0,.144.106.333.333,0,0,0,.2-.007l2.367-.674c.373-.109.527.287.253.664l-1.713,2.383a.634.634,0,0,0-.133.461l.407,2.165a.734.734,0,0,1-.667.763l-2.12-.193a.558.558,0,0,0-.427.183l-2.12,2.011c-.333.322-.727.2-.667-.193l.407-2.512a.313.313,0,0,0-.133-.347l-1.713-.922c-.273-.144-.12-.669.253-.882l2.373-1.357a.875.875,0,0,0,.34-.4l1.06-2.586C462.32,300.454,462.807,300.241,462.974,300.509Z" transform="translate(-408.702 -299.66)" fill="#ffc759"/>
          <path id="Path_41071" data-name="Path 41071" d="M462.974,300.509l1.06,1.675a.233.233,0,0,0,.144.106.333.333,0,0,0,.2-.007l2.367-.674c.373-.109.527.287.253.664l-1.713,2.383a.634.634,0,0,0-.133.461l.407,2.165a.734.734,0,0,1-.667.763l-2.12-.193a.558.558,0,0,0-.427.183l-2.12,2.011c-.333.322-.727.2-.667-.193l.407-2.512a.313.313,0,0,0-.133-.347l-1.713-.922c-.273-.144-.12-.669.253-.882l2.373-1.357a.875.875,0,0,0,.34-.4l1.06-2.586C462.32,300.454,462.807,300.241,462.974,300.509Z" transform="translate(-408.702 -299.66)" fill="#fff" opacity="0.5"/>
        </g>
      </g>
      <path id="freepik--star--inject-13" d="M429.21,33.532a.709.709,0,0,1-.167.119.968.968,0,0,1-.787.04l-2.967-1.159-2.973,1.159a.968.968,0,0,1-.787-.04.486.486,0,0,1-.293-.545l.567-2.477L419.4,28.89a.458.458,0,0,1-.187-.57.711.711,0,0,1,.6-.377l3.333-.357,1.487-2.239a.8.8,0,0,1,.667-.307.811.811,0,0,1,.667.307l1.487,2.239,3.333.357a.725.725,0,0,1,.6.378.462.462,0,0,1-.189.569h0l-2.407,1.739.573,2.477a.48.48,0,0,1-.153.426Zm-9.486-5.148-.04.064a.17.17,0,0,0,.073.213l2.573,1.868-.607,2.636a.193.193,0,0,0,.115.206.371.371,0,0,0,.3.017l3.187-1.244,3.18,1.244a.392.392,0,0,0,.3,0,.183.183,0,0,0,.113-.208l-.607-2.636,2.573-1.868a.178.178,0,0,0,.073-.213.264.264,0,0,0-.227-.144l-3.567-.386-1.627-2.418a.292.292,0,0,0-.253-.119.3.3,0,0,0-.227.119l-1.587,2.4L419.9,28.3A.326.326,0,0,0,419.724,28.384Z" transform="translate(-383.279 -25.04)" fill="#e0e0e0"/>
    </g>
    <g id="freepik--speech-bubbles--inject-13" transform="translate(210.197 65.24)">
      <g id="freepik--speech-bubbles--inject-13-2" data-name="freepik--speech-bubbles--inject-13">
        <g id="freepik--speech-bubble--inject-13">
          <g id="freepik--speech-bubble--inject-13-2" data-name="freepik--speech-bubble--inject-13">
            <path id="Path_41072" data-name="Path 41072" d="M354.869,107.589c-5.02-2.16-11.92-1.868-19.546,1.4-15.333,6.589-27.792,22.725-27.792,36.048,0,6.7,3.16,11.395,8.246,13.59,1.18.5,5.793,2.477,5.793,2.477-.438,3.06-2.853,5.769-6.473,7.263-.293.124-.113.337.147.446l7.047,3.027a.843.843,0,0,0,.313.069c6.94,0,14.973-3.468,17.213-10.672.84-.3,1.687-.619,2.547-.991,15.333-6.584,27.792-22.725,27.792-36.043,0-6.708-3.153-11.395-8.24-13.6Z" transform="translate(-307.53 -106.204)" fill="#0d682f"/>
            <path id="Path_41073" data-name="Path 41073" d="M345.883,115.088c-15.333,6.584-27.793,22.725-27.793,36.043,0,9.042,5.727,14.452,14.206,14.947-.32,2.874-1.447,6.1-6.667,8.388-.413.183.127.525.473.525,6.94,0,14.973-3.468,17.213-10.672.84-.3,1.687-.619,2.547-.991,15.333-6.584,27.793-22.725,27.793-36.043S361.229,108.5,345.883,115.088Z" transform="translate(-311.05 -109.278)" fill="#18a34c"/>
            <path id="Path_41074" data-name="Path 41074" d="M325.837,227.3c-.253.119-.14.292.073.411l-6.96-2.973c-.26-.119-.44-.322-.147-.451,3.628-1.5,6.044-4.216,6.473-7.283l.767.337.707.307a17.546,17.546,0,0,0,5.733,1.249C332.171,221.781,331.037,225.011,325.837,227.3Z" transform="translate(-311.238 -162.108)" fill="#0d682f"/>
          </g>
          <path id="Path_41075" data-name="Path 41075" d="M354.823,164.167a2.177,2.177,0,0,1-1.113-2.111,5.1,5.1,0,0,1,1.093-3.017,6.674,6.674,0,0,1,2.8-2.224,3.263,3.263,0,0,1,2.793-.173,2.109,2.109,0,0,1,1.093,2.076,5.261,5.261,0,0,1-1.113,3.072,6.567,6.567,0,0,1-2.773,2.254A3.181,3.181,0,0,1,354.823,164.167Zm-.993-26.932L361.37,134l-1.26,18.886-5.02,2.155Z" transform="translate(-322.924 -120.229)" fill="#fafafa"/>
        </g>
        <path id="Path_41076" data-name="Path 41076" d="M365.34,192.179a51.394,51.394,0,0,0,19.566-19.119A51.427,51.427,0,0,0,365.34,192.179Z" transform="translate(-326.801 -139.938)" opacity="0.2"/>
        <g id="freepik--speech-bubble--inject-13-3" data-name="freepik--speech-bubble--inject-13" transform="translate(36.239 29.558)">
          <g id="freepik--speech-bubble--inject-13-4" data-name="freepik--speech-bubble--inject-13">
            <path id="Path_41077" data-name="Path 41077" d="M416.535,214.361a7.514,7.514,0,0,1-6.28-3.31c8.506-7.773,14.26-18.128,14.26-27.184,0-6.713-3.167-11.43-8.266-13.609l-7.033-3.012c-5.02-2.155-11.913-1.858-19.533,1.407-15.333,6.589-27.792,22.725-27.792,36.048,0,6.7,3.153,11.395,8.24,13.6,1.187.5,5.86,2.507,7.013,3.007,5.026,2.175,11.94,1.888,19.579-1.392a44.811,44.811,0,0,0,5.806-3.022c5.16,3.037,11.453-.272,13.946-1.858C416.808,214.826,416.848,214.361,416.535,214.361Z" transform="translate(-361.89 -165.866)" fill="#e0e0e0"/>
            <path id="Path_41078" data-name="Path 41078" d="M388.16,225.835c-9.293,0-15.06-5.623-15.06-14.67,0-13.2,12.373-29.23,27.573-35.765a30.9,30.9,0,0,1,12.086-2.75c9.286,0,15.059,5.618,15.059,14.67,0,8.655-5.427,18.995-14.16,26.976l-.18.168.133.188a7.918,7.918,0,0,0,6.413,3.468.262.262,0,0,1-.093.109c-1.773,1.13-5.293,3.017-8.94,3.017h0a8.648,8.648,0,0,1-4.46-1.169l-.273-.159-.273.164a44.853,44.853,0,0,1-5.747,2.973A30.824,30.824,0,0,1,388.16,225.835Z" transform="translate(-365.627 -169.289)" fill="#fafafa"/>
            <path id="Path_41079" data-name="Path 41079" d="M412.529,172v.644c9.02,0,14.626,5.5,14.626,14.343,0,8.591-5.387,18.851-14.06,26.778l-.367.332.273.377a8.406,8.406,0,0,0,5.793,3.577,16.717,16.717,0,0,1-8.033,2.556,8.121,8.121,0,0,1-4.193-1.1l-.547-.322-.54.332a44.653,44.653,0,0,1-5.686,2.973,30.372,30.372,0,0,1-11.866,2.705c-9.02,0-14.626-5.5-14.626-14.368,0-13.094,12.273-29.012,27.333-35.488a30.372,30.372,0,0,1,11.866-2.705V172m0,0a31.517,31.517,0,0,0-12.3,2.794c-15.333,6.584-27.793,22.721-27.793,36.043,0,9.488,6.313,14.992,15.493,14.992a31.519,31.519,0,0,0,12.3-2.794,44.819,44.819,0,0,0,5.806-3.022,9.106,9.106,0,0,0,4.726,1.239c3.813,0,7.46-1.982,9.22-3.1.333-.208.373-.674.06-.674h-.067a7.522,7.522,0,0,1-6.213-3.31c8.506-7.773,14.26-18.128,14.26-27.184C427.995,177.5,421.682,172,412.5,172Z" transform="translate(-365.397 -168.961)" fill="#ffc759"/>
          </g>
          <path id="Path_41080" data-name="Path 41080" d="M407.11,212.979a34.941,34.941,0,0,1,2.78-4.2,29.588,29.588,0,0,0,1.96-2.869,4.278,4.278,0,0,0,.633-2.135,1.683,1.683,0,0,0-1.2-1.838,4.912,4.912,0,0,0-3.18.5,11.247,11.247,0,0,0-3.38,2.229,13.414,13.414,0,0,0-2.493,3.26l-4.9-.748a21.1,21.1,0,0,1,4.6-5.945,24.21,24.21,0,0,1,6.867-4.355q4.666-1.982,7.473-1.239t2.813,4.251a8.887,8.887,0,0,1-.547,3.126,12.846,12.846,0,0,1-1.333,2.68c-.527.8-1.213,1.759-2.047,2.869a29.835,29.835,0,0,0-2.187,3.166,4.893,4.893,0,0,0-.667,2.477l-6.113,2.626A8.046,8.046,0,0,1,407.11,212.979Zm-.667,12.747a2.18,2.18,0,0,1-1.113-2.116,5.1,5.1,0,0,1,1.093-3.017,6.7,6.7,0,0,1,2.793-2.224,3.237,3.237,0,0,1,2.8-.173,2.111,2.111,0,0,1,1.093,2.081A5.257,5.257,0,0,1,412,223.343a6.544,6.544,0,0,1-2.78,2.254,3.1,3.1,0,0,1-2.74.129Z" transform="translate(-373.704 -180.783)" fill="#0d682f"/>
        </g>
      </g>
    </g>
    <g id="freepik--Letters--inject-13" transform="translate(54.935 25.018)">
      <g id="freepik--speech-bubble--inject-13-5" data-name="freepik--speech-bubble--inject-13">
        <g id="freepik--speech-bubble--inject-13-6" data-name="freepik--speech-bubble--inject-13">
          <path id="Path_41081" data-name="Path 41081" d="M185.446,185.3,154.78,198.5l12.18,15.388a2.43,2.43,0,0,0,1.167.991c1.453.609,10.06,4.315,10.533,4.518a3.7,3.7,0,0,0,2.454.132,2.479,2.479,0,0,0,1.659-1.35L196,189.848Z" transform="translate(-101.348 -105.891)" fill="#ffc759"/>
          <path id="Path_41082" data-name="Path 41082" d="M185.446,185.3,154.78,198.5l12.18,15.388a2.43,2.43,0,0,0,1.167.991c1.453.609,10.06,4.315,10.533,4.518a3.7,3.7,0,0,0,2.454.132,2.479,2.479,0,0,0,1.659-1.35L196,189.848Z" transform="translate(-101.348 -105.891)" opacity="0.2"/>
          <path id="Path_41083" data-name="Path 41083" d="M170.61,207.638l12.18,15.388a3.025,3.025,0,0,0,2.751,1.237,2.766,2.766,0,0,0,2.509-1.495l13.226-28.329Z" transform="translate(-106.625 -110.503)" fill="#ffc759"/>
          <path id="Path_41084" data-name="Path 41084" d="M192.94,25.5,77.3,75.112A4.321,4.321,0,0,0,74.63,78.53v59.645a4.276,4.276,0,0,0,2.667,3.4l9.513,3.963a7.793,7.793,0,0,0,5.333,0L207.793,95.9a4.335,4.335,0,0,0,2.667-3.418V32.837a4.281,4.281,0,0,0-2.667-3.4l-9.506-3.963A7.81,7.81,0,0,0,192.94,25.5Z" transform="translate(-74.63 -25.018)" fill="#ffc759"/>
          <path id="Path_41085" data-name="Path 41085" d="M210.833,32.493c-.213-.991-1.3-1.348-2.627-.783L92.57,81.333A4.759,4.759,0,0,0,90.7,82.819L75.89,76.552a4.888,4.888,0,0,1,1.827-1.4l115.65-49.627a7.821,7.821,0,0,1,5.333,0l9.506,3.963a4.49,4.49,0,0,1,2.627,3.007Z" transform="translate(-75.05 -25.036)" fill="#fff" opacity="0.3"/>
          <path id="Path_41086" data-name="Path 41086" d="M96.92,151.387V91.737a4.313,4.313,0,0,1,2.667-3.414l115.637-49.6c1.46-.629,2.667-.119,2.667,1.139V99.49a4.335,4.335,0,0,1-2.667,3.418L99.573,152.526C98.107,153.17,96.92,152.645,96.92,151.387Z" transform="translate(-82.06 -31.798)" fill="#ffc759"/>
          <path id="Path_41087" data-name="Path 41087" d="M92.146,197.984a7.987,7.987,0,0,1-5.333,0l-9.506-3.964a4.266,4.266,0,0,1-2.667-3.389v-59.65A3.407,3.407,0,0,1,75.487,129l14.793,6.257a3.219,3.219,0,0,0-.787,1.937v59.645C89.493,197.994,90.586,198.658,92.146,197.984Z" transform="translate(-74.633 -77.484)" opacity="0.2"/>
        </g>
        <g id="freepik--FAQ--inject-13" transform="translate(23.573 24.836)">
          <path id="Path_41088" data-name="Path 41088" d="M133.726,149.773l-1.153-.5a3.813,3.813,0,0,0-2.9,0l-7.046,3.022v-7.154l13.046-5.593a2.983,2.983,0,0,0,2-2.611v-4.013a2.984,2.984,0,0,0-2-2.611h0a5.29,5.29,0,0,0-4.06,0l-18.093,7.763c-2.18.934-3.522,2.663-3.52,4.533v37.252a2.982,2.982,0,0,0,2,2.616h0a5.308,5.308,0,0,0,4.06,0l4.513-1.932a2.982,2.982,0,0,0,2-2.616V163.318l11.106-4.766a2.141,2.141,0,0,0,1.447-1.868v-5.034A2.1,2.1,0,0,0,133.726,149.773Z" transform="translate(-109.993 -102.78)" fill="#e0e0e0"/>
          <path id="Path_41089" data-name="Path 41089" d="M116.47,192.711l-.387.168a5.308,5.308,0,0,1-4.058,0,3,3,0,0,1-2.035-2.609V153.017a4.209,4.209,0,0,1,.847-2.477l4.06,1.739a4.174,4.174,0,0,0-.847,2.477v36.9a1.2,1.2,0,0,0,.806,1.039A2.124,2.124,0,0,0,116.47,192.711Z" transform="translate(-109.99 -113.188)" opacity="0.1"/>
          <path id="Path_41090" data-name="Path 41090" d="M124.67,147.251v10.642l11.086-4.751a1.27,1.27,0,0,1,.98,0,.716.716,0,0,1,.487.632v5.043a2.131,2.131,0,0,1-1.44,1.858l-11.113,4.766v14.61a2.971,2.971,0,0,1-2,2.606l-4.107,1.764a2.114,2.114,0,0,1-1.624,0,1.193,1.193,0,0,1-.809-1.046v-36.92c0-1.869,1.341-3.6,3.519-4.533l17.92-7.689a1.914,1.914,0,0,1,1.468,0,1.08,1.08,0,0,1,.732.946v3.879a2.965,2.965,0,0,1-2,2.6Z" transform="translate(-112.037 -104.886)" fill="#fafafa"/>
          <path id="Path_41091" data-name="Path 41091" d="M173.4,112.636a4.216,4.216,0,0,0-2.821-2.3,6.293,6.293,0,0,0-4.179.221l-4.487,1.927a3.843,3.843,0,0,0-2.287,2.324l-13.38,45.273a1.73,1.73,0,0,0,1.193,1.982l1.227.525a3.263,3.263,0,0,0,2.5,0l5.406-2.319a4.334,4.334,0,0,0,1.773-1.412,5.883,5.883,0,0,0,.993-1.883l2.173-8.254,10.933-4.692,1.133,3.354a2.023,2.023,0,0,0,1.033,1.07c.453.2,3.607,1.541,4.06,1.744a2.276,2.276,0,0,0,1.793-.178l6.6-2.834Zm-8.886,24.687,2.34-8.952.14-.5,2.48,7.318Z" transform="translate(-122.059 -92.773)" fill="#e0e0e0"/>
          <path id="Path_41092" data-name="Path 41092" d="M191.747,183.421c-.593-.263-3.567-1.526-4-1.719a2.023,2.023,0,0,1-1.033-1.07l-1.133-3.354,3.027-1.3,2.167,6.391A2.088,2.088,0,0,0,191.747,183.421Z" transform="translate(-135.188 -126.024)" opacity="0.1"/>
          <path id="Path_41093" data-name="Path 41093" d="M183.93,148.881l-4.06-1.744-2.48-7.313h0v-.03c.213-.713.427-1.526.667-2.428.287-1.125.553-2.324.807-3.607q.433,1.546.86,2.849c.287.867.553,1.61.807,2.234Z" transform="translate(-132.458 -104.722)" opacity="0.1"/>
          <path id="Path_41094" data-name="Path 41094" d="M150.378,165.2a.6.6,0,0,0,.272.665,1.19,1.19,0,0,0,.908.167v.04l-.38.159a3.263,3.263,0,0,1-2.5,0l-1.24-.535a1.73,1.73,0,0,1-1.193-1.982l13.373-45.253a3.075,3.075,0,0,1,.667-1.174l4.06,1.744a2.938,2.938,0,0,0-.667,1.169Z" transform="translate(-122.059 -96.411)" opacity="0.1"/>
          <path id="Path_41095" data-name="Path 41095" d="M189.135,149.3l-6.606,2.834a2.27,2.27,0,0,1-1.787.178,2.033,2.033,0,0,1-1.033-1.07l-2.167-6.4-14,5.99-2.167,8.254a6.122,6.122,0,0,1-1,1.888,4.276,4.276,0,0,1-1.773,1.407l-4.78,2.056a1.243,1.243,0,0,1-1.041-.044.636.636,0,0,1-.373-.723l13.3-45.015A3.846,3.846,0,0,1,168,116.336l4.313-1.853a3.068,3.068,0,0,1,2.038-.108,2.054,2.054,0,0,1,1.375,1.123ZM175.6,139.047l-3.4-10.057c-.253-.619-.52-1.367-.807-2.234s-.573-1.818-.86-2.849c-.247,1.283-.52,2.477-.8,3.607s-.56,2.1-.813,2.943l-3.373,12.881Z" transform="translate(-124.124 -94.878)" fill="#fafafa"/>
          <path id="Path_41096" data-name="Path 41096" d="M237.412,112.232a34.249,34.249,0,0,0,5.327-9.671,33.653,33.653,0,0,0,1.4-5.271,30.317,30.317,0,0,0,.493-5.415,20.593,20.593,0,0,0-1.36-7.882,11.652,11.652,0,0,0-3.867-5.143,9.764,9.764,0,0,0-1.933-1.06l-4-1.724a11.553,11.553,0,0,0-4.153-.907,18.013,18.013,0,0,0-7.8,1.689,28.264,28.264,0,0,0-7.813,4.994,33.743,33.743,0,0,0-6.026,7.1,33.212,33.212,0,0,0-5.253,17.538,20.56,20.56,0,0,0,1.373,7.892,11.587,11.587,0,0,0,3.88,5.152,9.388,9.388,0,0,0,1.94,1.09c.667.277,3.3,1.417,3.953,1.7a11.574,11.574,0,0,0,4.207.907,18.336,18.336,0,0,0,7.813-1.709,27.027,27.027,0,0,0,3.46-1.784l1.653,1.412a3.634,3.634,0,0,0,.76.441c.467.2,3.787,1.62,4.04,1.734a3.18,3.18,0,0,0,1.487.268,8.052,8.052,0,0,0,2.713-.718l7.007-3ZM231.159,99.8a19.842,19.842,0,0,1-2.033,5.093,16.288,16.288,0,0,1-3.233,4.028,15.71,15.71,0,0,1-4.36,2.779,10.48,10.48,0,0,1-4.08.991,7.86,7.86,0,0,1-1.54-2.859,17.428,17.428,0,0,1-.707-5.331,23.966,23.966,0,0,1,.707-5.915,19.793,19.793,0,0,1,2-5.093,16.529,16.529,0,0,1,3.253-4.048,15.716,15.716,0,0,1,4.4-2.814,10.272,10.272,0,0,1,4-.951,7.963,7.963,0,0,1,1.56,2.883,17.571,17.571,0,0,1,.74,5.341,24.4,24.4,0,0,1-.707,5.915Z" transform="translate(-140.802 -75.148)" fill="#e0e0e0"/>
          <path id="Path_41097" data-name="Path 41097" d="M213.406,136.938c-.847-.362-3.173-1.367-3.787-1.625a9.392,9.392,0,0,1-1.94-1.09,11.587,11.587,0,0,1-3.88-5.152,20.561,20.561,0,0,1-1.373-7.892,30.838,30.838,0,0,1,1.374-9.068,34.447,34.447,0,0,1,3.519-7.881l4.06,1.744a33.054,33.054,0,0,0-4.893,16.969,20.516,20.516,0,0,0,1.373,7.887,11.579,11.579,0,0,0,3.88,5.157A9.807,9.807,0,0,0,213.406,136.938Z" transform="translate(-140.802 -89.822)" opacity="0.1"/>
          <path id="Path_41098" data-name="Path 41098" d="M240.7,97.713a5.17,5.17,0,0,0-3.233-1.263h-.347a7.97,7.97,0,0,1,1.553,2.878,17.552,17.552,0,0,1,.707,5.321,24.406,24.406,0,0,1-.707,5.945,19.842,19.842,0,0,1-2.033,5.093,16.288,16.288,0,0,1-3.233,4.028,15.71,15.71,0,0,1-4.36,2.779,10.48,10.48,0,0,1-4.08.991,4.429,4.429,0,0,0,.487.5,5.04,5.04,0,0,0,3.253,1.244,10.149,10.149,0,0,0,4.4-.991,15.711,15.711,0,0,0,4.36-2.779,16.476,16.476,0,0,0,3.233-4.028,19.808,19.808,0,0,0,2.033-5.1,24.376,24.376,0,0,0,.707-5.945,17.555,17.555,0,0,0-.707-5.306A7.264,7.264,0,0,0,240.7,97.713Z" transform="translate(-148.319 -85.896)" opacity="0.1"/>
          <path id="Path_41099" data-name="Path 41099" d="M243.523,163.68c-.38.258-.76.5-1.153.743l1.653,1.412a3.632,3.632,0,0,0,.76.441c.453.2,3.58,1.531,4,1.719a3.638,3.638,0,0,1-.707-.421Z" transform="translate(-154.119 -119.818)" opacity="0.1"/>
          <path id="Path_41100" data-name="Path 41100" d="M248.743,121.687l-7.006,3.007a8.157,8.157,0,0,1-2.707.713,3.307,3.307,0,0,1-2.233-.7l-4.56-3.894a27.413,27.413,0,0,1-4.613,2.527,18.335,18.335,0,0,1-7.813,1.709,10.726,10.726,0,0,1-6.04-1.952,11.626,11.626,0,0,1-3.88-5.157,20.644,20.644,0,0,1-1.373-7.867,33.212,33.212,0,0,1,5.253-17.538,33.745,33.745,0,0,1,6.04-7.119,28.362,28.362,0,0,1,7.813-4.994,17.917,17.917,0,0,1,7.8-1.689,10.731,10.731,0,0,1,6,1.982,11.591,11.591,0,0,1,3.867,5.148,20.428,20.428,0,0,1,1.373,7.858,30.3,30.3,0,0,1-.487,5.415,33.794,33.794,0,0,1-3.687,10.335,33.489,33.489,0,0,1-3.06,4.627Zm-31.506-15.358a17.462,17.462,0,0,0,.707,5.336,7.319,7.319,0,0,0,2,3.354,5.111,5.111,0,0,0,3.253,1.244,10.167,10.167,0,0,0,4.4-.991,15.71,15.71,0,0,0,4.36-2.779,16.5,16.5,0,0,0,3.24-4.028,19.757,19.757,0,0,0,2-5.1,24.023,24.023,0,0,0,.707-5.945,17.345,17.345,0,0,0-.707-5.306,7.288,7.288,0,0,0-2-3.354,5.188,5.188,0,0,0-3.24-1.263,9.91,9.91,0,0,0-4.36.951,15.588,15.588,0,0,0-4.4,2.809,16.685,16.685,0,0,0-3.253,4.048,20.033,20.033,0,0,0-2,5.093,24,24,0,0,0-.707,5.911Z" transform="translate(-142.832 -76.948)" fill="#fafafa"/>
        </g>
      </g>
    </g>
  </g>
</svg>
