<svg xmlns="http://www.w3.org/2000/svg" width="72" height="72" viewBox="0 0 72 72">
  <g id="Group_76914" data-name="Group 76914" transform="translate(0 0.167)">
    <circle id="Ellipse_1527" data-name="Ellipse 1527" cx="36" cy="36" r="36" transform="translate(0 -0.167)" fill="#eefff4"/>
    <g id="bid" transform="translate(1.796 7.221)">
      <g id="Group_45952" data-name="Group 45952">
        <g id="Group_45934" data-name="Group 45934" transform="translate(29.36 50.884)">
          <g id="Group_45930" data-name="Group 45930" transform="translate(5.318)">
            <path id="Path_40861" data-name="Path 40861" d="M265,433.659A2.659,2.659,0,0,1,267.659,431h22.2a2.659,2.659,0,1,1,0,5.318h-22.2A2.659,2.659,0,0,1,265,433.659Z" transform="translate(-265 -431)" fill="#18a34c"/>
          </g>
          <g id="Group_45931" data-name="Group 45931" transform="translate(5.318)">
            <path id="Path_40862" data-name="Path 40862" d="M272.977,433.659A2.659,2.659,0,0,1,275.636,431h-7.977a2.659,2.659,0,1,0,0,5.318h7.977A2.659,2.659,0,0,1,272.977,433.659Z" transform="translate(-265 -431)" fill="#0d682f"/>
          </g>
          <g id="Group_45932" data-name="Group 45932" transform="translate(0 3.988)">
            <path id="Path_40863" data-name="Path 40863" d="M225,463.659A2.659,2.659,0,0,1,227.659,461H260.5a2.659,2.659,0,0,1,0,5.318H227.659A2.659,2.659,0,0,1,225,463.659Z" transform="translate(-225 -461)" fill="#18a34c"/>
          </g>
          <g id="Group_45933" data-name="Group 45933" transform="translate(0 3.988)">
            <path id="Path_40864" data-name="Path 40864" d="M232.977,463.659A2.659,2.659,0,0,1,235.636,461h-7.977a2.659,2.659,0,0,0,0,5.318h7.977A2.659,2.659,0,0,1,232.977,463.659Z" transform="translate(-225 -461)" fill="#0d682f"/>
          </g>
        </g>
        <g id="Group_45951" data-name="Group 45951">
          <g id="Group_45935" data-name="Group 45935" transform="translate(22.389 4.362)">
            <path id="Path_40865" data-name="Path 40865" d="M0,0H30.577V23.93H0Z" transform="translate(11.711 37.418) rotate(-112.514)" fill="#ffc759"/>
          </g>
          <g id="Group_45936" data-name="Group 45936" transform="translate(22.393 10.47)">
            <path id="Path_40866" data-name="Path 40866" d="M0,0H30.577V7.977H0Z" transform="translate(11.711 31.308) rotate(-112.514)" fill="#d9924a"/>
          </g>
          <g id="Group_45937" data-name="Group 45937" transform="translate(22.535 13.188)">
            <path id="Path_40867" data-name="Path 40867" d="M173.665,158.539l4.07,9.826,25.793-10.684a5.318,5.318,0,1,0-4.07-9.826Z" transform="translate(-173.665 -147.449)" fill="#fff"/>
          </g>
          <g id="Group_45938" data-name="Group 45938" transform="translate(0 24.278)">
            <path id="Path_40868" data-name="Path 40868" d="M7.8,250.206l22.963-9.512-4.07-9.826L4.155,240.2A32.346,32.346,0,0,0,7.8,250.206Z" transform="translate(-4.155 -230.868)" fill="#18a34c"/>
          </g>
          <g id="Group_45939" data-name="Group 45939" transform="translate(1.412 29.191)">
            <path id="Path_40869" data-name="Path 40869" d="M17.005,282.248l22.963-9.512-2.035-4.913-8.259,3.421-14.9,6.172a32.4,32.4,0,0,0,2.23,4.832Z" transform="translate(-14.775 -267.823)" fill="#0d682f"/>
          </g>
          <g id="Group_45940" data-name="Group 45940" transform="translate(22.535 19.699)">
            <path id="Path_40870" data-name="Path 40870" d="M181.842,203.375a5.318,5.318,0,0,0,6.948,2.878l-11.054,4.579-4.07-9.826,11.054-4.579A5.318,5.318,0,0,0,181.842,203.375Z" transform="translate(-173.666 -196.427)" fill="#ffc759"/>
          </g>
          <g id="Group_45941" data-name="Group 45941" transform="translate(20.541 22.283)">
            <path id="Path_40871" data-name="Path 40871" d="M165.489,229.528a1.994,1.994,0,0,0,1.079-2.605L162.5,217.1a1.994,1.994,0,0,0-3.685,1.526l4.07,9.826A1.994,1.994,0,0,0,165.489,229.528Z" transform="translate(-158.661 -215.865)" fill="#e9efff"/>
          </g>
          <g id="Group_45942" data-name="Group 45942" transform="translate(22.728 28.428)">
            <path id="Path_40872" data-name="Path 40872" d="M177.72,264.689a1.994,1.994,0,0,0,1.079-2.605L180.835,267a1.994,1.994,0,1,1-3.685,1.526l-2.035-4.913A1.994,1.994,0,0,0,177.72,264.689Z" transform="translate(-175.115 -262.083)" fill="#d3dcfb"/>
          </g>
          <g id="Group_45943" data-name="Group 45943" transform="translate(21.728)">
            <path id="Path_40873" data-name="Path 40873" d="M188.306,49.894a2.659,2.659,0,0,0-3.474-1.439l-15.6,6.461a2.659,2.659,0,1,0,2.035,4.913l15.6-6.461A2.659,2.659,0,0,0,188.306,49.894Z" transform="translate(-167.591 -48.252)" fill="#ffc759"/>
          </g>
          <g id="Group_45944" data-name="Group 45944" transform="translate(21.728 3.612)">
            <path id="Path_40874" data-name="Path 40874" d="M175.163,78.894a2.659,2.659,0,0,0,3.474,1.439l-7.369,3.053a2.659,2.659,0,1,1-2.035-4.913L176.6,75.42A2.659,2.659,0,0,0,175.163,78.894Z" transform="translate(-167.59 -75.42)" fill="#d9924a"/>
          </g>
          <g id="Group_45945" data-name="Group 45945" transform="translate(35.973 34.391)">
            <path id="Path_40875" data-name="Path 40875" d="M295.457,308.58a2.659,2.659,0,0,0-3.474-1.439l-15.6,6.461a2.659,2.659,0,1,0,2.035,4.913l15.6-6.461A2.659,2.659,0,0,0,295.457,308.58Z" transform="translate(-274.742 -306.938)" fill="#ffc759"/>
          </g>
          <g id="Group_45946" data-name="Group 45946" transform="translate(35.973 38.003)">
            <path id="Path_40876" data-name="Path 40876" d="M282.315,337.58a2.659,2.659,0,0,0,3.474,1.439l-7.369,3.052a2.659,2.659,0,1,1-2.035-4.913l7.369-3.052A2.659,2.659,0,0,0,282.315,337.58Z" transform="translate(-274.742 -334.106)" fill="#d9924a"/>
          </g>
          <g id="Group_45947" data-name="Group 45947" transform="translate(20.41 2.387)">
            <path id="Path_40877" data-name="Path 40877" d="M157.829,78.126a1.994,1.994,0,0,0,2.605,1.079l22.108-9.158a1.994,1.994,0,0,0-1.526-3.685L158.908,75.52A1.994,1.994,0,0,0,157.829,78.126Z" transform="translate(-157.677 -66.21)" fill="#fff"/>
          </g>
          <g id="Group_45948" data-name="Group 45948" transform="translate(20.41 8.645)">
            <path id="Path_40878" data-name="Path 40878" d="M165.2,115.883a1.994,1.994,0,0,0,2.605,1.079l-7.369,3.053a1.994,1.994,0,0,1-1.526-3.685l7.369-3.053A1.994,1.994,0,0,0,165.2,115.883Z" transform="translate(-157.676 -113.278)" fill="#ffc759"/>
          </g>
          <g id="Group_45949" data-name="Group 45949" transform="translate(32.111 30.637)">
            <path id="Path_40879" data-name="Path 40879" d="M245.846,290.618a1.994,1.994,0,0,0,2.605,1.079l22.108-9.158a1.994,1.994,0,0,0-1.526-3.685l-22.108,9.158A1.994,1.994,0,0,0,245.846,290.618Z" transform="translate(-245.694 -278.702)" fill="#fff"/>
          </g>
          <g id="Group_45950" data-name="Group 45950" transform="translate(32.111 36.894)">
            <path id="Path_40880" data-name="Path 40880" d="M253.215,328.376a1.994,1.994,0,0,0,2.605,1.079l-7.369,3.053a1.994,1.994,0,0,1-1.526-3.685l7.369-3.052A1.994,1.994,0,0,0,253.215,328.376Z" transform="translate(-245.693 -325.77)" fill="#ffc759"/>
          </g>
        </g>
      </g>
    </g>
  </g>
</svg>
