<svg xmlns="http://www.w3.org/2000/svg" width="359.337" height="379.737" viewBox="0 0 359.337 379.737">
  <g id="_404" data-name="404" transform="translate(-422.863 -486.2)">
    <g id="Group_46057" data-name="Group 46057" transform="translate(460.966 486.2)">
      <path id="Path_32241" data-name="Path 32241" d="M56.621,45.5a4.691,4.691,0,1,1-4.691,4.691A4.69,4.69,0,0,1,56.621,45.5Z" transform="translate(1.388 19.544)" fill="#0d682f"/>
      <g id="Group_41394" data-name="Group 41394">
        <path id="Path_32233" data-name="Path 32233" d="M455.362,115.5a3.432,3.432,0,1,1-3.432,3.432A3.433,3.433,0,0,1,455.362,115.5Z" transform="translate(-138.598 -66.73)" fill="#ffc759"/>
        <path id="Path_32234" data-name="Path 32234" d="M455.362,375.5a3.432,3.432,0,1,1-3.432,3.432A3.433,3.433,0,0,1,455.362,375.5Z" transform="translate(-173.966 -240.935)" fill="#ffc759"/>
        <path id="Path_32236" data-name="Path 32236" d="M385.362,25.5a3.432,3.432,0,1,1-3.432,3.432A3.433,3.433,0,0,1,385.362,25.5Z" transform="translate(-145.413 3.435)" fill="#ffc759"/>
        <path id="Path_32240" data-name="Path 32240" d="M95.362,455.5a3.432,3.432,0,1,1-3.432,3.432A3.433,3.433,0,0,1,95.362,455.5Z" transform="translate(20.538 -455.5)" fill="#ffc759"/>
        <path id="Path_32242" data-name="Path 32242" d="M35.362,125.5a3.432,3.432,0,1,1-3.432,3.432A3.433,3.433,0,0,1,35.362,125.5Z" transform="translate(-31.93 -73.298)" fill="#ffc759"/>
        <path id="Path_32243" data-name="Path 32243" d="M35.362,375.5a3.432,3.432,0,1,1-3.432,3.432A3.433,3.433,0,0,1,35.362,375.5Z" transform="translate(-31.93 -237.503)" fill="#ffc759"/>
      </g>
    </g>
    <g id="Group_45912" data-name="Group 45912" transform="translate(422.863 503.929)">
      <ellipse id="Ellipse_1522" data-name="Ellipse 1522" cx="103.384" cy="179.108" rx="103.384" ry="179.108" transform="translate(0 360.066) rotate(-89.689)" fill="#f9f9f9"/>
      <g id="Group_45790" data-name="Group 45790" transform="translate(61.898 58.328)">
        <path id="Path_40055" data-name="Path 40055" d="M79.954,207.55c-11.612,6.718-30.48,6.677-42.175-.083s-11.736-17.625-.124-24.343,30.48-6.677,42.175.083S91.566,200.873,79.954,207.55Z" transform="translate(-13.437 13.936)" fill="#e0974d"/>
        <g id="XMLID_9560_">
          <path id="XMLID_9606_" d="M112.4,133.745l-2.281-1.161a6.241,6.241,0,0,0-.912-.456h-.041a4.84,4.84,0,0,0-4.188.332L32.819,174.1a15.17,15.17,0,0,0-7.589,13.146v56.15a4.877,4.877,0,0,0,2.613,4.354h0l2.571,1.327.581-.829a5.078,5.078,0,0,0,1.617-.581l72.158-41.677a15.17,15.17,0,0,0,7.589-13.146v-56.15a4.958,4.958,0,0,0-.539-2.239Z" transform="translate(-25.23 -131.801)" fill="#212121"/>
          <g id="XMLID_9582_" transform="translate(20.403 75.594)">
            <path id="XMLID_9605_" d="M74.739,263.659s-.166.373-.5,1a21.157,21.157,0,0,1-3.442,4.52,18.053,18.053,0,0,1-3.152,2.571,16.838,16.838,0,0,1-6.345,2.53,25.952,25.952,0,0,1-3.94.415,37.112,37.112,0,0,1-6.594-.332,40.167,40.167,0,0,1-8.17-1.908s-1.037-12.856-.788-22.477,1.41-25.006.871-32.263c-.539-7.216-.871-7.879-1.161-7.962a15.868,15.868,0,0,1-4.893-3.608c-1.825-1.908-2.156-3.193-3.442-4.935a14.24,14.24,0,0,0-1.369-1.617,6.626,6.626,0,0,1-.912-1.286c-1.369-2.571-.5-5.764-.166-6.76.415-1.161,1.991-2.239,2.322-4.354.332-2.156-.041-4.064,1.451-5.806S37,180.139,37.541,178.4c.539-1.783.5-3.193,1.783-4.271a23.034,23.034,0,0,1,4.893-2.488s-3.4-5.391-4.106-6.262a9.707,9.707,0,0,1-1.244-1.825,5.189,5.189,0,0,1-.456-3.483c.539-2.737,3.649-3.318,4.313-3.318a12.6,12.6,0,0,1,4.354,1.078c.912.622,7.257,9.455,7.672,10.036v.041s.456-1.327,2.778-1.286a3.04,3.04,0,0,1,2.986,3.193c0,1.078-.041,2.405-.041,2.405s4.023,5.681,5.059,7.3c1.037,1.659,2.82,5.889,2.82,6.842s-.166,4.064,0,5.6.373,4.479-.746,6.718a17.087,17.087,0,0,0-1.493,4.562c-.166.705-.166,11.031-.124,15.427C66.072,223.143,65.865,246.615,74.739,263.659Z" transform="translate(-30.118 -128.882)" fill="#fcd1b3"/>
            <path id="XMLID_9604_" d="M59.286,177.949a13.77,13.77,0,0,1-2.115,2.9c-1.244,1.244-4.23,3.318-4.437,3.649-.166.29.5,2.571-1.327,3.442a8.837,8.837,0,0,1-4.23.664s-.166,1.2-.746,5.018,5.308,14.6,3.566,26.582a88.354,88.354,0,0,0,.207,23.721,40.168,40.168,0,0,1-8.17-1.908S41,229.164,41.247,219.543s1.41-25.006.871-32.264c-.539-7.216-.871-7.879-1.161-7.962a15.869,15.869,0,0,1-4.893-3.608c-1.825-1.908-2.156-3.193-3.442-4.935a14.24,14.24,0,0,0-1.369-1.617,6.624,6.624,0,0,1-.912-1.286c3.152-3.566,6.76.539,10.119,1.742a55.774,55.774,0,0,1,8.543,4.4,18.409,18.409,0,0,1,1.369,2.861c-.083.249-1.244,3.9-.664,4.686a3.187,3.187,0,0,0,3.152,1C53.936,182.22,59.079,178.114,59.286,177.949Z" transform="translate(-29.552 -98.368)" fill="#f6b486"/>
            <path id="XMLID_9603_" d="M55.014,227.111a21.157,21.157,0,0,1-3.442,4.52,18.053,18.053,0,0,1-3.152,2.571c-.954-.083-1.742-.788-2.032-2.613-.788-5.018-6.76-44.165-7.008-49.225-.249-5.1,1.451-9.414,1.949-9.953s-.746-1.493-.746-1.493-4.893,2.364-4.271,1.908a11.47,11.47,0,0,0,1.7-2.364,13.581,13.581,0,0,0,3.691-1.078c1.2-.7,4.645-.7,4.645-.7a149.087,149.087,0,0,0,.7,33.715C49.25,216.744,53.563,224.706,55.014,227.111Z" transform="translate(-10.932 -91.339)" fill="#f6b486"/>
            <path id="XMLID_9602_" d="M39.594,162.171a1.807,1.807,0,0,0,0,1.991,16.61,16.61,0,0,0,2.571,4.188,3.808,3.808,0,0,1,1.41,1.659c.124.5.581,2.281.581,2.281s-9.165-6.386-9.538-10.077C34.2,158.522,39.594,162.171,39.594,162.171Z" transform="translate(-16.163 -116.886)" fill="#f6b486"/>
            <path id="XMLID_9601_" d="M47.315,170.739s-2.281,4.52-3.94,5.557c-1.659,1-5.433.7-6.843.5s6.138-10.533,6.138-10.533,1.949,1.866,1.991,2.571C45.076,172.4,47.315,170.739,47.315,170.739Z" transform="translate(-10.615 -98.954)" fill="#f6b486"/>
            <path id="XMLID_9600_" d="M45.924,186.245s-1.41,3.276-2.364,2.613a12.494,12.494,0,0,1-2.613-3.732c-.373-.746-1.742-1.161-1.742-1.161s1.286-3.11,1.2-4.313c-.083-1.244,1.12-.788,1.12-.788a55.123,55.123,0,0,1-1.286-6.137c-.332-2.447-2.2-3.732-2.7-6.1a21.058,21.058,0,0,1-.249-4.852c.041-1.037.166-1.742.249-1.617a10.884,10.884,0,0,0,1.7,3.483c1.659,2.405,3.732,5.433,3.732,5.433a16.69,16.69,0,0,1,2.53,6.511c.5,3.525.622,4.23.456,5.35C45.759,182.1,46.132,184.172,45.924,186.245Z" transform="translate(-7.772 -118.193)" fill="#ffe3cf"/>
            <path id="XMLID_9599_" d="M39.752,164.591a3.737,3.737,0,0,1-1.825-.581c-1.12-.581-1.41-3.774-1.327-4.354s1.742-.456,2.073,0a4.59,4.59,0,0,1,1.078,2.861C40,164.674,39.752,164.591,39.752,164.591Z" transform="translate(-9.893 -120.965)" fill="#ffe3cf"/>
            <path id="XMLID_9598_" d="M39.6,159.66s.456.7.166,2.861a18.086,18.086,0,0,1-1.451,4.23c-.124.5,1.286,3.069,1.286,3.069a23.733,23.733,0,0,1-3.11-2.9c-.249-.5-1.742-2.032-1.368-2.654C35.457,163.641,39.6,159.66,39.6,159.66Z" transform="translate(-14.681 -119.724)" fill="#fcd1b3"/>
            <path id="XMLID_9597_" d="M34.14,181.214v9.414a3.069,3.069,0,0,0,.871,2.2h0a5.1,5.1,0,0,0,7.506,0h0a3.253,3.253,0,0,0,.871-2.2V167.944L34.14,162.76Z" transform="translate(-17.594 -109.969)" fill="#212121"/>
            <path id="XMLID_9596_" d="M34.14,194.942V151.855l9.206-1.825v53.621Z" transform="translate(-17.594 -150.03)" fill="#212121"/>
            <path id="XMLID_9595_" d="M55.844,226.228a17.2,17.2,0,0,1-9.5,5.1,25.956,25.956,0,0,1-3.94.415c-.207-.746-.415-1.534-.581-2.239-1.991-8.667-1.244-19.615-1.244-19.615a28.688,28.688,0,0,1,0-6.967c.415-4.852-2.571-9.538-4.271-12.731s-1.493-12.773-1.2-13.1,2.82-.871,4.188-1.493,5.018-5.184,5.018-5.184,1.7,11.446,2.613,15.883,5.764,23.845,5.847,24.55C52.816,211.175,54.309,218.681,55.844,226.228Z" transform="translate(-15.162 -85.894)" fill="#ffe3cf"/>
            <path id="XMLID_9594_" d="M48.08,173.316c-1.825,2.82-5.018.29-5.35,0-.373-.29-9-9.7-10.036-9.745a5.189,5.189,0,0,1-.456-3.483c.539-2.737,3.649-3.318,4.313-3.318a12.6,12.6,0,0,1,4.354,1.078c.912.622,7.257,9.455,7.672,10.036v.041A5.484,5.484,0,0,1,48.08,173.316Z" transform="translate(-23.944 -128.819)" fill="#ffe3cf"/>
            <path id="XMLID_9593_" d="M47.37,168.511a25.608,25.608,0,0,0-3.649-5.35c-2.032-2.115-3.981-5.142-5.64-5.64-1.659-.456-2.447-1.12-5.1.415-2.613,1.493,5.847,9.04,5.847,9.04s3.359,4.437,3.442,4.52C42.311,171.538,47.37,168.511,47.37,168.511Z" transform="translate(-22.82 -128.161)" fill="#ffebdd"/>
            <path id="XMLID_9592_" d="M40.142,161s-1.617-1.866-3.359-1.742-2.239,2.488-2.156,3.318,2.2,3.276,2.2,3.276a9.748,9.748,0,0,0,2.364-1.783C40.266,163.028,40.764,162.7,40.142,161Z" transform="translate(-16.09 -121.019)" fill="#fef7f2"/>
            <path id="XMLID_9591_" d="M63.16,189.711a3.534,3.534,0,0,1-3.442,1.742,3.353,3.353,0,0,1,0,2.156c-.415,1.078-1.949,2.032-4.271,1.659-2.364-.373-3.981-1.576-8.875-3.235a34.01,34.01,0,0,0-6.428-1.783,40.876,40.876,0,0,1-6.967-.332,14.242,14.242,0,0,0-1.369-1.617c-2.571-2.7-1.493-6.884-1.078-8.045s1.991-2.239,2.322-4.354c.332-2.156-.041-4.064,1.451-5.806s2.488-1.244,3.027-2.986c.539-1.783.5-3.193,1.783-4.271a23.035,23.035,0,0,1,4.893-2.488s3.566,1.659,4.354,2.53,5.142,5.972,6.843,7.548,4.562,4.188,5.433,5.847a6.949,6.949,0,0,1,.622,5.391,2,2,0,0,1-2.032,1.286c.207.124,3.235,2.073,3.566,2.447A3.408,3.408,0,0,1,63.16,189.711Z" transform="translate(-30.15 -117.553)" fill="#ffe3cf"/>
            <path id="XMLID_9590_" d="M52.117,175.335a47.557,47.557,0,0,1-4.23-2.405c-2.156-1.41-8.045-5.433-9.165-6.1-1.12-.622-6.262-4.064-6.262-4.064s1.742.5,1.991.622c.249.166,2.737,1.244,3.027,1.534C37.81,165.217,51.412,174.838,52.117,175.335Z" transform="translate(-22.88 -109.937)" fill="#f6b486"/>
            <path id="XMLID_9589_" d="M55.419,177.3s-2.944-1.576-4.479-2.322-11.9-6.511-13.644-7.34c-1.742-.871-5.35-2.571-5.723-2.654s1.742-.249,1.991,0,8.543,4.52,8.792,4.769,8.128,4.313,8.709,4.769C51.645,174.932,55.336,176.964,55.419,177.3Z" transform="translate(-25.809 -103.397)" fill="#f6b486"/>
            <path id="XMLID_9588_" d="M35.313,165.88s-2.281.788-2.488,2.322.166,2.944,3.608,4.106a56.319,56.319,0,0,1,7.506,2.944,25.142,25.142,0,0,0,4.4,2.488,2.294,2.294,0,0,0,2.53-1.12c.415-.622-2.364-3.566-2.364-3.566s-4.52-2.986-5.723-3.608C41.617,168.824,35.313,165.88,35.313,165.88Z" transform="translate(-21.877 -100.15)" fill="#ffebdd"/>
            <path id="XMLID_9587_" d="M37.451,163.907a4.042,4.042,0,0,0-3.276.7c-1.286,1.161-1.327,1.949-.664,3.483.622,1.493,4.686,3.94,4.686,3.94s7.879,3.981,8.17,4.271,3.235,2.654,3.815,2.986,1.783.456,2.115,0c.373-.456.954-4.769.954-4.769s-2.654-1.866-4.064-2.778C47.818,170.791,38.156,165.358,37.451,163.907Z" transform="translate(-20.905 -106.637)" fill="#ffebdd"/>
            <path id="XMLID_9586_" d="M45.8,168.1s-6.967-6.967-7.8-7.091a4.707,4.707,0,0,0-4.686,1.576c-1.451,1.991,2.82,5.433,3.027,6.055.207.581,5.308,5.018,5.889,5.723s6.013,4.686,6.013,4.686l3.691-3.069a18.136,18.136,0,0,0-2.281-3.774C48.62,170.879,45.8,168.1,45.8,168.1Z" transform="translate(-21.126 -115.765)" fill="#ffebdd"/>
            <path id="XMLID_9585_" d="M40.945,165.082a1.89,1.89,0,0,0-2.115-.373,3.464,3.464,0,0,0-2.115,2.571,1.237,1.237,0,0,0,.746,1.327s1.617,1.2,1.7,1.2C39.286,169.769,41.236,169.52,40.945,165.082Z" transform="translate(-9.553 -104.371)" fill="#fef7f2"/>
            <path id="XMLID_9584_" d="M41.4,167.2s-1.825-1.493-2.737-.622a4.784,4.784,0,0,0-1.534,3.318c.041,1.2,2.281,2.2,2.281,2.2S42.728,170.143,41.4,167.2Z" transform="translate(-8.184 -98.815)" fill="#fef7f2"/>
            <path id="XMLID_9583_" d="M40.446,168.609a16.721,16.721,0,0,0-2.986-1,2.235,2.235,0,0,0-1.161,2.281,1.962,1.962,0,0,0,1.369,1.866c.373.083,1.369.249,1.369.249S41.068,170.433,40.446,168.609Z" transform="translate(-10.836 -94.709)" fill="#fef7f2"/>
          </g>
          <path id="XMLID_9581_" d="M54.031,175.374l-16.049,9.248a4.176,4.176,0,0,1-6.262-3.608V165.3l27.2-15.717v17.293A9.838,9.838,0,0,1,54.031,175.374Z" transform="translate(-4.806 -75.852)" fill="#5e1b00"/>
          <path id="XMLID_9580_" d="M54.671,175.644l-16.049,9.248a4.176,4.176,0,0,1-6.262-3.608V165.567l27.2-15.717v17.293A9.788,9.788,0,0,1,54.671,175.644Z" transform="translate(-2.792 -75.002)" fill="#212121"/>
          <path id="XMLID_9579_" d="M112.96,137.02v56.15a15.17,15.17,0,0,1-7.589,13.146L37.65,245.422l-4.437,2.571a4.936,4.936,0,0,1-7.423-4.271v-56.15a15.17,15.17,0,0,1,7.589-13.146l72.158-41.636A4.913,4.913,0,0,1,112.96,137.02Z" transform="translate(-23.468 -130.887)" fill="#f9f9f9"/>
          <path id="XMLID_9564_" d="M103.959,133.91v53.538a15.17,15.17,0,0,1-7.589,13.146L28.65,239.7C47.27,177.744,79.492,152.779,103.959,133.91Z" transform="translate(-14.467 -125.165)" fill="#fff"/>
          <g id="Group_46048" data-name="Group 46048" transform="translate(8.862 22.536)">
            <g id="Group_45617" data-name="Group 45617">
              <g id="Group_45615" data-name="Group 45615">
                <path id="Path_39388" data-name="Path 39388" d="M21.234,32.824,4.561,39.933,3.323,32.312,17.054,4.938l8.02-3.26L28.05,22.343l4.059-1.71,1,7.093-4.036,1.721.879,6.1-7.8,3.362Zm-1.07-7.141L18.584,15.14,11.343,29.4Z" transform="translate(0 23.854)" fill="#ffc759"/>
                <path id="Path_39389" data-name="Path 39389" d="M2.4,27.909a43.806,43.806,0,0,1-.4-4.483,29.56,29.56,0,0,1,.11-3.961,19.937,19.937,0,0,1,.629-3.426A14.034,14.034,0,0,1,3.88,13.158a14.969,14.969,0,0,1,1.649-2.452,16.294,16.294,0,0,1,2.15-2.149,19.409,19.409,0,0,1,2.643-1.84A24.567,24.567,0,0,1,13.451,5.19Q14.26,4.862,15,4.617t1.417-.407A12.569,12.569,0,0,1,17.7,3.966a8.765,8.765,0,0,1,1.149-.081,10.161,10.161,0,0,1,1.038.051,8.139,8.139,0,0,1,.95.152,6.733,6.733,0,0,1,.863.253,5.848,5.848,0,0,1,.779.353q.362.2.693.43T23.8,5.6a7.5,7.5,0,0,1,.559.517,6.954,6.954,0,0,1,.491.559q.228.29.442.62t.414.7q.2.369.385.776t.356.849q.33.842.609,1.723t.5,1.8q.226.919.4,1.877t.292,1.955q.268,2.233.321,4.236a32.461,32.461,0,0,1-.107,3.774,23.063,23.063,0,0,1-.533,3.321,16.915,16.915,0,0,1-.958,2.874,12.993,12.993,0,0,1-1.46,2.505A14.609,14.609,0,0,1,23.473,35.9a18.536,18.536,0,0,1-2.626,1.932,25.308,25.308,0,0,1-3.217,1.653q-.988.426-1.891.729a16.934,16.934,0,0,1-1.725.485,11.611,11.611,0,0,1-1.558.242,8.041,8.041,0,0,1-1.392,0,7.706,7.706,0,0,1-1.268-.223,7.226,7.226,0,0,1-1.184-.426,7.35,7.35,0,0,1-1.1-.628,8.082,8.082,0,0,1-1.009-.828,6.252,6.252,0,0,1-.677-.752,9.192,9.192,0,0,1-.638-.95q-.309-.524-.6-1.146T4.03,34.649q-.279-.727-.519-1.51t-.443-1.624q-.2-.842-.37-1.742T2.4,27.909Zm8.828-3.68q.209,1.582.451,2.88t.516,2.313a14.115,14.115,0,0,0,.582,1.751,5.653,5.653,0,0,0,.651,1.194,3.7,3.7,0,0,0,.725.747,2.434,2.434,0,0,0,.8.408,2.332,2.332,0,0,0,.884.072,3.34,3.34,0,0,0,.964-.262A4.316,4.316,0,0,0,17.433,33a4.466,4.466,0,0,0,.574-.437,4.928,4.928,0,0,0,.514-.537,5.722,5.722,0,0,0,.453-.636,5.61,5.61,0,0,0,.383-.744,7.258,7.258,0,0,0,.3-.863,9.415,9.415,0,0,0,.22-.977q.089-.516.135-1.087t.046-1.278q0-.708-.045-1.552t-.139-1.825q-.093-.981-.234-2.1-.208-1.647-.447-3t-.512-2.408a14.746,14.746,0,0,0-.579-1.815,5.586,5.586,0,0,0-.648-1.221,3.639,3.639,0,0,0-.732-.755,2.431,2.431,0,0,0-1.76-.49,3.685,3.685,0,0,0-1.031.271,4.6,4.6,0,0,0-1.009.568,4.359,4.359,0,0,0-.816.8,5.048,5.048,0,0,0-.621,1.026,6.8,6.8,0,0,0-.426,1.257,10.176,10.176,0,0,0-.244,1.6q-.074.91-.053,2.041t.136,2.479Q11.016,22.663,11.223,24.228Z" transform="translate(32.044 12.057)" fill="#ffc759"/>
                <path id="Path_39390" data-name="Path 39390" d="M18.62,31.8,3.232,38.361,2.354,30.91,15.715,4.553l7.395-3.006,2.046,20.188L28.9,20.156l.684,6.934-3.728,1.59.6,5.968-7.21,3.105Zm-.744-6.981-1.1-10.3L9.736,28.248Z" transform="translate(60.959 0)" fill="#ffc759"/>
              </g>
            </g>
          </g>
        </g>
      </g>
      <g id="Group_45794" data-name="Group 45794" transform="translate(136.722 0)">
        <path id="Path_40063" data-name="Path 40063" d="M113.825,219.617c-15.717,9.082-41.263,9.04-57.063-.083s-15.883-23.887-.166-32.927,41.263-9.04,57.063.083S129.542,210.536,113.825,219.617Z" transform="translate(-23.752 80.192)" fill="#e0974d"/>
        <g id="XMLID_6697_">
          <path id="XMLID_9492_" d="M157.752,119.812l-3.11-1.576a6.61,6.61,0,0,0-1.2-.622l-.041-.041h0a6.581,6.581,0,0,0-5.681.456L50.055,174.386A20.553,20.553,0,0,0,39.77,192.177V268.15a6.581,6.581,0,0,0,3.566,5.889h0l3.483,1.783.788-1.12a6.377,6.377,0,0,0,2.2-.788l97.662-56.358a20.553,20.553,0,0,0,10.285-17.791V123.793a6.669,6.669,0,0,0-.746-3.027Z" transform="translate(-39.77 -117.134)" fill="#212121"/>
          <g id="XMLID_6712_" transform="translate(27.624 102.372)">
            <path id="XMLID_9491_" d="M106.745,295.535a13.836,13.836,0,0,1-.7,1.368,29.781,29.781,0,0,1-4.645,6.138,27.867,27.867,0,0,1-4.23,3.483,22.894,22.894,0,0,1-8.584,3.442,39.785,39.785,0,0,1-5.35.581,50.882,50.882,0,0,1-8.916-.456,55.386,55.386,0,0,1-11.072-2.613s-1.41-17.417-1.078-30.439,1.949-33.881,1.2-43.626c-.746-9.787-1.2-10.658-1.576-10.741a21.442,21.442,0,0,1-6.594-4.893c-2.488-2.613-2.9-4.313-4.645-6.677a19.607,19.607,0,0,0-1.866-2.2,8.37,8.37,0,0,1-1.244-1.742c-1.825-3.483-.664-7.8-.207-9.123.539-1.534,2.7-2.986,3.11-5.889s-.041-5.515,1.949-7.838c2.032-2.322,3.359-1.659,4.106-4.064s.664-4.313,2.405-5.806,6.635-3.359,6.635-3.359-4.645-7.3-5.557-8.46a12.305,12.305,0,0,1-1.659-2.447,7.4,7.4,0,0,1-.622-4.728c.746-3.691,4.976-4.52,5.847-4.52s4.6.622,5.889,1.451c1.244.829,9.828,12.814,10.367,13.6a.041.041,0,0,0,.041.041s.581-1.783,3.774-1.742a4.09,4.09,0,0,1,4.023,4.313c0,1.493-.041,3.235-.041,3.235s5.433,7.672,6.843,9.911c1.41,2.2,3.815,8,3.815,9.289s-.249,5.474,0,7.589.539,6.055-1,9.123a21.805,21.805,0,0,0-2.032,6.179c-.207.954-.207,14.929-.166,20.859C95.051,240.712,94.761,272.478,106.745,295.535Z" transform="translate(-46.37 -113.151)" fill="#fcd1b3"/>
            <path id="XMLID_9490_" d="M85.838,179.626a19.5,19.5,0,0,1-2.861,3.94c-1.659,1.7-5.764,4.52-5.972,4.935-.249.415.664,3.483-1.783,4.686a12.214,12.214,0,0,1-5.723.871s-.249,1.617-1.037,6.76,7.174,19.74,4.81,35.954c-1.908,12.98-.581,26.085.29,32.1a55.385,55.385,0,0,1-11.072-2.613s-1.41-17.417-1.078-30.439,1.949-33.881,1.2-43.626c-.746-9.787-1.2-10.658-1.576-10.741a21.44,21.44,0,0,1-6.594-4.893c-2.488-2.613-2.9-4.313-4.645-6.677a19.606,19.606,0,0,0-1.866-2.2,8.369,8.369,0,0,1-1.244-1.742c4.23-4.81,9.123.7,13.727,2.364a76.784,76.784,0,0,1,11.529,5.93s1.949,3.566,1.825,3.857c-.124.332-1.7,5.267-.871,6.3a4.492,4.492,0,0,0,4.271,1.368C78.622,185.432,85.547,179.834,85.838,179.626Z" transform="translate(-45.617 -71.971)" fill="#f6b486"/>
            <path id="XMLID_9489_" d="M80.008,246.206a29.782,29.782,0,0,1-4.645,6.138,27.866,27.866,0,0,1-4.23,3.483c-1.244-.083-2.364-1.078-2.737-3.566-1.037-6.76-9.165-59.758-9.5-66.642s1.991-12.773,2.654-13.478c.664-.746-1-2.032-1-2.032s-6.594,3.193-5.764,2.571a14.845,14.845,0,0,0,2.322-3.235,18.649,18.649,0,0,0,5.018-1.451c1.659-.954,6.262-.954,6.262-.954a199.393,199.393,0,0,0,1,45.658C72.212,232.106,78.018,242.93,80.008,246.206Z" transform="translate(-20.338 -62.453)" fill="#f6b486"/>
            <path id="XMLID_9488_" d="M59.218,158.245a2.477,2.477,0,0,0,0,2.7c.829,1.783,2.53,4.976,3.442,5.681a5.6,5.6,0,0,1,1.908,2.239c.166.7.788,3.11.788,3.11S53,163.346,52.459,158.286C51.961,153.31,59.218,158.245,59.218,158.245Z" transform="translate(-27.54 -96.994)" fill="#f6b486"/>
            <path id="XMLID_9487_" d="M69.66,169.866s-3.069,6.138-5.35,7.506c-2.239,1.368-7.382.954-9.248.664S63.4,163.77,63.4,163.77s2.613,2.53,2.737,3.483C66.592,172.105,69.66,169.866,69.66,169.866Z" transform="translate(-19.985 -72.744)" fill="#f6b486"/>
            <path id="XMLID_9486_" d="M67.833,190.856s-1.908,4.479-3.193,3.566-3.069-4.023-3.566-5.059-2.364-1.576-2.364-1.576,1.7-4.188,1.617-5.847c-.124-1.659,1.493-1.078,1.493-1.078a81.078,81.078,0,0,1-1.742-8.335c-.415-3.318-2.944-5.059-3.649-8.211a26.774,26.774,0,0,1-.332-6.594c.083-1.41.207-2.364.332-2.2a15.823,15.823,0,0,0,2.322,4.728c2.239,3.276,5.059,7.382,5.059,7.382a23.122,23.122,0,0,1,3.442,8.833c.664,4.769.829,5.723.622,7.257C67.625,185.217,68.123,188,67.833,190.856Z" transform="translate(-16.208 -98.752)" fill="#ffe3cf"/>
            <path id="XMLID_9485_" d="M59.436,161.475a5.335,5.335,0,0,1-2.447-.746c-1.493-.788-1.949-5.1-1.825-5.889.124-.746,2.364-.622,2.82,0a6.392,6.392,0,0,1,1.451,3.9C59.768,161.6,59.436,161.475,59.436,161.475Z" transform="translate(-19.008 -102.464)" fill="#ffe3cf"/>
            <path id="XMLID_9484_" d="M59.255,154.85s.622.954.249,3.857-1.825,5.059-1.991,5.723c-.124.664,1.742,4.147,1.742,4.147s-3.9-3.235-4.23-3.9c-.332-.7-2.364-2.737-1.866-3.608C53.615,160.2,59.255,154.85,59.255,154.85Z" transform="translate(-25.504 -100.815)" fill="#fcd1b3"/>
            <path id="XMLID_9483_" d="M51.83,183.973V196.7a4.421,4.421,0,0,0,1.161,2.986h0a6.947,6.947,0,0,0,10.16,0h0a4.422,4.422,0,0,0,1.161-2.986V166.017L51.83,159.05Z" transform="translate(-29.441 -87.597)" fill="#212121"/>
            <path id="XMLID_9482_" d="M51.83,202.573V144.267l12.482-2.447v72.531Z" transform="translate(-29.441 -141.82)" fill="#212121"/>
            <path id="XMLID_9481_" d="M81.175,244.907a23.616,23.616,0,0,1-12.814,6.925,39.775,39.775,0,0,1-5.35.581c-.29-1.037-.539-2.073-.788-3.027-2.7-11.736-1.7-26.541-1.7-26.541s-.581-2.9,0-9.455-3.483-12.9-5.764-17.21c-2.322-4.313-1.991-17.293-1.617-17.749.373-.415,3.815-1.161,5.64-2.032s6.8-7.008,6.8-7.008,2.322,15.51,3.566,21.523,7.8,32.264,7.879,33.217C77.111,224.586,79.143,234.7,81.175,244.907Z" transform="translate(-26.149 -55.057)" fill="#ffe3cf"/>
            <path id="XMLID_9480_" d="M70.719,173.355c-2.488,3.774-6.76.373-7.257,0s-12.192-13.146-13.6-13.187a7.4,7.4,0,0,1-.622-4.728c.746-3.691,4.976-4.52,5.847-4.52s4.6.622,5.889,1.452c1.244.829,9.828,12.814,10.367,13.6a.041.041,0,0,0,.041.041A7.611,7.611,0,0,1,70.719,173.355Z" transform="translate(-38.046 -113.182)" fill="#ffe3cf"/>
            <path id="XMLID_9479_" d="M69.72,166.811a32.421,32.421,0,0,0-4.935-7.216c-2.737-2.861-5.391-6.967-7.63-7.63s-3.318-1.493-6.884.539,7.921,12.275,7.921,12.275,4.562,5.972,4.645,6.1C62.919,170.916,69.72,166.811,69.72,166.811Z" transform="translate(-36.508 -112.237)" fill="#ffebdd"/>
            <path id="XMLID_9478_" d="M59.956,156.635s-2.156-2.571-4.562-2.322c-2.405.207-3.027,3.4-2.9,4.52s2.944,4.479,2.944,4.479a13.793,13.793,0,0,0,3.193-2.405C60.122,159.372,60.785,158.916,59.956,156.635Z" transform="translate(-27.407 -102.558)" fill="#fef7f2"/>
            <path id="XMLID_9477_" d="M91.131,195.477c-2.074,2.944-4.645,2.364-4.645,2.364a4.439,4.439,0,0,1,0,2.944c-.581,1.452-2.613,2.737-5.806,2.239s-5.391-2.115-12.026-4.4c-6.635-2.239-8.709-2.405-8.709-2.405a59.8,59.8,0,0,1-9.414-.415,19.6,19.6,0,0,0-1.866-2.2c-3.483-3.649-1.991-9.289-1.451-10.865.539-1.534,2.7-2.986,3.11-5.889s-.041-5.515,1.949-7.838c2.032-2.322,3.359-1.659,4.106-4.064s.664-4.313,2.405-5.806,6.635-3.359,6.635-3.359,4.852,2.239,5.889,3.4,6.925,8.087,9.248,10.2c2.281,2.156,6.179,5.64,7.34,7.921,1.161,2.239,1.7,5.225.829,7.3a2.6,2.6,0,0,1-2.778,1.742c.29.207,4.4,2.82,4.811,3.318A4.346,4.346,0,0,1,91.131,195.477Z" transform="translate(-46.431 -97.857)" fill="#ffe3cf"/>
            <path id="XMLID_9476_" d="M76.121,176.063a53.269,53.269,0,0,1-5.723-3.276c-2.944-1.949-10.865-7.382-12.358-8.211s-8.46-5.515-8.46-5.515,2.322.664,2.7.829A38.077,38.077,0,0,1,56.34,162C56.713,162.378,75.125,175.4,76.121,176.063Z" transform="translate(-36.522 -87.566)" fill="#f6b486"/>
            <path id="XMLID_8809_" d="M80.618,178.748s-3.981-2.156-6.055-3.152-16.09-8.792-18.454-9.953-7.257-3.483-7.755-3.608,2.322-.332,2.7,0,11.57,6.138,11.9,6.469,10.99,5.847,11.777,6.469S80.494,178.292,80.618,178.748Z" transform="translate(-40.563 -78.764)" fill="#f6b486"/>
            <path id="XMLID_8808_" d="M53.439,163.27s-3.11,1.037-3.4,3.152.249,3.981,4.893,5.516a75.6,75.6,0,0,1,10.16,3.981,32.942,32.942,0,0,0,5.972,3.359,3,3,0,0,0,3.4-1.493c.539-.829-3.193-4.852-3.193-4.852s-6.138-4.023-7.713-4.893C62.024,167.251,53.439,163.27,53.439,163.27Z" transform="translate(-35.281 -74.317)" fill="#ffebdd"/>
            <path id="XMLID_8807_" d="M56.272,160.6s-2.7-.622-4.4.954-1.783,2.654-.912,4.686,6.345,5.35,6.345,5.35,10.658,5.391,11.072,5.764,4.4,3.608,5.184,4.064,2.405.622,2.9,0,1.286-6.469,1.286-6.469l-5.474-3.774C70.33,169.85,57.225,162.551,56.272,160.6Z" transform="translate(-33.883 -83.095)" fill="#ffebdd"/>
            <path id="XMLID_8806_" d="M67.644,166.3s-9.414-9.414-10.575-9.621-4.354-.581-6.345,2.115,3.815,7.382,4.106,8.17,7.216,6.76,8,7.755c.788.954,8.128,6.345,8.128,6.345l5.018-4.147a24.886,24.886,0,0,0-3.069-5.1C71.418,170.033,67.644,166.3,67.644,166.3Z" transform="translate(-34.225 -95.511)" fill="#ffebdd"/>
            <path id="XMLID_6715_" d="M61.048,162.193a2.581,2.581,0,0,0-2.861-.539,4.709,4.709,0,0,0-2.861,3.483,1.627,1.627,0,0,0,1,1.783s2.2,1.617,2.322,1.617S61.421,168.206,61.048,162.193Z" transform="translate(-18.546 -80.083)" fill="#fef7f2"/>
            <path id="XMLID_6714_" d="M61.645,165.073s-2.488-2.032-3.691-.871a6.41,6.41,0,0,0-2.073,4.52c.041,1.659,3.11,2.986,3.11,2.986S63.47,169.012,61.645,165.073Z" transform="translate(-16.697 -72.512)" fill="#fef7f2"/>
            <path id="XMLID_6713_" d="M60.319,166.943s-3.525-1.452-4.023-1.327a2.98,2.98,0,0,0-1.534,3.069,2.736,2.736,0,0,0,1.825,2.53c.456.124,1.825.332,1.825.332S61.19,169.431,60.319,166.943Z" transform="translate(-20.264 -66.959)" fill="#fef7f2"/>
          </g>
          <path id="XMLID_6711_" d="M78.75,176.055,57.02,188.579a5.642,5.642,0,0,1-8.46-4.893V162.453L85.385,141.22v23.389A13.254,13.254,0,0,1,78.75,176.055Z" transform="translate(-12.108 -41.337)" fill="#5e1b00"/>
          <path id="XMLID_6710_" d="M79.62,176.425,57.89,188.949a5.642,5.642,0,0,1-8.46-4.893V162.823L86.255,141.59v23.389A13.291,13.291,0,0,1,79.62,176.425Z" transform="translate(-9.37 -40.172)" fill="#212121"/>
          <path id="XMLID_6709_" d="M158.48,124.24v75.973A20.516,20.516,0,0,1,148.2,218L56.547,270.919l-5.972,3.442a6.683,6.683,0,0,1-10.036-5.806V192.583a20.516,20.516,0,0,1,10.285-17.791l97.62-56.358A6.7,6.7,0,0,1,158.48,124.24Z" transform="translate(-37.347 -115.881)" fill="#f9f9f9"/>
          <path id="XMLID_6708_" d="M146.333,120v72.448a20.516,20.516,0,0,1-10.285,17.791L44.4,263.154C69.614,179.3,113.2,145.545,146.333,120Z" transform="translate(-25.199 -108.116)" fill="#fff"/>
          <g id="Group_46047" data-name="Group 46047" transform="translate(12.555 53.825)">
            <g id="Group_45617-2" data-name="Group 45617">
              <g id="Group_45615-2" data-name="Group 45615">
                <path id="Path_39388-2" data-name="Path 39388" d="M21.234,32.824,4.561,39.933,3.323,32.312,17.054,4.938l8.02-3.26L28.05,22.343l4.059-1.71,1,7.093-4.036,1.721.879,6.1-7.8,3.362Zm-1.07-7.141L18.584,15.14,11.343,29.4Z" transform="translate(0 23.854)" fill="#ffc759"/>
                <path id="Path_39389-2" data-name="Path 39389" d="M2.4,27.909a43.806,43.806,0,0,1-.4-4.483,29.56,29.56,0,0,1,.11-3.961,19.937,19.937,0,0,1,.629-3.426A14.034,14.034,0,0,1,3.88,13.158a14.969,14.969,0,0,1,1.649-2.452,16.294,16.294,0,0,1,2.15-2.149,19.409,19.409,0,0,1,2.643-1.84A24.567,24.567,0,0,1,13.451,5.19Q14.26,4.862,15,4.617t1.417-.407A12.569,12.569,0,0,1,17.7,3.966a8.765,8.765,0,0,1,1.149-.081,10.161,10.161,0,0,1,1.038.051,8.139,8.139,0,0,1,.95.152,6.733,6.733,0,0,1,.863.253,5.847,5.847,0,0,1,.779.353q.362.2.693.43T23.8,5.6a7.5,7.5,0,0,1,.559.517,6.955,6.955,0,0,1,.491.559q.228.29.442.62t.414.7q.2.369.385.776t.356.849q.33.842.609,1.723t.5,1.8q.226.919.4,1.877t.292,1.955q.268,2.233.321,4.236a32.461,32.461,0,0,1-.107,3.774,23.063,23.063,0,0,1-.533,3.321,16.915,16.915,0,0,1-.958,2.874,12.994,12.994,0,0,1-1.46,2.505A14.609,14.609,0,0,1,23.473,35.9a18.536,18.536,0,0,1-2.626,1.932,25.308,25.308,0,0,1-3.217,1.653q-.988.426-1.891.729a16.934,16.934,0,0,1-1.725.485,11.611,11.611,0,0,1-1.558.242,8.041,8.041,0,0,1-1.392,0,7.706,7.706,0,0,1-1.268-.223,7.225,7.225,0,0,1-1.184-.426,7.35,7.35,0,0,1-1.1-.628,8.082,8.082,0,0,1-1.009-.828,6.251,6.251,0,0,1-.677-.752,9.193,9.193,0,0,1-.638-.95q-.309-.524-.6-1.146T4.03,34.649q-.279-.727-.519-1.51t-.443-1.624q-.2-.842-.37-1.742T2.4,27.909Zm8.828-3.68q.209,1.582.451,2.88t.516,2.313a14.115,14.115,0,0,0,.582,1.751,5.653,5.653,0,0,0,.651,1.194,3.7,3.7,0,0,0,.725.747,2.434,2.434,0,0,0,.8.408,2.332,2.332,0,0,0,.884.072,3.34,3.34,0,0,0,.964-.262A4.316,4.316,0,0,0,17.433,33a4.466,4.466,0,0,0,.574-.437,4.928,4.928,0,0,0,.514-.537,5.722,5.722,0,0,0,.453-.636,5.61,5.61,0,0,0,.383-.744,7.258,7.258,0,0,0,.3-.863,9.415,9.415,0,0,0,.22-.977q.089-.516.135-1.087t.046-1.278q0-.708-.045-1.552t-.139-1.825q-.093-.981-.234-2.1-.208-1.647-.447-3t-.512-2.408a14.746,14.746,0,0,0-.579-1.815,5.586,5.586,0,0,0-.648-1.221,3.639,3.639,0,0,0-.732-.755,2.431,2.431,0,0,0-1.76-.49,3.685,3.685,0,0,0-1.031.271,4.6,4.6,0,0,0-1.009.568,4.359,4.359,0,0,0-.816.8,5.047,5.047,0,0,0-.621,1.026,6.8,6.8,0,0,0-.426,1.257,10.176,10.176,0,0,0-.244,1.6q-.074.91-.053,2.041t.136,2.479Q11.016,22.663,11.223,24.228Z" transform="translate(32.044 12.057)" fill="#ffc759"/>
                <path id="Path_39390-2" data-name="Path 39390" d="M18.62,31.8,3.232,38.361,2.354,30.91,15.715,4.553l7.395-3.006,2.046,20.188L28.9,20.156l.684,6.934-3.728,1.59.6,5.968-7.21,3.105Zm-.744-6.981-1.1-10.3L9.736,28.248Z" transform="translate(60.959 0)" fill="#ffc759"/>
              </g>
            </g>
          </g>
        </g>
      </g>
      <g id="Group_45792" data-name="Group 45792" transform="translate(204.237 34.234)">
        <path id="Path_40059" data-name="Path 40059" d="M114.454,201.75c-11.612,6.718-30.48,6.677-42.175-.083s-11.736-17.625-.124-24.343,30.48-6.677,42.175.083C126.025,184.125,126.066,195.032,114.454,201.75Z" transform="translate(-47.205 19.777)" fill="#e0974d"/>
        <g id="XMLID_9607_">
          <path id="XMLID_9636_" d="M146.89,127.935l-2.281-1.161a6.243,6.243,0,0,0-.912-.456h-.042a4.84,4.84,0,0,0-4.188.332L67.309,168.327a15.17,15.17,0,0,0-7.589,13.146v56.15a4.877,4.877,0,0,0,2.613,4.354h0L64.9,243.3l.581-.829a4.744,4.744,0,0,0,1.617-.581l72.158-41.677a15.17,15.17,0,0,0,7.589-13.146v-56.15a4.958,4.958,0,0,0-.539-2.239Z" transform="translate(-59.72 -125.991)" fill="#212121"/>
          <g id="XMLID_9612_" transform="translate(21.135 75.636)">
            <path id="XMLID_9635_" d="M109.229,257.859s-.166.373-.5,1a21.159,21.159,0,0,1-3.442,4.52,18.054,18.054,0,0,1-3.152,2.571,16.837,16.837,0,0,1-6.345,2.53,25.953,25.953,0,0,1-3.94.415,37.112,37.112,0,0,1-6.594-.332,40.165,40.165,0,0,1-8.17-1.908S76.053,253.8,76.3,244.174s1.41-25.006.871-32.264c-.539-7.216-.871-7.879-1.161-7.962a15.868,15.868,0,0,1-4.893-3.608c-1.825-1.908-2.156-3.193-3.442-4.935a14.238,14.238,0,0,0-1.369-1.617A6.626,6.626,0,0,1,65.4,192.5c-1.369-2.571-.5-5.764-.166-6.76.415-1.161,1.991-2.239,2.322-4.354.332-2.156-.041-4.064,1.451-5.806s2.488-1.244,3.027-2.986c.539-1.783.5-3.193,1.783-4.271a23.033,23.033,0,0,1,4.893-2.488s-3.4-5.391-4.106-6.262a9.713,9.713,0,0,1-1.244-1.825,5.189,5.189,0,0,1-.456-3.483c.539-2.737,3.649-3.318,4.313-3.318a12.6,12.6,0,0,1,4.354,1.078c.912.622,7.257,9.455,7.672,10.036v.041s.456-1.327,2.778-1.286a3.04,3.04,0,0,1,2.986,3.193c0,1.078-.041,2.405-.041,2.405s4.023,5.681,5.059,7.3c1.037,1.659,2.82,5.889,2.82,6.843s-.166,4.064,0,5.6.373,4.479-.746,6.718a17.087,17.087,0,0,0-1.493,4.562c-.166.7-.166,11.031-.124,15.427C100.6,217.343,100.355,240.815,109.229,257.859Z" transform="translate(-64.649 -123.082)" fill="#fcd1b3"/>
            <path id="XMLID_9634_" d="M93.776,172.139a13.776,13.776,0,0,1-2.115,2.9c-1.244,1.244-4.23,3.318-4.437,3.649-.166.29.456,2.571-1.327,3.442a8.837,8.837,0,0,1-4.23.664s-.166,1.2-.746,5.018,5.308,14.6,3.566,26.582a88.354,88.354,0,0,0,.207,23.721,40.169,40.169,0,0,1-8.17-1.908s-1.037-12.856-.788-22.477,1.41-25.006.871-32.264c-.539-7.216-.871-7.879-1.161-7.962a15.868,15.868,0,0,1-4.893-3.608c-1.825-1.908-2.156-3.193-3.442-4.935a14.245,14.245,0,0,0-1.369-1.617,6.624,6.624,0,0,1-.912-1.286c3.11-3.566,6.76.539,10.119,1.742a55.775,55.775,0,0,1,8.543,4.4,18.405,18.405,0,0,1,1.368,2.861c-.083.249-1.244,3.9-.664,4.686a3.187,3.187,0,0,0,3.152,1C88.468,176.41,93.569,172.3,93.776,172.139Z" transform="translate(-64.084 -92.599)" fill="#f6b486"/>
            <path id="XMLID_9633_" d="M89.514,221.311a21.158,21.158,0,0,1-3.442,4.52,18.053,18.053,0,0,1-3.152,2.571c-.954-.083-1.742-.788-2.032-2.613-.788-5.018-6.76-44.165-7.008-49.225-.249-5.1,1.451-9.414,1.949-9.953s-.746-1.493-.746-1.493-4.893,2.364-4.271,1.908a11.469,11.469,0,0,0,1.7-2.364,13.581,13.581,0,0,0,3.691-1.078c1.2-.7,4.645-.7,4.645-.7a149.086,149.086,0,0,0,.7,33.715C83.75,210.9,88.021,218.864,89.514,221.311Z" transform="translate(-45.432 -85.539)" fill="#f6b486"/>
            <path id="XMLID_9632_" d="M74.081,156.362a1.807,1.807,0,0,0,0,1.991,16.61,16.61,0,0,0,2.571,4.188,3.809,3.809,0,0,1,1.41,1.659c.124.5.581,2.281.581,2.281S69.477,160.094,69.1,156.4,74.081,156.362,74.081,156.362Z" transform="translate(-50.692 -111.118)" fill="#f6b486"/>
            <path id="XMLID_9631_" d="M81.815,164.929s-2.281,4.52-3.94,5.557c-1.659,1-5.433.7-6.843.5s6.138-10.533,6.138-10.533,1.949,1.866,1.991,2.571C79.535,166.587,81.815,164.929,81.815,164.929Z" transform="translate(-45.115 -93.186)" fill="#f6b486"/>
            <path id="XMLID_9630_" d="M80.414,180.445s-1.41,3.276-2.364,2.613a12.493,12.493,0,0,1-2.613-3.732c-.373-.746-1.742-1.161-1.742-1.161s1.286-3.11,1.2-4.313c-.083-1.244,1.12-.788,1.12-.788a55.126,55.126,0,0,1-1.286-6.138c-.332-2.447-2.2-3.732-2.7-6.1a21.059,21.059,0,0,1-.249-4.852c.041-1.037.166-1.742.249-1.617a10.883,10.883,0,0,0,1.7,3.483c1.659,2.405,3.732,5.433,3.732,5.433A16.689,16.689,0,0,1,80,169.788c.5,3.525.622,4.23.456,5.35C80.249,176.257,80.622,178.33,80.414,180.445Z" transform="translate(-42.304 -112.393)" fill="#ffe3cf"/>
            <path id="XMLID_9629_" d="M74.252,158.781a3.736,3.736,0,0,1-1.825-.581c-1.12-.581-1.41-3.774-1.327-4.354s1.742-.456,2.073,0a4.59,4.59,0,0,1,1.078,2.861C74.5,158.864,74.252,158.781,74.252,158.781Z" transform="translate(-44.393 -115.196)" fill="#ffe3cf"/>
            <path id="XMLID_9628_" d="M74.1,153.86s.456.7.166,2.861a18.086,18.086,0,0,1-1.451,4.23c-.124.5,1.286,3.069,1.286,3.069a23.736,23.736,0,0,1-3.11-2.9c-.249-.5-1.742-2.032-1.368-2.654C69.915,157.8,74.1,153.86,74.1,153.86Z" transform="translate(-49.181 -113.924)" fill="#fcd1b3"/>
            <path id="XMLID_9627_" d="M68.63,175.373v9.414a3.069,3.069,0,0,0,.871,2.2h0a5.1,5.1,0,0,0,7.506,0h0a3.254,3.254,0,0,0,.871-2.2V162.1L68.63,156.96v18.413Z" transform="translate(-52.125 -104.169)" fill="#212121"/>
            <path id="XMLID_9626_" d="M68.63,189.1V146.013l9.248-1.783v53.579Z" transform="translate(-52.125 -144.23)" fill="#212121"/>
            <path id="XMLID_9625_" d="M90.334,220.387a17.462,17.462,0,0,1-9.5,5.1,25.948,25.948,0,0,1-3.94.415c-.207-.788-.415-1.534-.581-2.239-1.991-8.667-1.244-19.615-1.244-19.615a28.686,28.686,0,0,1,0-6.967c.415-4.852-2.571-9.538-4.271-12.69-1.7-3.193-1.493-12.773-1.2-13.1s2.82-.871,4.188-1.493,5.018-5.184,5.018-5.184,1.7,11.446,2.613,15.883,5.764,23.845,5.847,24.55C87.348,205.375,88.841,212.839,90.334,220.387Z" transform="translate(-49.693 -80.094)" fill="#ffe3cf"/>
            <path id="XMLID_9624_" d="M82.58,167.506c-1.825,2.82-5.018.29-5.35,0-.373-.29-9-9.7-10.036-9.745a5.189,5.189,0,0,1-.456-3.483c.539-2.737,3.649-3.318,4.313-3.318a12.6,12.6,0,0,1,4.354,1.078c.912.622,7.257,9.455,7.672,10.036v.041A5.611,5.611,0,0,1,82.58,167.506Z" transform="translate(-58.444 -123.051)" fill="#ffe3cf"/>
            <path id="XMLID_9623_" d="M81.86,162.7a25.608,25.608,0,0,0-3.649-5.35c-2.032-2.115-3.981-5.184-5.64-5.64s-2.447-1.12-5.1.415c-2.613,1.493,5.847,9.04,5.847,9.04s3.359,4.437,3.442,4.479C76.842,165.728,81.86,162.7,81.86,162.7Z" transform="translate(-57.351 -122.392)" fill="#ffebdd"/>
            <path id="XMLID_9622_" d="M74.632,155.2s-1.617-1.866-3.359-1.742c-1.783.166-2.239,2.488-2.156,3.318s2.2,3.276,2.2,3.276a9.748,9.748,0,0,0,2.364-1.783C74.8,157.187,75.3,156.855,74.632,155.2Z" transform="translate(-50.621 -115.219)" fill="#fef7f2"/>
            <path id="XMLID_9621_" d="M97.66,183.9a3.534,3.534,0,0,1-3.442,1.742,3.352,3.352,0,0,1,0,2.156c-.415,1.078-1.949,2.032-4.271,1.659-2.364-.373-3.981-1.576-8.875-3.235a34.017,34.017,0,0,0-6.428-1.783,40.877,40.877,0,0,1-6.967-.332,14.238,14.238,0,0,0-1.369-1.617c-2.571-2.7-1.493-6.884-1.078-8.045s1.991-2.239,2.322-4.354c.332-2.156-.042-4.064,1.451-5.806s2.488-1.244,3.027-2.986c.539-1.783.5-3.193,1.783-4.271a23.034,23.034,0,0,1,4.893-2.488s3.566,1.659,4.354,2.53,5.142,5.972,6.843,7.548,4.562,4.188,5.433,5.847a6.949,6.949,0,0,1,.622,5.391,2,2,0,0,1-2.032,1.286c.207.124,3.235,2.073,3.566,2.447A3.42,3.42,0,0,1,97.66,183.9Z" transform="translate(-64.65 -111.785)" fill="#ffe3cf"/>
            <path id="XMLID_9620_" d="M86.617,169.525a47.575,47.575,0,0,1-4.23-2.405c-2.156-1.41-8.045-5.433-9.165-6.1-1.12-.622-6.262-4.064-6.262-4.064a17.08,17.08,0,0,1,1.991.622c.249.166,2.737,1.244,3.027,1.534C72.268,159.448,85.87,169.069,86.617,169.525Z" transform="translate(-57.38 -104.169)" fill="#f6b486"/>
            <path id="XMLID_9619_" d="M89.909,171.486s-2.944-1.576-4.479-2.322-11.9-6.511-13.644-7.34c-1.742-.871-5.35-2.571-5.723-2.654s1.742-.249,1.991,0,8.543,4.52,8.792,4.769,8.128,4.313,8.709,4.769S89.826,171.155,89.909,171.486Z" transform="translate(-60.341 -97.628)" fill="#f6b486"/>
            <path id="XMLID_9618_" d="M69.8,160.08s-2.281.788-2.488,2.322.166,2.944,3.608,4.106a56.317,56.317,0,0,1,7.506,2.944,25.142,25.142,0,0,0,4.4,2.488,2.294,2.294,0,0,0,2.53-1.12c.415-.622-2.364-3.566-2.364-3.566s-4.52-2.986-5.723-3.608C76.148,163.024,69.8,160.08,69.8,160.08Z" transform="translate(-56.408 -94.35)" fill="#ffebdd"/>
            <path id="XMLID_9617_" d="M71.941,158.107a4.042,4.042,0,0,0-3.276.7c-1.286,1.161-1.327,1.949-.664,3.483.622,1.493,4.686,3.94,4.686,3.94s7.879,3.981,8.17,4.271,3.235,2.654,3.815,2.986,1.783.456,2.115,0c.373-.456.954-4.769.954-4.769s-2.654-1.866-4.064-2.778C82.35,164.95,72.687,159.517,71.941,158.107Z" transform="translate(-55.436 -100.837)" fill="#ffebdd"/>
            <path id="XMLID_9616_" d="M80.3,162.29s-6.967-6.967-7.8-7.091a4.707,4.707,0,0,0-4.686,1.576c-1.451,1.991,2.82,5.433,3.027,6.055.207.581,5.308,5.018,5.889,5.723s6.013,4.686,6.013,4.686l3.691-3.069a18.135,18.135,0,0,0-2.281-3.774C83.079,165.069,80.3,162.29,80.3,162.29Z" transform="translate(-55.626 -109.997)" fill="#ffebdd"/>
            <path id="XMLID_9615_" d="M75.445,159.273a1.89,1.89,0,0,0-2.115-.373,3.464,3.464,0,0,0-2.115,2.571,1.237,1.237,0,0,0,.746,1.327s1.617,1.2,1.7,1.2C73.745,163.959,75.736,163.71,75.445,159.273Z" transform="translate(-44.052 -98.602)" fill="#fef7f2"/>
            <path id="XMLID_9614_" d="M75.891,161.4s-1.825-1.493-2.737-.622a4.784,4.784,0,0,0-1.534,3.318c.041,1.2,2.281,2.2,2.281,2.2S77.26,164.3,75.891,161.4Z" transform="translate(-42.715 -93.015)" fill="#fef7f2"/>
            <path id="XMLID_9613_" d="M74.936,162.8a16.725,16.725,0,0,0-2.986-1,2.235,2.235,0,0,0-1.161,2.281,1.962,1.962,0,0,0,1.369,1.866,9.88,9.88,0,0,0,1.368.249S75.6,164.623,74.936,162.8Z" transform="translate(-45.368 -88.941)" fill="#fef7f2"/>
          </g>
          <path id="XMLID_9611_" d="M88.531,169.564l-16.049,9.248A4.176,4.176,0,0,1,66.22,175.2V159.487l27.2-15.717v17.293A9.788,9.788,0,0,1,88.531,169.564Z" transform="translate(-38.574 -70.042)" fill="#5e1b00"/>
          <path id="XMLID_9610_" d="M89.171,169.844l-16.049,9.248a4.176,4.176,0,0,1-6.262-3.608V159.767l27.2-15.717v17.293A9.788,9.788,0,0,1,89.171,169.844Z" transform="translate(-36.56 -69.161)" fill="#212121"/>
          <path id="XMLID_9609_" d="M147.46,131.233v56.15a15.17,15.17,0,0,1-7.589,13.146L72.15,239.635l-4.437,2.571a4.936,4.936,0,0,1-7.423-4.271v-56.15a15.17,15.17,0,0,1,7.589-13.146L140.037,127A4.9,4.9,0,0,1,147.46,131.233Z" transform="translate(-57.236 -125.059)" fill="#f9f9f9"/>
          <path id="XMLID_9608_" d="M138.459,128.11v53.538a15.17,15.17,0,0,1-7.589,13.146L63.15,233.9C81.77,171.9,113.951,146.979,138.459,128.11Z" transform="translate(-48.235 -119.324)" fill="#fff"/>
          <g id="Group_46049" data-name="Group 46049" transform="translate(17.498 45.117)">
            <g id="Group_45617-3" data-name="Group 45617">
              <g id="Group_45615-3" data-name="Group 45615">
                <path id="Path_39388-3" data-name="Path 39388" d="M11.693,17.966l-9.213,4L1.8,17.811,9.329,2.834,13.749.965l1.714,11.2,2.262-.974.587,3.882-2.254.978.513,3.351-4.354,1.9Zm-.609-3.9-.895-5.726L6.21,16.165Z" transform="translate(0 13.991)" fill="#ffc759"/>
                <path id="Path_39389-3" data-name="Path 39389" d="M1.4,15.555a23.276,23.276,0,0,1-.244-2.444,15.723,15.723,0,0,1,.046-2.159A10.682,10.682,0,0,1,1.543,9.08,7.638,7.638,0,0,1,2.173,7.5a8.317,8.317,0,0,1,.911-1.354,9.227,9.227,0,0,1,1.192-1.2A11.163,11.163,0,0,1,5.746,3.909a14.288,14.288,0,0,1,1.747-.878q.452-.191.868-.336t.795-.244q.379-.1.721-.153a5.145,5.145,0,0,1,.647-.062q.305-.009.586.011a4.725,4.725,0,0,1,.537.068,3.87,3.87,0,0,1,.49.124,3.313,3.313,0,0,1,.443.18q.207.105.4.223t.358.248a4.1,4.1,0,0,1,.321.273,3.76,3.76,0,0,1,.282.3q.131.154.255.332t.24.376q.116.2.224.418t.209.459q.194.456.359.934t.3.979q.136.5.242,1.024t.182,1.069q.17,1.224.216,2.326a17.272,17.272,0,0,1-.031,2.081,12.365,12.365,0,0,1-.278,1.839,9.175,9.175,0,0,1-.525,1.6,7.173,7.173,0,0,1-.816,1.4,8.229,8.229,0,0,1-1.15,1.246,10.608,10.608,0,0,1-1.485,1.093,14.619,14.619,0,0,1-1.821.942q-.559.244-1.07.419a9.835,9.835,0,0,1-.976.282,6.749,6.749,0,0,1-.882.146,4.665,4.665,0,0,1-.788.011,4.444,4.444,0,0,1-.718-.113,4.115,4.115,0,0,1-1.293-.563,4.5,4.5,0,0,1-.573-.448,3.435,3.435,0,0,1-.385-.408,5,5,0,0,1-.363-.517q-.176-.286-.342-.625t-.321-.73q-.16-.4-.3-.824t-.255-.886q-.117-.459-.215-.95T1.4,15.555Zm4.941-2.113q.126.864.27,1.573t.3,1.264a7.556,7.556,0,0,0,.339.956,3.057,3.057,0,0,0,.375.651,2.042,2.042,0,0,0,.415.4,1.383,1.383,0,0,0,.458.217,1.356,1.356,0,0,0,.5.031,1.946,1.946,0,0,0,.545-.154,2.493,2.493,0,0,0,.357-.19,2.551,2.551,0,0,0,.323-.247,2.779,2.779,0,0,0,.288-.3,3.185,3.185,0,0,0,.253-.355,3.083,3.083,0,0,0,.213-.414,3.945,3.945,0,0,0,.166-.479,5.078,5.078,0,0,0,.119-.54q.047-.285.07-.6t.018-.7q0-.389-.036-.853t-.091-1q-.059-.538-.146-1.149-.129-.9-.273-1.637T10.505,8.6a7.777,7.777,0,0,0-.339-.984,2.966,2.966,0,0,0-.374-.657,1.977,1.977,0,0,0-.418-.4A1.4,1.4,0,0,0,8.9,6.345a1.453,1.453,0,0,0-.524-.027,2.155,2.155,0,0,0-.579.163,2.661,2.661,0,0,0-.565.324,2.473,2.473,0,0,0-.454.446,2.791,2.791,0,0,0-.344.568,3.677,3.677,0,0,0-.233.691,5.432,5.432,0,0,0-.129.875A10.959,10.959,0,0,0,6.058,10.5q.018.617.089,1.353T6.344,13.442Z" transform="translate(17.607 7.134)" fill="#ffc759"/>
                <path id="Path_39390-3" data-name="Path 39390" d="M10.879,17.656,2.068,21.477l-.566-4.1L8.917,2.71,13.143.923,14.561,11.99l2.163-.932.485,3.835-2.157.935.424,3.311-4.165,1.816ZM10.373,13.8,9.631,8.147,5.713,15.811Z" transform="translate(33.792 0)" fill="#ffc759"/>
              </g>
            </g>
          </g>
        </g>
      </g>
    </g>
  </g>
</svg>
