<svg xmlns="http://www.w3.org/2000/svg" width="17.5" height="18.5" viewBox="0 0 17.5 18.5">
  <g id="Calendar" transform="translate(-2 -1.3)">
    <path id="Path_41234" data-name="Path 41234" d="M2.75,11.313c0-5.859,2-7.812,8-7.812s8,1.952,8,7.812-2,7.811-8,7.811S2.75,17.172,2.75,11.313Z" transform="translate(0 -0.074)" fill="none" stroke="#ffc759" stroke-linecap="round" stroke-linejoin="round" stroke-width="1.5" fill-rule="evenodd"/>
    <path id="Path_41235" data-name="Path 41235" d="M3.025,9.324H18.512" transform="translate(-0.014 -1.091)" fill="none" stroke="#ffc759" stroke-linecap="round" stroke-linejoin="round" stroke-width="1.5"/>
    <path id="Path_41236" data-name="Path 41236" d="M16.428,13.261h.009" transform="translate(-1.88 -1.681)" fill="none" stroke="#ffc759" stroke-linecap="round" stroke-linejoin="round" stroke-width="1.5"/>
    <path id="Path_41237" data-name="Path 41237" d="M12.029,13.261h.009" transform="translate(-1.276 -1.681)" fill="none" stroke="#ffc759" stroke-linecap="round" stroke-linejoin="round" stroke-width="1.5"/>
    <path id="Path_41238" data-name="Path 41238" d="M7.621,13.261H7.63" transform="translate(-0.67 -1.681)" fill="none" stroke="#ffc759" stroke-linecap="round" stroke-linejoin="round" stroke-width="1.5"/>
    <path id="Path_41239" data-name="Path 41239" d="M16.428,17.113h.009" transform="translate(-1.88 -2.259)" fill="none" stroke="#ffc759" stroke-linecap="round" stroke-linejoin="round" stroke-width="1.5"/>
    <path id="Path_41240" data-name="Path 41240" d="M12.029,17.113h.009" transform="translate(-1.276 -2.259)" fill="none" stroke="#ffc759" stroke-linecap="round" stroke-linejoin="round" stroke-width="1.5"/>
    <path id="Path_41241" data-name="Path 41241" d="M7.621,17.113H7.63" transform="translate(-0.67 -2.259)" fill="none" stroke="#ffc759" stroke-linecap="round" stroke-linejoin="round" stroke-width="1.5"/>
    <path id="Path_41242" data-name="Path 41242" d="M16.033,2.05V5.145" transform="translate(-1.825)" fill="none" stroke="#ffc759" stroke-linecap="round" stroke-linejoin="round" stroke-width="1.5"/>
    <path id="Path_41243" data-name="Path 41243" d="M8.025,2.05V5.145" transform="translate(-0.725)" fill="none" stroke="#ffc759" stroke-linecap="round" stroke-linejoin="round" stroke-width="1.5"/>
  </g>
</svg>
