<svg xmlns="http://www.w3.org/2000/svg" width="55.552" height="47.951" viewBox="0 0 55.552 47.951">
  <g id="call" transform="translate(0 -35.026)">
    <g id="Group_46067" data-name="Group 46067" transform="translate(0 35.026)">
      <g id="Group_46059" data-name="Group 46059" transform="translate(0 0)">
        <path id="Path_41101" data-name="Path 41101" d="M23.976,35.026A23.976,23.976,0,1,1,0,59,23.975,23.975,0,0,1,23.976,35.026Z" transform="translate(0 -35.026)" fill="#eefff4" fill-rule="evenodd"/>
      </g>
      <g id="Group_46060" data-name="Group 46060" transform="translate(19.402 0)">
        <path id="Path_41102" data-name="Path 41102" d="M179.4,35.357a23.979,23.979,0,0,1-.582,47.184,23.976,23.976,0,1,0,.582-47.184Z" transform="translate(-178.822 -35.026)" fill="#b6dac4" fill-rule="evenodd"/>
      </g>
      <g id="Group_46061" data-name="Group 46061" transform="translate(13.054 8.382)">
        <path id="Path_41103" data-name="Path 41103" d="M121.379,130a22.843,22.843,0,0,0,5.344,9.637A11.217,11.217,0,0,0,133,142.771a8.252,8.252,0,0,0,4.026-.57c3.119-1.407,1.572-3.46.143-5.528-1.642-2.533-2.572-3.125-4.593-2.7-.929.493-2.931-1.279-4.017-3.886a16.653,16.653,0,0,1-.6-1.7,15.828,15.828,0,0,1-.411-1.744c-.484-2.756.28-5.2,1.353-5.2,1.983-.554,2.467-1.489,2.5-4.434.1-2.362.242-4.924-3.151-4.723a8.048,8.048,0,0,0-3.8,1.343,9.841,9.841,0,0,0-3.721,5.579A21.519,21.519,0,0,0,121.379,130Z" transform="translate(-120.314 -112.279)" fill="#18a34c" fill-rule="evenodd"/>
      </g>
      <g id="Group_46062" data-name="Group 46062" transform="translate(18.054 8.382)">
        <path id="Path_41104" data-name="Path 41104" d="M170.557,117.173c-.022,1.684-1.165,1.595-1.961,2.139-1.458,1-2.855,3.167-1.865,8.807.337,1.913,3.151,8.546,6.611,8.065,2.158-.538,2.483.866,3.011,1.665,1.378,2,1.833,3.18.169,4.828a6.791,6.791,0,0,0,1.588-.474c3.119-1.407,1.572-3.46.143-5.528-1.642-2.533-2.572-3.125-4.593-2.7-.929.493-2.931-1.279-4.017-3.886a16.655,16.655,0,0,1-.6-1.7,15.825,15.825,0,0,1-.411-1.744c-.484-2.756.28-5.2,1.353-5.2,1.983-.554,2.467-1.489,2.5-4.434.1-2.362.242-4.924-3.151-4.723a7.67,7.67,0,0,0-2.718.732,6.077,6.077,0,0,1,.815-.105C170.831,112.717,170.659,114.812,170.557,117.173Z" transform="translate(-166.399 -112.28)" fill="#0d682f" fill-rule="evenodd"/>
      </g>
      <g id="Group_46063" data-name="Group 46063" transform="translate(29.517 0.032)">
        <path id="Path_41105" data-name="Path 41105" d="M272.046,46.179a10.333,10.333,0,0,0,5.054,8.59h0l-.525,4.4v.2c0,.232.162.477.519.169.134-.118.156-.143.411-.369l3.453-2.677a14.885,14.885,0,0,0,2.537.474,15.063,15.063,0,0,0,1.572.08c7.19,0,13.017-4.86,13.017-10.859S292.253,35.32,285.063,35.32c-.532,0-1.057.029-1.572.08-6.448.646-11.445,5.226-11.445,10.78Z" transform="translate(-272.046 -35.32)" fill="#ffb66d" fill-rule="evenodd"/>
      </g>
      <g id="Group_46064" data-name="Group 46064" transform="translate(39.813 0.032)">
        <path id="Path_41106" data-name="Path 41106" d="M366.942,35.559c6.878.29,12.349,5.035,12.349,10.844a10.231,10.231,0,0,1-4.64,8.313,14.143,14.143,0,0,1-5.656,2.311c.22.01.442.013.668.013a15.2,15.2,0,0,0,5.213-.907c4.593-1.677,7.8-5.5,7.8-9.953,0-6-5.828-10.859-13.017-10.859-.532,0-1.057.029-1.572.08-.388.038-.77.092-1.149.159Z" transform="translate(-366.942 -35.32)" fill="#ffc759" fill-rule="evenodd"/>
      </g>
      <g id="Group_46065" data-name="Group 46065" transform="translate(36.508 7.539)">
        <path id="Path_41107" data-name="Path 41107" d="M348.638,106.185H337.32a.838.838,0,0,1,0-1.677h11.318a.838.838,0,0,1,0,1.677Z" transform="translate(-336.482 -104.508)" fill="#fff"/>
      </g>
      <g id="Group_46066" data-name="Group 46066" transform="translate(36.508 11.966)">
        <path id="Path_41108" data-name="Path 41108" d="M348.638,146.989H337.32a.838.838,0,0,1,0-1.677h11.318a.838.838,0,0,1,0,1.677Z" transform="translate(-336.482 -145.312)" fill="#fff"/>
      </g>
    </g>
  </g>
</svg>
