<svg xmlns="http://www.w3.org/2000/svg" width="43.673" height="41.711" viewBox="0 0 43.673 41.711">
  <g id="Camera" transform="translate(-2.289 -2.042)">
    <path id="Path_32211" data-name="Path 32211" d="M23.706,16.632a7.279,7.279,0,1,0-7.279,7.279A7.28,7.28,0,0,0,23.706,16.632Z" transform="translate(7.7 8.295)" fill="none" stroke="#fff" stroke-linecap="round" stroke-linejoin="round" stroke-width="2" fill-rule="evenodd"/>
    <path id="Path_32212" data-name="Path 32212" d="M24.126,42.753c18.62,0,20.837-5.579,20.837-17.667,0-8.473-1.121-13.007-8.178-14.956a4.458,4.458,0,0,1-1.949-1.235c-.941-1.031-1.627-4.2-3.9-5.153s-11.389-.911-13.623,0-2.958,4.122-3.9,5.153a4.446,4.446,0,0,1-1.949,1.235C4.41,12.079,3.289,16.612,3.289,25.085,3.289,37.174,5.506,42.753,24.126,42.753Z" transform="translate(0 0)" fill="none" stroke="#fff" stroke-linecap="round" stroke-linejoin="round" stroke-width="2" fill-rule="evenodd"/>
    <path id="Path_32213" data-name="Path 32213" d="M17.2,9h.021" transform="translate(18.29 7.831)" fill="none" stroke="#fff" stroke-linecap="round" stroke-linejoin="round" stroke-width="2"/>
  </g>
</svg>
