<svg id="copy" xmlns="http://www.w3.org/2000/svg" width="19.173" height="22.776" viewBox="0 0 19.173 22.776">
  <path id="Path_41131" data-name="Path 41131" d="M12.055,22.776h-8.5A3.563,3.563,0,0,1,0,19.218V7.162A3.563,3.563,0,0,1,3.559,3.6h8.5a3.563,3.563,0,0,1,3.559,3.559V19.218A3.563,3.563,0,0,1,12.055,22.776ZM3.559,5.383A1.782,1.782,0,0,0,1.779,7.162V19.218A1.782,1.782,0,0,0,3.559,21h8.5a1.782,1.782,0,0,0,1.779-1.779V7.162a1.782,1.782,0,0,0-1.779-1.779ZM19.173,16.993V3.559A3.563,3.563,0,0,0,15.614,0H5.739a.89.89,0,0,0,0,1.779h9.876a1.782,1.782,0,0,1,1.779,1.779V16.993a.89.89,0,0,0,1.779,0Zm0,0" fill="#fff"/>
</svg>
