<svg xmlns="http://www.w3.org/2000/svg" width="13.312" height="14.888" viewBox="0 0 13.312 14.888">
  <g id="delete" transform="translate(-2.587 -1)">
    <g id="Group_76283" data-name="Group 76283" transform="translate(2.587 1)">
      <path id="Path_41232" data-name="Path 41232" d="M3.307,4.981h.639L4.518,13.8a2.24,2.24,0,0,0,2.228,2.089h4.995A2.24,2.24,0,0,0,13.969,13.8l.571-8.817h.639a.72.72,0,0,0,0-1.441H12.941V2.729A1.731,1.731,0,0,0,11.212,1H7.274A1.731,1.731,0,0,0,5.545,2.729V3.54H3.307a.72.72,0,0,0,0,1.441Zm8.2,6.882a.72.72,0,0,1-1.441,0V6.782a.72.72,0,0,1,1.441,0ZM6.986,2.729a.289.289,0,0,1,.288-.288h3.938a.289.289,0,0,1,.288.288V3.54H6.986Zm0,4.053a.72.72,0,0,1,1.441,0v5.081a.72.72,0,0,1-1.441,0Z" transform="translate(-2.587 -1)" fill="#ff6f59"/>
    </g>
  </g>
</svg>
