<svg xmlns="http://www.w3.org/2000/svg" width="17.919" height="12.48" viewBox="0 0 17.919 12.48">
  <g id="eye" transform="translate(0 -2.744)">
    <g id="Group_45924" data-name="Group 45924" transform="translate(0)">
      <path id="Path_40859" data-name="Path 40859" d="M17.538,41.321a.7.7,0,0,0-.941.3h0c-1.073,2.091-3.923,5.09-7.637,5.09-3.331,0-6.291-2.467-7.637-5.09a.7.7,0,0,0-1.246.639c1.546,3.02,4.947,5.851,8.882,5.851,4.488,0,7.7-3.547,8.882-5.851A.7.7,0,0,0,17.538,41.321ZM.272,48.838l1.559-1.406a.7.7,0,1,1,.938,1.039L1.21,49.878a.7.7,0,1,1-.938-1.039Zm15.816-1.406,1.559,1.406a.7.7,0,1,1-.938,1.039L15.15,48.471a.7.7,0,1,1,.938-1.039Zm-7.129,2.79a.7.7,0,0,1,.7.7v2.1a.7.7,0,0,1-1.4,0v-2.1a.7.7,0,0,1,.7-.7Z" transform="translate(0 -38.5)" fill="#9c9c9c"/>
    </g>
  </g>
</svg>
