<svg xmlns="http://www.w3.org/2000/svg" width="17.919" height="15.224" viewBox="0 0 17.919 15.224">
  <g id="eye" transform="translate(0 -38.5)">
    <g id="Group_45924" data-name="Group 45924" transform="translate(0 38.5)">
      <path id="Path_40859" data-name="Path 40859" d="M17.537,50.9a.7.7,0,0,1-.941-.3h0c-1.073-2.091-3.923-5.09-7.637-5.09-3.331,0-6.291,2.467-7.637,5.09a.7.7,0,0,1-1.246-.639c1.546-3.02,4.947-5.851,8.882-5.851,4.488,0,7.7,3.547,8.882,5.851A.7.7,0,0,1,17.537,50.9ZM.272,43.386l1.559,1.406a.7.7,0,1,0,.938-1.039L1.21,42.346a.7.7,0,1,0-.938,1.039Zm15.816,1.406,1.559-1.406a.7.7,0,1,0-.938-1.039L15.15,43.753a.7.7,0,1,0,.938,1.039ZM8.959,42a.7.7,0,0,0,.7-.7V39.2a.7.7,0,0,0-1.4,0v2.1a.7.7,0,0,0,.7.7ZM12.4,50.28a3.438,3.438,0,1,1-3.438-3.444A3.445,3.445,0,0,1,12.4,50.28Zm-1.4,0a2.039,2.039,0,1,0-2.039,2.044A2.044,2.044,0,0,0,11,50.28Z" transform="translate(0 -38.5)" fill="#9c9c9c"/>
    </g>
  </g>
</svg>
