<svg id="facebook" xmlns="http://www.w3.org/2000/svg" width="10.4" height="19.2" viewBox="0 0 10.4 19.2">
  <g id="_x30_1._Facebook" transform="translate(0 0)">
    <path id="Icon_11_" d="M31.3,20.938H28.907c-.386,0-.507-.144-.507-.5V17.525c0-.384.145-.5.507-.5H31.3V14.906a5.32,5.32,0,0,1,.652-2.715,4,4,0,0,1,2.148-1.778,5.389,5.389,0,0,1,1.858-.312h2.365c.338,0,.483.144.483.481V13.32c0,.336-.145.481-.483.481-.652,0-1.3,0-1.955.024a.869.869,0,0,0-.989.985c-.024.721,0,1.418,0,2.163h2.8c.386,0,.531.144.531.529v2.908c0,.384-.121.5-.531.5h-2.8v7.834c0,.409-.121.553-.555.553H31.8c-.362,0-.507-.144-.507-.5V20.938Z" transform="translate(-28.4 -10.1)" fill="#0d682f"/>
  </g>
</svg>
