<svg xmlns="http://www.w3.org/2000/svg" width="66" height="65.969" viewBox="0 0 66 65.969">
  <g id="Group_76727" data-name="Group 76727" transform="translate(-637.969 -448)">
    <g id="Component_140_10" data-name="Component 140 – 10" transform="translate(637.969 448)">
      <path id="Path_47687" data-name="Path 47687" d="M32.984,0A32.984,32.984,0,1,1,0,32.984,32.984,32.984,0,0,1,32.984,0Z" fill="#eefff4"/>
      <g id="Group_76608" data-name="Group 76608" transform="translate(18.635 17.35)">
        <g id="Group_76423" data-name="Group 76423" transform="translate(0.857 0.857)">
          <g id="Group_76422" data-name="Group 76422">
            <path id="Path_41268" data-name="Path 41268" d="M19.057,29.017a2.063,2.063,0,0,1-2.074,2.038H5.574A2.063,2.063,0,0,1,3.5,29.017V3.538A2.063,2.063,0,0,1,5.574,1.5H16.983a2.063,2.063,0,0,1,2.074,2.038Z" transform="translate(-3.5 -1.5)" fill="#fff"/>
          </g>
        </g>
        <g id="Group_76425" data-name="Group 76425" transform="translate(3.43 3.43)">
          <g id="Group_76424" data-name="Group 76424">
            <path id="Path_41269" data-name="Path 41269" d="M17.984,29.049V3.037A3.388,3.388,0,0,0,17.5,3H5.962A.97.97,0,0,0,5,3.98V29.463a1.933,1.933,0,0,0,.057.45h12.1A4.072,4.072,0,0,1,17.984,29.049Z" transform="translate(-5 -3)" fill="#ffc759"/>
          </g>
        </g>
        <g id="Group_76427" data-name="Group 76427" transform="translate(0 0)">
          <path id="Path_41270" data-name="Path 41270" d="M14.661,32.27H5.332A2.483,2.483,0,0,1,3,29.664V3.606A2.483,2.483,0,0,1,5.332,1h5.6a.5.5,0,0,1,.466.521.5.5,0,0,1-.466.521h-5.6a1.49,1.49,0,0,0-1.4,1.563V29.664a1.49,1.49,0,0,0,1.4,1.563h9.328a.524.524,0,0,1,0,1.042Z" transform="translate(-3 -1)" fill="#0d682f"/>
        </g>
        <g id="Group_76431" data-name="Group 76431" transform="translate(12.285 0.857)">
          <g id="Group_76430" data-name="Group 76430">
            <path id="Path_41271" data-name="Path 41271" d="M29.057,29.017a2.063,2.063,0,0,1-2.074,2.038H15.574A2.063,2.063,0,0,1,13.5,29.017V3.538A2.063,2.063,0,0,1,15.574,1.5H26.983a2.063,2.063,0,0,1,2.074,2.038Z" transform="translate(-13.5 -1.5)" fill="#fff"/>
          </g>
        </g>
        <g id="Group_76618" data-name="Group 76618" transform="translate(13.647 2.178)">
          <g id="Group_76424-2" data-name="Group 76424">
            <path id="Path_41269-2" data-name="Path 41269" d="M17.984,29.049V3.037A3.388,3.388,0,0,0,17.5,3H5.962A.97.97,0,0,0,5,3.98V29.463a1.933,1.933,0,0,0,.057.45h12.1A4.072,4.072,0,0,1,17.984,29.049Z" transform="translate(-5 -3)" fill="#0d682f"/>
          </g>
        </g>
        <g id="Group_76447" data-name="Group 76447" transform="translate(11.428 0)">
          <g id="Group_76446" data-name="Group 76446">
            <path id="Path_41277" data-name="Path 41277" d="M27.573,32.27H15.7A2.656,2.656,0,0,1,13,29.664V3.606A2.656,2.656,0,0,1,15.7,1H27.573a2.656,2.656,0,0,1,2.7,2.606V24.452a.54.54,0,0,1-1.079,0V3.606a1.594,1.594,0,0,0-1.619-1.563H15.7a1.594,1.594,0,0,0-1.619,1.563V29.664A1.594,1.594,0,0,0,15.7,31.228H27.573a1.594,1.594,0,0,0,1.619-1.563v-7.3a.54.54,0,0,1,1.079,0v7.3A2.656,2.656,0,0,1,27.573,32.27Z" transform="translate(-13 -1)" fill="#0d682f"/>
          </g>
        </g>
        <g id="Group_76441" data-name="Group 76441" transform="translate(14.819 3.43)">
          <g id="Group_76440" data-name="Group 76440">
            <g id="Group_76439" data-name="Group 76439">
              <g id="Group_76438" data-name="Group 76438">
                <path id="Path_41275" data-name="Path 41275" d="M25,4.715H19.857a.857.857,0,0,1,0-1.715H25a.857.857,0,1,1,0,1.715Z" transform="translate(-19 -3)" fill="#fff"/>
              </g>
            </g>
          </g>
        </g>
        <g id="Group_76445" data-name="Group 76445" transform="translate(16.709 26.125)">
          <g id="Group_76444" data-name="Group 76444">
            <g id="Group_76443" data-name="Group 76443">
              <g id="Group_76442" data-name="Group 76442">
                <path id="Path_41276" data-name="Path 41276" d="M22.572,29.715H20.857a.857.857,0,1,1,0-1.715h1.715a.857.857,0,0,1,0,1.715Z" transform="translate(-20 -28)" fill="#fff"/>
              </g>
            </g>
          </g>
        </g>
      </g>
    </g>
    <path id="Path_47687-2" data-name="Path 47687" d="M32.984,0A32.984,32.984,0,1,1,0,32.984,32.984,32.984,0,0,1,32.984,0Z" transform="translate(638 448)" fill="#eefff4"/>
    <g id="Group_76608-2" data-name="Group 76608" transform="translate(656.635 465.35)">
      <g id="Group_76423-2" data-name="Group 76423" transform="translate(0.857 0.857)">
        <g id="Group_76422-2" data-name="Group 76422">
          <path id="Path_41268-2" data-name="Path 41268" d="M19.057,29.017a2.063,2.063,0,0,1-2.074,2.038H5.574A2.063,2.063,0,0,1,3.5,29.017V3.538A2.063,2.063,0,0,1,5.574,1.5H16.983a2.063,2.063,0,0,1,2.074,2.038Z" transform="translate(-3.5 -1.5)" fill="#fff"/>
        </g>
      </g>
      <g id="Group_76425-2" data-name="Group 76425" transform="translate(3.43 3.43)">
        <g id="Group_76424-3" data-name="Group 76424">
          <path id="Path_41269-3" data-name="Path 41269" d="M17.984,29.049V3.037A3.388,3.388,0,0,0,17.5,3H5.962A.97.97,0,0,0,5,3.98V29.463a1.933,1.933,0,0,0,.057.45h12.1A4.072,4.072,0,0,1,17.984,29.049Z" transform="translate(-5 -3)" fill="#ffc759"/>
        </g>
      </g>
      <g id="Group_76427-2" data-name="Group 76427" transform="translate(0 0)">
        <path id="Path_41270-2" data-name="Path 41270" d="M14.661,32.27H5.332A2.483,2.483,0,0,1,3,29.664V3.606A2.483,2.483,0,0,1,5.332,1h5.6a.5.5,0,0,1,.466.521.5.5,0,0,1-.466.521h-5.6a1.49,1.49,0,0,0-1.4,1.563V29.664a1.49,1.49,0,0,0,1.4,1.563h9.328a.524.524,0,0,1,0,1.042Z" transform="translate(-3 -1)" fill="#0d682f"/>
      </g>
      <g id="Group_76431-2" data-name="Group 76431" transform="translate(12.285 0.857)">
        <g id="Group_76430-2" data-name="Group 76430">
          <path id="Path_41271-2" data-name="Path 41271" d="M29.057,29.017a2.063,2.063,0,0,1-2.074,2.038H15.574A2.063,2.063,0,0,1,13.5,29.017V3.538A2.063,2.063,0,0,1,15.574,1.5H26.983a2.063,2.063,0,0,1,2.074,2.038Z" transform="translate(-13.5 -1.5)" fill="#fff"/>
        </g>
      </g>
      <g id="Group_76618-2" data-name="Group 76618" transform="translate(13.647 2.178)">
        <g id="Group_76424-4" data-name="Group 76424">
          <path id="Path_41269-4" data-name="Path 41269" d="M17.984,29.049V3.037A3.388,3.388,0,0,0,17.5,3H5.962A.97.97,0,0,0,5,3.98V29.463a1.933,1.933,0,0,0,.057.45h12.1A4.072,4.072,0,0,1,17.984,29.049Z" transform="translate(-5 -3)" fill="#0d682f"/>
        </g>
      </g>
      <g id="Group_76447-2" data-name="Group 76447" transform="translate(11.428 0)">
        <g id="Group_76446-2" data-name="Group 76446">
          <path id="Path_41277-2" data-name="Path 41277" d="M27.573,32.27H15.7A2.656,2.656,0,0,1,13,29.664V3.606A2.656,2.656,0,0,1,15.7,1H27.573a2.656,2.656,0,0,1,2.7,2.606V24.452a.54.54,0,0,1-1.079,0V3.606a1.594,1.594,0,0,0-1.619-1.563H15.7a1.594,1.594,0,0,0-1.619,1.563V29.664A1.594,1.594,0,0,0,15.7,31.228H27.573a1.594,1.594,0,0,0,1.619-1.563v-7.3a.54.54,0,0,1,1.079,0v7.3A2.656,2.656,0,0,1,27.573,32.27Z" transform="translate(-13 -1)" fill="#0d682f"/>
        </g>
      </g>
      <g id="Group_76441-2" data-name="Group 76441" transform="translate(14.819 3.43)">
        <g id="Group_76440-2" data-name="Group 76440">
          <g id="Group_76439-2" data-name="Group 76439">
            <g id="Group_76438-2" data-name="Group 76438">
              <path id="Path_41275-2" data-name="Path 41275" d="M25,4.715H19.857a.857.857,0,0,1,0-1.715H25a.857.857,0,1,1,0,1.715Z" transform="translate(-19 -3)" fill="#fff"/>
            </g>
          </g>
        </g>
      </g>
      <g id="Group_76445-2" data-name="Group 76445" transform="translate(16.709 26.125)">
        <g id="Group_76444-2" data-name="Group 76444">
          <g id="Group_76443-2" data-name="Group 76443">
            <g id="Group_76442-2" data-name="Group 76442">
              <path id="Path_41276-2" data-name="Path 41276" d="M22.572,29.715H20.857a.857.857,0,1,1,0-1.715h1.715a.857.857,0,0,1,0,1.715Z" transform="translate(-20 -28)" fill="#fff"/>
            </g>
          </g>
        </g>
      </g>
    </g>
  </g>
</svg>
