<svg id="Group_76918" data-name="Group 76918" xmlns="http://www.w3.org/2000/svg" width="10.617" height="23.857" viewBox="0 0 10.617 23.857">
  <path id="Path_41104" data-name="Path 41104" d="M169.663,116.121c-.017,1.321-.914,1.251-1.539,1.679-1.144.782-2.241,2.486-1.464,6.912.265,1.5,2.473,6.707,5.188,6.33,1.694-.422,1.948.679,2.363,1.306,1.082,1.569,1.439,2.5.132,3.79a5.33,5.33,0,0,0,1.247-.372c2.448-1.1,1.234-2.715.112-4.339-1.289-1.988-2.018-2.453-3.6-2.118-.729.387-2.3-1-3.153-3.05a13.07,13.07,0,0,1-.47-1.331,12.426,12.426,0,0,1-.322-1.369c-.38-2.163.22-4.084,1.062-4.082,1.556-.435,1.936-1.169,1.966-3.48.08-1.854.19-3.864-2.473-3.707a6.02,6.02,0,0,0-2.133.575,4.765,4.765,0,0,1,.64-.082C169.877,112.623,169.743,114.267,169.663,116.121Z" transform="translate(-166.399 -112.28)" fill="#0d682f" fill-rule="evenodd"/>
</svg>
