<svg xmlns="http://www.w3.org/2000/svg" xmlns:xlink="http://www.w3.org/1999/xlink" width="55" height="55" viewBox="0 0 55 55">
  <defs>
    <filter id="Ellipse_1532" x="0" y="0" width="55" height="55" filterUnits="userSpaceOnUse">
      <feOffset input="SourceAlpha"/>
      <feGaussianBlur stdDeviation="2.5" result="blur"/>
      <feFlood flood-color="#303030" flood-opacity="0.098"/>
      <feComposite operator="in" in2="blur"/>
      <feComposite in="SourceGraphic"/>
    </filter>
  </defs>
  <g id="Group_76291" data-name="Group 76291" transform="translate(-1138.5 -2776.033)">
    <g transform="matrix(1, 0, 0, 1, 1138.5, 2776.03)" filter="url(#Ellipse_1532)">
      <circle id="Ellipse_1532-2" data-name="Ellipse 1532" cx="20" cy="20" r="20" transform="translate(7.5 7.5)" fill="#fff"/>
    </g>
    <g id="Group_46061" data-name="Group 46061" transform="translate(1159.073 2791.663)">
      <path id="Path_41103" data-name="Path 41103" d="M121.15,126.187a17.928,17.928,0,0,0,4.194,7.564,8.8,8.8,0,0,0,4.926,2.461,6.477,6.477,0,0,0,3.16-.447c2.448-1.1,1.234-2.715.112-4.339-1.289-1.988-2.018-2.453-3.6-2.118-.729.387-2.3-1-3.153-3.05a13.076,13.076,0,0,1-.47-1.331,12.425,12.425,0,0,1-.322-1.369c-.38-2.163.22-4.084,1.062-4.082,1.556-.435,1.936-1.169,1.966-3.48.08-1.854.19-3.864-2.473-3.707a6.317,6.317,0,0,0-2.983,1.054,7.724,7.724,0,0,0-2.92,4.379A16.89,16.89,0,0,0,121.15,126.187Z" transform="translate(-120.314 -112.279)" fill="#18a34c" fill-rule="evenodd"/>
    </g>
    <g id="Group_46062" data-name="Group 46062" transform="translate(1162.997 2791.663)">
      <path id="Path_41104" data-name="Path 41104" d="M169.663,116.121c-.017,1.321-.914,1.251-1.539,1.679-1.144.782-2.241,2.486-1.464,6.912.265,1.5,2.473,6.707,5.188,6.33,1.694-.422,1.948.679,2.363,1.306,1.082,1.569,1.439,2.5.132,3.79a5.33,5.33,0,0,0,1.247-.372c2.448-1.1,1.234-2.715.112-4.339-1.289-1.988-2.018-2.453-3.6-2.118-.729.387-2.3-1-3.153-3.05a13.07,13.07,0,0,1-.47-1.331,12.426,12.426,0,0,1-.322-1.369c-.38-2.163.22-4.084,1.062-4.082,1.556-.435,1.936-1.169,1.966-3.48.08-1.854.19-3.864-2.473-3.707a6.02,6.02,0,0,0-2.133.575,4.765,4.765,0,0,1,.64-.082C169.877,112.623,169.743,114.267,169.663,116.121Z" transform="translate(-166.399 -112.28)" fill="#0d682f" fill-rule="evenodd"/>
    </g>
  </g>
</svg>
