<svg xmlns="http://www.w3.org/2000/svg" width="65" height="65" viewBox="0 0 65 65">
  <g id="Group_76707" data-name="Group 76707" transform="translate(0.027)">
    <circle id="Ellipse_1528" data-name="Ellipse 1528" cx="32.5" cy="32.5" r="32.5" transform="translate(-0.027)" fill="#eefff4"/>
    <g id="stores" transform="translate(19.345 19.354)">
      <g id="g4304" transform="translate(0 0)">
        <path id="path4285" d="M45.208,162.445a1.969,1.969,0,0,0-1.96,1.96.824.824,0,0,1-.832.832.564.564,0,0,0-.564.564v11.169a3.362,3.362,0,0,0,3.356,3.356H61.962a3.362,3.362,0,0,0,3.357-3.356V165.8a.564.564,0,0,0-.564-.564.824.824,0,0,1-.832-.832,1.96,1.96,0,1,0-3.921,0h0a.832.832,0,0,1-1.664,0,1.96,1.96,0,1,0-3.921,0,.832.832,0,0,1-1.664,0h0a1.96,1.96,0,1,0-3.921,0,.832.832,0,1,1-1.664,0A1.969,1.969,0,0,0,45.208,162.445Z" transform="translate(-40.47 -154.068)" fill="#ffc759" fill-rule="evenodd"/>
        <path id="path4291" d="M179.921,271.334a1.969,1.969,0,0,0-1.96,1.96v6.981a.564.564,0,1,0,1.128,0v-6.981a.823.823,0,0,1,.832-.832h5.585a.824.824,0,0,1,.832.832v6.981a.564.564,0,1,0,1.128,0v-6.981a1.969,1.969,0,0,0-1.96-1.96Z" transform="translate(-169.598 -257.372)" fill="#fff" fill-rule="evenodd"/>
        <g id="Group_76453" data-name="Group 76453">
          <path id="path4294" d="M19.657-.889A2.826,2.826,0,0,0,17.132.672L15.588,3.759a6.479,6.479,0,0,0-.684,2.9V9.448a1.96,1.96,0,0,0,3.921,0,.832.832,0,0,1,1.664,0,1.96,1.96,0,1,0,3.921,0,.832.832,0,0,1,1.664,0,1.96,1.96,0,0,0,3.921,0h0a.832.832,0,0,1,1.664,0,1.96,1.96,0,1,0,3.921,0,.832.832,0,0,1,1.664,0,1.96,1.96,0,1,0,3.921,0h0V6.656a6.479,6.479,0,0,0-.684-2.9L38.936.672A2.826,2.826,0,0,0,36.411-.889Z" transform="translate(-14.904 0.889)" fill="#0d682f" fill-rule="evenodd"/>
        </g>
      </g>
    </g>
  </g>
</svg>
