<svg id="Group_76704" data-name="Group 76704" xmlns="http://www.w3.org/2000/svg" width="64.695" height="64.695" viewBox="0 0 64.695 64.695">
  <g id="Group_76414" data-name="Group 76414" transform="translate(0 0)">
    <path id="Path_41320" data-name="Path 41320" d="M32.348,0A32.348,32.348,0,1,1,0,32.348,32.348,32.348,0,0,1,32.348,0Z" fill="#fff8e9"/>
    <g id="Group_76912" data-name="Group 76912">
      <g id="vehicles_1_" data-name="vehicles (1)" transform="translate(14.77 20.627)">
        <path id="Path_47691" data-name="Path 47691" d="M51.1,109.2c-.264-2.96-.7-3.537-.862-3.754a4.786,4.786,0,0,0-1.62-1.172.264.264,0,0,1-.067-.416,1.167,1.167,0,0,0,.332-.918,1.192,1.192,0,0,0-1.2-1.082H46.54a1.244,1.244,0,0,0-.147.01.622.622,0,0,0-.1-.034c-.677-1.431-1.6-3.389-3.524-4.345C39.918,96.073,34.67,96,33.644,96s-6.273.073-9.119,1.488c-1.921.956-2.847,2.915-3.524,4.345l-.006.012a.478.478,0,0,0-.1.025,1.244,1.244,0,0,0-.147-.01H19.605a1.192,1.192,0,0,0-1.2,1.082,1.167,1.167,0,0,0,.336.913.264.264,0,0,1-.067.416,4.816,4.816,0,0,0-1.62,1.172c-.164.22-.6.793-.862,3.753a26.312,26.312,0,0,0-.053,4.5,19.665,19.665,0,0,0,.712,3.76,1.172,1.172,0,0,0,.967.8v.015a1.172,1.172,0,0,0,1.172,1.172h4.1a1.172,1.172,0,0,0,1.172-1.172,5.592,5.592,0,0,0,1.535-.233,11.634,11.634,0,0,1,2.051-.36c2.235-.213,4.457-.286,5.791-.286,1.307,0,3.628.073,5.866.286a11.658,11.658,0,0,1,2.059.361,5.825,5.825,0,0,0,1.453.231,1.172,1.172,0,0,0,1.172,1.172h4.1a1.172,1.172,0,0,0,1.172-1.172v-.009a1.172,1.172,0,0,0,.97-.8,19.665,19.665,0,0,0,.712-3.76,26.172,26.172,0,0,0-.053-4.5ZM23.12,102.835c.586-1.245,1.256-2.655,2.45-3.249,1.724-.859,5.3-1.245,8.075-1.245s6.35.384,8.075,1.245c1.193.594,1.861,2,2.45,3.249l.073.159a.586.586,0,0,1-.545.837c-2.434-.066-7.562-.277-10.053-.277s-7.618.216-10.056.282a.586.586,0,0,1-.545-.837c.026-.054.053-.109.077-.164Zm.874,5.833a31.291,31.291,0,0,1-3.8.224c-.776,0-1.577-.22-1.726-.911a2.164,2.164,0,0,1-.036-.99c.046-.223.119-.386.486-.443a6.255,6.255,0,0,1,3.044.5,7.079,7.079,0,0,1,2.2,1.03A.347.347,0,0,1,23.994,108.668Zm16.217,6.007c-.964.11-2.892.07-6.544.07s-5.58.04-6.544-.07c-.995-.111-2.263-1.051-1.4-1.889a7.314,7.314,0,0,1,3.712-1.2,27.022,27.022,0,0,1,4.221-.352,22.857,22.857,0,0,1,4.221.352c1.868.279,3.28.7,3.712,1.2.79.9-.388,1.772-1.382,1.893Zm8.607-6.695c-.147.694-.952.911-1.726.911a33.43,33.43,0,0,1-3.878-.225c-.216-.02-.32-.414-.093-.592a6.845,6.845,0,0,1,2.2-1.03,7.106,7.106,0,0,1,3.23-.49.421.421,0,0,1,.3.366,2.977,2.977,0,0,1-.036,1.061Z" transform="translate(-16.068 -96)" fill="#ffc759"/>
      </g>
      <g id="vehicles_1_2" data-name="vehicles (1)" transform="translate(16.081 20.627)">
        <path id="Path_47691-2" data-name="Path 47691" d="M51.1,109.2c-.264-2.96-.7-3.537-.862-3.754a4.786,4.786,0,0,0-1.62-1.172.264.264,0,0,1-.067-.416,1.167,1.167,0,0,0,.332-.918,1.192,1.192,0,0,0-1.2-1.082H46.54a1.244,1.244,0,0,0-.147.01.622.622,0,0,0-.1-.034c-.677-1.431-1.6-3.389-3.524-4.345C39.918,96.073,34.67,96,33.644,96s-6.273.073-9.119,1.488c-1.921.956-2.847,2.915-3.524,4.345l-.006.012a.478.478,0,0,0-.1.025,1.244,1.244,0,0,0-.147-.01H19.605a1.192,1.192,0,0,0-1.2,1.082,1.167,1.167,0,0,0,.336.913.264.264,0,0,1-.067.416,4.816,4.816,0,0,0-1.62,1.172c-.164.22-.6.793-.862,3.753a26.312,26.312,0,0,0-.053,4.5,19.665,19.665,0,0,0,.712,3.76,1.172,1.172,0,0,0,.967.8v.015a1.172,1.172,0,0,0,1.172,1.172h4.1a1.172,1.172,0,0,0,1.172-1.172,5.592,5.592,0,0,0,1.535-.233,11.634,11.634,0,0,1,2.051-.36c2.235-.213,4.457-.286,5.791-.286,1.307,0,3.628.073,5.866.286a11.658,11.658,0,0,1,2.059.361,5.825,5.825,0,0,0,1.453.231,1.172,1.172,0,0,0,1.172,1.172h4.1a1.172,1.172,0,0,0,1.172-1.172v-.009a1.172,1.172,0,0,0,.97-.8,19.665,19.665,0,0,0,.712-3.76,26.172,26.172,0,0,0-.053-4.5ZM23.12,102.835c.586-1.245,1.256-2.655,2.45-3.249,1.724-.859,5.3-1.245,8.075-1.245s6.35.384,8.075,1.245c1.193.594,1.861,2,2.45,3.249l.073.159a.586.586,0,0,1-.545.837c-2.434-.066-7.562-.277-10.053-.277s-7.618.216-10.056.282a.586.586,0,0,1-.545-.837c.026-.054.053-.109.077-.164Zm.874,5.833a31.291,31.291,0,0,1-3.8.224c-.776,0-1.577-.22-1.726-.911a2.164,2.164,0,0,1-.036-.99c.046-.223.119-.386.486-.443a6.255,6.255,0,0,1,3.044.5,7.079,7.079,0,0,1,2.2,1.03A.347.347,0,0,1,23.994,108.668Zm16.217,6.007c-.964.11-2.892.07-6.544.07s-5.58.04-6.544-.07c-.995-.111-2.263-1.051-1.4-1.889a7.314,7.314,0,0,1,3.712-1.2,27.022,27.022,0,0,1,4.221-.352,22.857,22.857,0,0,1,4.221.352c1.868.279,3.28.7,3.712,1.2.79.9-.388,1.772-1.382,1.893Zm8.607-6.695c-.147.694-.952.911-1.726.911a33.43,33.43,0,0,1-3.878-.225c-.216-.02-.32-.414-.093-.592a6.845,6.845,0,0,1,2.2-1.03,7.106,7.106,0,0,1,3.23-.49.421.421,0,0,1,.3.366,2.977,2.977,0,0,1-.036,1.061Z" transform="translate(-16.068 -96)" fill="#0d682f"/>
      </g>
    </g>
  </g>
</svg>
