<svg xmlns="http://www.w3.org/2000/svg" width="48" height="48" viewBox="0 0 48 48">
  <g id="Group_76915" data-name="Group 76915" transform="translate(-70 -210)">
    <circle id="Ellipse_1527" data-name="Ellipse 1527" cx="24" cy="24" r="24" transform="translate(70 210)" fill="#eefff4"/>
    <g id="notifications" transform="translate(81.854 221.941)">
      <g id="ak" transform="translate(3.292 3)">
        <g id="Group_45687" data-name="Group 45687">
          <path id="Path_39418" data-name="Path 39418" d="M20.971,16.59l-1.9-8.166A6.293,6.293,0,0,0,12.856,3H11.439a6.272,6.272,0,0,0-6.2,5.36L3.311,16.653a2.091,2.091,0,0,0,2.072,2.373h13.53a2.1,2.1,0,0,0,2.059-2.437Z" transform="translate(-3.292 -3)" fill="#0d682f"/>
          <path id="Path_39419" data-name="Path 39419" d="M16.685,27H13.2a.7.7,0,0,0,0,1.394h3.484A.7.7,0,0,0,16.685,27Z" transform="translate(-6.088 -10.276)" fill="#0d682f"/>
        </g>
      </g>
    </g>
  </g>
</svg>
