<svg xmlns="http://www.w3.org/2000/svg" width="67.315" height="65.969" viewBox="0 0 67.315 65.969">
  <g id="Group_76710" data-name="Group 76710" transform="translate(-10.774)">
    <g id="Group_45992" data-name="Group 45992" transform="translate(10.774 0)">
      <path id="Path_47694" data-name="Path 47694" d="M33.658,0C52.246,0,67.315,14.768,67.315,32.984S52.246,65.969,33.658,65.969,0,51.2,0,32.984,15.069,0,33.658,0Z" transform="translate(0)" fill="#fff8e9"/>
      <g id="realestates" transform="translate(15.756 19.337)">
        <g id="Group_76617" data-name="Group 76617">
          <g id="Group_76616" data-name="Group 76616">
            <path id="Path_47689" data-name="Path 47689" d="M1.557,16.884l14.993-.595L25.673,5.752l8.72,13.065,1.714-.246L25.85,4,15.376,5.944V4.082L14.512,3.9l-2.6.549V6.585l-3.492.648L0,14.881V16.9S.861,16.874,1.557,16.884Z" transform="translate(0 -3.904)" fill="#ffc759"/>
            <path id="Path_47690" data-name="Path 47690" d="M25.338,6.342,16.533,16.515l-14.378.572V29.3l13.21,1.586v0l8.258-.964V20.411l3.8-.006v9.073l6.088-.746V18.589ZM7.764,25.486l-3.828-.247V20.353l3.828,0Zm6.472.39-4.451-.285V20.333h4.451Zm7.513-.228-4.7.308V20.383l4.7,0Zm10.663-.668-3.549.234V20.391l3.549,0Z" transform="translate(0.277 -3.591)" fill="#0d682f"/>
          </g>
        </g>
      </g>
    </g>
  </g>
</svg>
