<svg xmlns="http://www.w3.org/2000/svg" width="222.404" height="128.319" viewBox="0 0 222.404 128.319">
  <g id="i1" transform="translate(0 -29.028)">
    <path id="Path_41160" data-name="Path 41160" d="M51.2,182.249h58.91L104.391,122.6l-27.6-5.356Z" transform="translate(-14.282 -32.549)" fill="#db5858"/>
    <path id="Path_41161" data-name="Path 41161" d="M114.484,155.582A73.038,73.038,0,0,1,117.3,182.25h2.6l-5.719-59.643-27.594-5.352-.307.783C97.973,122.965,109.128,137.08,114.484,155.582Z" transform="translate(-24.068 -32.551)" fill="#d44242"/>
    <path id="Path_41162" data-name="Path 41162" d="M31.74,182.268H72.388l-1.023-64.949-39.039,2.762Z" transform="translate(-8.854 -32.569)" fill="#ffc759"/>
    <path id="Path_41163" data-name="Path 41163" d="M56.942,183.319l-5.558-1.351L41.791,200.3H57.375Z" transform="translate(-11.658 -50.603)" fill="#0d682f"/>
    <path id="Path_41164" data-name="Path 41164" d="M74.548,149.573c3.259,12.1,4.186,23.64,3.057,32.689h2.64l-1.019-64.949-19.32,1.369C65.764,125.963,71.116,136.856,74.548,149.573Z" transform="translate(-16.711 -32.567)" fill="#db5858"/>
    <g id="Group_76268" data-name="Group 76268" transform="translate(23.733 85.045)" opacity="0.44">
      <path id="Path_41165" data-name="Path 41165" d="M49.113,152.729l-16.2-32.361.354-.172,15.888,31.72,21.783-34.188.329.211Z" transform="translate(-32.914 -117.728)" fill="#1d1e62" opacity="0.44"/>
    </g>
    <g id="Group_76269" data-name="Group 76269" transform="translate(23.358 118.973)" opacity="0.44">
      <path id="Path_41166" data-name="Path 41166" d="M49.01,164.781l23.358,30.512-.324.151L49.1,165.492,32.756,195.4l-.362-.185Z" transform="translate(-32.394 -164.781)" fill="#1d1e62" opacity="0.44"/>
    </g>
    <path id="Path_41167" data-name="Path 41167" d="M56.469,182.858l-2.345-1.772-8.893,18.97H55.45Z" transform="translate(-12.617 -50.357)" fill="#f2922a"/>
    <path id="Path_41168" data-name="Path 41168" d="M46.443,181.086H19.064L17.7,200.056H45.074Z" transform="translate(-4.936 -50.357)" fill="#f7aa43"/>
    <path id="Path_41169" data-name="Path 41169" d="M101.732,195.458H90.741v6.594h10.991Z" transform="translate(-25.312 -54.366)" fill="#d44242"/>
    <path id="Path_41170" data-name="Path 41170" d="M31.937,183.264H20.947l-.4,4.063H31.537Z" transform="translate(-5.733 -50.964)" fill="#ffc47d"/>
    <path id="Path_41171" data-name="Path 41171" d="M100.03,191.16H90.741v1.9h9.289Z" transform="translate(-25.312 -53.167)" fill="#ffc759"/>
    <path id="Path_41172" data-name="Path 41172" d="M45.067,199.74l-12.814-9.26-14.46,9.193-.215-.337L31.9,190.228l-13.134-9.5.236-.324L32.27,190l14.346-9.125,2.164,4.754-.526,11.832Zm-12.452-9.491,12.452,9,2.8-2,.514-11.542-1.933-4.249Z" transform="translate(-4.903 -50.167)" fill="#d35d33"/>
    <path id="Path_41173" data-name="Path 41173" d="M104.44,182.8h19.038l-2.847-29.7-2.86-29.822-18.6-3.608v57.858A5.272,5.272,0,0,0,104.44,182.8Z" transform="translate(-27.663 -33.225)" fill="#843131" opacity="0.6"/>
    <path id="Path_41174" data-name="Path 41174" d="M152.66,78.278a5.262,5.262,0,0,0-1.449-3.659,4.537,4.537,0,0,0-3.453-1.411H105.2c-2.876.122-5.141,4.316-5.141,7.192v83.754a5.681,5.681,0,0,0,5.68,5.681h42.585a4.506,4.506,0,0,0,4.328-4.666V78.278Z" transform="translate(-27.912 -20.263)" fill="#514e4a"/>
    <path id="Path_41175" data-name="Path 41175" d="M157.46,78.278a5.262,5.262,0,0,0-1.449-3.659,4.535,4.535,0,0,0-3.452-1.411L110,75.036a5.37,5.37,0,0,0-5.142,5.369v83.755a5.681,5.681,0,0,0,5.68,5.68h42.585a4.505,4.505,0,0,0,4.328-4.665v-86.9Z" transform="translate(-29.251 -20.263)" fill="#726e68"/>
    <path id="Path_41176" data-name="Path 41176" d="M157.46,78.278a5.262,5.262,0,0,0-1.449-3.659,4.535,4.535,0,0,0-3.452-1.411H110c-2.876.122-5.142,4.316-5.142,7.192v83.754a5.681,5.681,0,0,0,5.68,5.681h42.585a4.506,4.506,0,0,0,4.328-4.666V78.278Z" transform="translate(-29.251 -20.263)" fill="#726e68"/>
    <path id="Path_41177" data-name="Path 41177" d="M157.679,83.471V79.563a5.16,5.16,0,0,0-1.419-3.583,4.423,4.423,0,0,0-3.381-1.381H133.551l-26,92.72a5.541,5.541,0,0,0,4.186,1.908h21.9Z" transform="translate(-30.001 -20.651)" fill="#8c857c"/>
    <path id="Path_41178" data-name="Path 41178" d="M157.114,77.613H144.38l-1.617,3.537H124.951l-1.617-3.537H105.99a8.834,8.834,0,0,0-1.133,4.017v83.755c0,.089.008.177.012.265h52.59V79.508A5.424,5.424,0,0,0,157.114,77.613Z" transform="translate(-29.25 -21.493)" fill="#eefff4"/>
    <path id="Path_41179" data-name="Path 41179" d="M157.46,91.87V79.506a5.432,5.432,0,0,0-.345-1.9H144.381l-1.617,3.537h-9.749l-28.154,70.529v13.71c0,.089.009.177.013.265H128.01Z" transform="translate(-29.251 -21.491)" fill="#b6dac4"/>
    <path id="Path_41180" data-name="Path 41180" d="M105.27,77.613h-1.634A8.843,8.843,0,0,0,102.5,81.63v83.755c0,.089.009.177.013.265h2.749V77.613Z" transform="translate(-28.593 -21.493)" fill="#0d682f"/>
    <path id="Path_41181" data-name="Path 41181" d="M173.593,78.746v86.4h2.32V80.607a5.315,5.315,0,0,0-.337-1.861Z" transform="translate(-48.424 -21.809)" fill="#98f0f9"/>
    <path id="Path_41182" data-name="Path 41182" d="M123.023,78.145l1.672,3.537h17.4l1.671-3.537h13.083a5.6,5.6,0,0,0-.2-.695h-12.89l-1.617,3.537H124.485l-1.617-3.537H103.527q-.183.341-.341.695Z" transform="translate(-28.784 -21.447)" fill="#514e4a"/>
    <path id="Path_41183" data-name="Path 41183" d="M101.516,198.973v.539c0,.089.009.177.013.265h54.994v-.8Z" transform="translate(-28.318 -55.346)" fill="#514e4a"/>
    <path id="Path_41184" data-name="Path 41184" d="M148.991,138.351l-30.668-.283,14.465,7.955Z" transform="translate(-33.006 -38.357)" fill="#fff"/>
    <path id="Path_41185" data-name="Path 41185" d="M130.714,146.844l-.143-.092.038-.017L117.66,139.61,116.6,156.921Z" transform="translate(-32.524 -38.787)" fill="#fff"/>
    <path id="Path_41186" data-name="Path 41186" d="M132.324,149.6l-15.758,11.239-.012.24,32.479-.5,0-.2Z" transform="translate(-32.513 -41.572)" fill="#fff"/>
    <path id="Path_41187" data-name="Path 41187" d="M155.588,156.4l-.19-16.384-15.311,6.851.063.034-.068.042Z" transform="translate(-39.076 -38.899)" fill="#fff"/>
    <path id="Path_41188" data-name="Path 41188" d="M158.239,101.712a172.36,172.36,0,0,0-6.114-26.706c0-.013-.009-.029-.012-.042-.19-.59-.4-1.175-.6-1.76h-40.9a82.86,82.86,0,0,1,9.563,32.534Z" transform="translate(-30.855 -20.263)" fill="#0d682f" opacity="0.6"/>
    <path id="Path_41189" data-name="Path 41189" d="M148.047,40.039,109.9,49.5c6.864,9.142,15.143,21.69,18.09,41.014L165.7,83.916S159.606,53.981,148.047,40.039Z" transform="translate(-30.656 -11.011)" fill="#f4e9b8"/>
    <path id="Path_41190" data-name="Path 41190" d="M139.583,57.417a105.987,105.987,0,0,1,19.282,3.04c-2.783-7.432-6.4-15.092-10.818-20.419L109.9,49.5c2,2.657,4.106,5.6,6.174,8.914A102.377,102.377,0,0,1,139.583,57.417Z" transform="translate(-30.656 -11.011)" fill="#fffbcf"/>
    <path id="Path_41191" data-name="Path 41191" d="M131.023,59.457a4.618,4.618,0,0,1,3.07,2.329c1.069,1.76-1.019,2.514-1.811,2.741s-2.648.867-3.028.977c-.324.093-.446-.025-.531-.164-.126-.206-.172-.286-.345-.568-.147-.244-.859-1.579-1.208-2.164s-1.621-2.594-1.95-3.137-.817-1.621-1.01-1.945-.636-.943-.771-1.162c-.084-.143.025-.206.151-.24.072-.021.164-.034.219-.046.156-.046.379-.168.648-.248.354-.1.505-.1,1.975-.522a3.186,3.186,0,0,1,3.95,1.529,1.5,1.5,0,0,1-.13,1.924,3.1,3.1,0,0,1-.884.682A4.212,4.212,0,0,1,131.023,59.457Zm-6.148-1.562c.156.261.636,1.158.729,1.314.118.194.172.177.4.114s.686-.152,1.015-.248c.3-.084.724-.253,1.221-.4s1.3-.463.745-1.373c-.518-.855-1.671-.918-2.682-.779a8.318,8.318,0,0,0-1.208.257c-.227.063-.459.147-.707.236l.169.333C124.665,57.545,124.791,57.751,124.875,57.894Zm7.542,4.114a2.92,2.92,0,0,0-2.737-1.449c-.35.055-2.442.522-2.6.564-.324.093-.316.135-.244.253.084.143.211.32.476.762s.451.83.665,1.179.434.741.535.91c.118.194.181.189.282.164l.75-.185c.5-.131,1.238-.236,1.815-.4S133.15,63.213,132.417,62.008Z" transform="translate(-34.425 -15.219)" fill="#0d682f"/>
    <path id="Path_41192" data-name="Path 41192" d="M134.407,53.964c-.252-.417-.177-.543-.021-.585a.426.426,0,0,1,.122-.021c.249-.055.691-.227,1.124-.307.257-.042.367,0,.438.118.046.076.076.177.13.295a20.292,20.292,0,0,0,1.2,2.316c.19.341.409.7.615,1.04.556.918,1.086,1.739,1.221,1.962s.679,1.036.96,1.5a2.133,2.133,0,0,1,.168.3,2.144,2.144,0,0,0,.169.3c.219.362.577.9.7,1.095.164.24-.055.32-.274.366l-1.289.371c-.316.105-.434-.088-.581-.3-.169-.194-.307-.674-.581-1.124-.291-.48-1.474-2.788-1.684-3.137S135.586,56,135.4,55.695c-.092-.156-.261-.459-.4-.707l-.257-.476Z" transform="translate(-37.447 -14.636)" fill="#0d682f"/>
    <path id="Path_41193" data-name="Path 41193" d="M150.327,58.695l.03-.008c.156-.046.148.051.2.139s.211.291.3.446-.105.181-.332.248-1.727.362-2.219.5-3.268,1.078-3.508,1.145a.381.381,0,0,1-.467-.168l-.611-1.011c-.282-.467-2.32-3.941-2.573-4.358s-1.958-2.981-2.177-3.343c-.1-.168-.063-.24.05-.274.143-.042.371-.017.556-.067a7.967,7.967,0,0,0,.981-.219,5.392,5.392,0,0,0,.7-.248c.526-.227.513.189.7.5.135.219.96,1.748,1.306,2.316s1.659,2.657,1.806,2.9.7,1.2.83,1.419c.029.051.08.16.143.261.071.118.156.227.236.358l.3.446,2.063-.518Z" transform="translate(-38.751 -14.184)" fill="#0d682f"/>
    <path id="Path_41194" data-name="Path 41194" d="M161.855,56.113a.756.756,0,0,0,.055.059c.055.088-.038.131-.261.2-.27.076-2.316.619-2.809.762-.408.118-1.692.577-2.257.741-.114.034-.206.042-.248.055a2.314,2.314,0,0,0-.333.08c-.353.1-.817.265-1.057.337-.312.088-.294-.021-.446-.265-.126-.206-1.141-2.046-1.318-2.345-.156-.261-.762-1.12-1.019-1.545.379.623-1.133-2.2-1.36-2.577l-.9-1.461c-.071-.118-.421-.64-.531-.821l-.008-.013c-.093-.156.172-.156.3-.194s.219-.046.544-.143l.126-.038c.055-.017.092-.013.147.08.071.118,1.322,2.375,1.55,2.75l1.108,1.857c.126.206.522.808.758,1.2a2.979,2.979,0,0,1,.19.341,1.2,1.2,0,0,0,.143.232c.025.038.034.05.055.059l.353-.072a6.827,6.827,0,0,0,.758-.2c.51-.147,2.077-.627,2.6-.779s1.971-.505,2.181-.568c.135-.025.177,0,.2.034s.025.1.059.152l.362.6C160.962,54.913,161.766,55.97,161.855,56.113Z" transform="translate(-41.659 -13.493)" fill="#0d682f"/>
    <path id="Path_41195" data-name="Path 41195" d="M160.084,67.42l-27.569,6.605.324,1.351,27.569-6.605Z" transform="translate(-36.965 -18.649)" fill="#0d682f"/>
    <path id="Path_41196" data-name="Path 41196" d="M156.1,75.734l-21.065,5.043.324,1.351,21.065-5.043Z" transform="translate(-37.669 -20.968)" fill="#0d682f"/>
    <path id="Path_41197" data-name="Path 41197" d="M163.158,78.817,136.5,85.454l.335,1.348,26.659-6.637Z" transform="translate(-38.077 -21.828)" fill="#0d682f"/>
    <path id="Path_41198" data-name="Path 41198" d="M162.556,94.386,140.065,99.4l.3,1.356,22.491-5.012Z" transform="translate(-39.071 -26.172)" fill="#0d682f"/>
    <path id="Path_41201" data-name="Path 41201" d="M23.2,121.734l-1.983,10.447c7.42-.783,12.275-.1,18.317,2.847l1.828-7.756C35.664,123.566,30.257,122.219,23.2,121.734Z" transform="translate(-5.918 -33.8)" fill="#c4c42c"/>
    <path id="Path_41202" data-name="Path 41202" d="M72.813,87.74,64.754,95.2c3.487,6.455,6.935,9.58,12.763,12.633l6.266-5.335C78.056,98.52,75.294,94.654,72.813,87.74Z" transform="translate(-18.063 -24.317)" fill="#c4c42c"/>
    <path id="Path_41203" data-name="Path 41203" d="M79.482,70.9l5.5,9.066a33.757,33.757,0,0,0,16.237-9.049l-3.8-6.948C92,68.593,87.676,70.235,79.482,70.9Z" transform="translate(-22.172 -17.686)" fill="#c4c42c"/>
    <path id="Path_41204" data-name="Path 41204" d="M33.417,78.079l-.375,10.4c7.087.1,11.428-.568,18.229-3.436l1.086-9.656C45.191,78.029,40.66,79.2,33.417,78.079Z" transform="translate(-9.217 -20.872)" fill="#c4c42c"/>
    <path id="Path_41205" data-name="Path 41205" d="M45.37,78.792c.7-.4,1.4-.762,2.1-1.091a29.093,29.093,0,0,1-14.06,1.023l-.375,10.4c1.044.013,2.021.008,2.965-.013C36.688,85.79,40.208,81.739,45.37,78.792Z" transform="translate(-9.216 -21.517)" fill="#a8a41d"/>
    <path id="Path_41206" data-name="Path 41206" d="M48.237,83.892c-.539-1.364-2.367-1.95-4.08-1.305s-2.666,2.274-2.127,3.638,2.367,1.95,4.08,1.305S48.776,85.257,48.237,83.892Z" transform="translate(-11.682 -22.807)" fill="#d8d432"/>
    <path id="Path_41207" data-name="Path 41207" d="M38.409,127.768c-.539-1.364-2.366-1.95-4.08-1.305s-2.666,2.274-2.127,3.638,2.367,1.95,4.08,1.305S38.948,129.132,38.409,127.768Z" transform="translate(-8.941 -35.046)" fill="#d8d432"/>
    <path id="Path_41208" data-name="Path 41208" d="M98.2,73.964c-.539-1.364-2.367-1.95-4.081-1.305S91.458,74.933,92,76.3s2.367,1.95,4.08,1.305S98.743,75.329,98.2,73.964Z" transform="translate(-25.621 -20.038)" fill="#d8d432"/>
    <path id="Path_41209" data-name="Path 41209" d="M78.025,105.9a2.828,2.828,0,0,0-.24-4.11,3.179,3.179,0,0,0-4.3-.371,2.827,2.827,0,0,0,.24,4.11A3.18,3.18,0,0,0,78.025,105.9Z" transform="translate(-20.281 -27.944)" fill="#d8d432"/>
    <g id="Group_76270" data-name="Group 76270" transform="translate(86.228 76.865)" opacity="0.6">
      <path id="Path_41210" data-name="Path 41210" d="M139.693,106.444a1,1,0,0,0-1.242.489.122.122,0,0,0-.017.037,4.81,4.81,0,0,0-.24,3.677.013.013,0,0,0,0,.008,4.1,4.1,0,0,0,.164.421.2.2,0,0,0,.021.038c.059.126.118.252.19.375a.794.794,0,0,0,.046.071c.063.11.131.219.2.32.025.034.055.067.08.105.067.088.135.181.206.265.038.046.084.088.126.135.063.071.126.143.2.211.055.05.113.1.172.151s.122.11.19.164.164.118.248.177c.05.034.1.071.148.105.139.089.282.168.429.244l.864.433-.434,1.137-3.954,10.367L130.7,142.136l-2.109,5.529-2.253,5.912-1.078-.488a4.226,4.226,0,0,0-2.147-.354,4.18,4.18,0,0,0-.518.084c-.012,0-.029,0-.042.009a4.1,4.1,0,0,0-.989.366l-.05.025a3.939,3.939,0,0,0-.388.236l-.08.055a4.345,4.345,0,0,0-.754.69c-.03.034-.055.068-.08.1a3.65,3.65,0,0,0-.231.319c-.025.043-.055.08-.08.123a4.445,4.445,0,0,0-.249.463.721.721,0,0,0-.017.56.762.762,0,0,0,.257.32c1.015,1.554,7.491,5.314,15.656,9,8.119,3.667,15.185,6.042,17.071,5.8l.105.046a.87.87,0,0,0,.207.059.848.848,0,0,0,.926-.488v0a4.528,4.528,0,0,0,.173-.459c.017-.05.03-.1.042-.151.03-.114.055-.224.076-.337.009-.05.021-.1.025-.151a4.345,4.345,0,0,0,.043-.476v-.017a4.3,4.3,0,0,0-.017-.472c0-.033-.008-.063-.012-.092a3.694,3.694,0,0,0-.071-.421c0-.021-.009-.038-.013-.059a4.543,4.543,0,0,0-.151-.514,4.064,4.064,0,0,0-.467-.88s0-.009-.009-.013a4.175,4.175,0,0,0-.808-.867l7.862-15.908c.341.169.686.341,1.04.513V115.317c-.648-.332-1.305-.661-1.971-.994C149.875,109.476,141.5,106.187,139.693,106.444Z" transform="translate(-119.587 -106.383)" fill="#0d682f" opacity="0.44"/>
    </g>
    <path id="Path_41211" data-name="Path 41211" d="M193.6,103.878c-9.933-4.952-18.351-8.153-18.8-7.146s7.234,5.832,17.164,10.784,18.351,8.153,18.8,7.146S203.526,108.829,193.6,103.878Z" transform="translate(-48.754 -26.774)" fill="#ffc759"/>
    <path id="Path_41212" data-name="Path 41212" d="M165.852,164.955c-8.544-3.861-15.837-6.177-16.288-5.171s6.106,4.948,14.65,8.809,15.838,6.177,16.288,5.171S174.4,168.817,165.852,164.955Z" transform="translate(-41.715 -44.349)" fill="#122a80"/>
    <path id="Path_41213" data-name="Path 41213" d="M200.2,204.914c0-2.733-4.063-4.948-9.074-4.948H127.048c-5.162,0-9.344,2.283-9.344,5.1,0,.484.72.88,1.613.88h79C199.353,205.937,200.2,205.478,200.2,204.914Z" transform="translate(-32.834 -55.623)" fill="#ffc759"/>
    <path id="Path_41214" data-name="Path 41214" d="M189.542,144.887s79.607,39.544,81.494,39.608,5.946-4.561,3.457-6.3S190.9,141.9,190.9,141.9Z" transform="translate(-52.873 -39.427)" fill="#ffc759"/>
    <path id="Path_41215" data-name="Path 41215" d="M284.079,182.23l-3.019,6.346c2.426,1.171,4.653,2.24,6.619,3.171l3.125-6.565C288.8,184.3,286.538,183.3,284.079,182.23Z" transform="translate(-78.402 -50.676)" fill="#fff8f1"/>
    <path id="Path_41216" data-name="Path 41216" d="M274.884,178.207l-2.894,6.08,3.3,1.6,2.961-6.219C277.157,179.2,276.033,178.7,274.884,178.207Z" transform="translate(-75.872 -49.553)" fill="#e3d5c6"/>
    <path id="Path_41217" data-name="Path 41217" d="M206.192,150.772l.9-1.962c-9.538-4.08-16.182-6.911-16.182-6.911l-1.364,2.982s79.607,39.544,81.494,39.608a3.307,3.307,0,0,0,1.924-.9C249.471,172.268,206.192,150.772,206.192,150.772Z" transform="translate(-52.873 -39.425)" fill="#1d1e62" opacity="0.44"/>
    <path id="Path_41218" data-name="Path 41218" d="M156.593,144.871l24.646,10.152,18.279-36.993L172.54,103.052Z" transform="translate(-43.682 -28.589)" fill="#ffc759"/>
    <path id="Path_41219" data-name="Path 41219" d="M188.212,153.043l-25.973-10.519-3.655,9.589,25.068,10.157Z" transform="translate(-44.237 -39.6)" fill="#e0974d"/>
    <path id="Path_41220" data-name="Path 41220" d="M202.889,121.111,175.56,107.59l-3.672,9.626,26.452,13.091Z" transform="translate(-47.948 -29.855)" fill="#e3d5c6"/>
    <path id="Path_41221" data-name="Path 41221" d="M180.927,156.167l2.19-4.434-16.734-6.779-1.76,4.61Z" transform="translate(-45.922 -40.277)" fill="#ffc759"/>
    <path id="Path_41222" data-name="Path 41222" d="M192.478,127.921l2.514-4.257-16.178-8.009-2.1,4.463Z" transform="translate(-49.295 -32.104)" fill="#ffc759"/>
    <path id="Path_41223" data-name="Path 41223" d="M172.54,103.052l-15.947,41.814,2.193.9c1.049-11.858,11.77-38.849,24.508-32.293,13.193,6.792,7.314,24.216-5.23,40.235l3.175,1.309,18.279-36.988Z" transform="translate(-43.682 -28.589)" fill="#e0974d" opacity="0.44"/>
    <path id="Path_41224" data-name="Path 41224" d="M181.156,172.684a3.827,3.827,0,0,0-1.912-5.065L154.61,156.5a3.939,3.939,0,0,0-5.213,1.971.679.679,0,0,0,.341.9l30.373,13.711A.792.792,0,0,0,181.156,172.684Z" transform="translate(-41.657 -43.4)" fill="#e0974d"/>
    <path id="Path_41225" data-name="Path 41225" d="M173.461,97a4.5,4.5,0,0,0,2,6.038l28.39,14.228a4.628,4.628,0,0,0,6.215-2.067.8.8,0,0,0-.353-1.069L174.712,96.583A.923.923,0,0,0,173.461,97Z" transform="translate(-48.254 -26.756)" fill="#e0974d"/>
    <path id="Path_41226" data-name="Path 41226" d="M165.789,165.337c-7.866-3.331-13.686-7.39-13.18-9.159a3.934,3.934,0,0,0-3.217,2.3.679.679,0,0,0,.341.9l30.373,13.711a.79.79,0,0,0,1.048-.4,3.833,3.833,0,0,0-.345-3.756C178.645,169.607,172.547,168.2,165.789,165.337Z" transform="translate(-41.656 -43.408)" fill="#ffc759"/>
    <path id="Path_41227" data-name="Path 41227" d="M190.835,109.322c-9.525-4.742-16.814-9.857-17.391-12.081a4.5,4.5,0,0,0,2.021,6l28.39,14.228a4.626,4.626,0,0,0,5.794-1.389C206.356,115.967,198.979,113.377,190.835,109.322Z" transform="translate(-48.254 -26.968)" fill="#ffc759"/>
    <path id="Path_41228" data-name="Path 41228" d="M179.463,134.436l-5.508,12.848,3.2-5.024Z" transform="translate(-48.525 -37.343)" fill="#1d1e62" opacity="0.44"/>
    <path id="Path_41229" data-name="Path 41229" d="M203.033,126.359l-5.508,12.848,3.2-5.024Z" transform="translate(-55.1 -35.09)" fill="#1d1e62" opacity="0.44"/>
    <path id="Path_41230" data-name="Path 41230" d="M197.461,201.923a13.729,13.729,0,0,1-6.931,1.688H126.458a13.721,13.721,0,0,1-6.346-1.415c-1.495.9-2.413,2.1-2.413,3.407,0,.484.72.88,1.612.88h79c1.04,0,1.878-.459,1.878-1.023C200.194,204.075,199.146,202.82,197.461,201.923Z" transform="translate(-32.832 -56.169)" fill="#ffc759"/>
    <path id="Path_41231" data-name="Path 41231" d="M220.171,208.025H0a873.162,873.162,0,0,0,110.085,7.192A873.153,873.153,0,0,0,220.171,208.025Z" transform="translate(0 -57.871)" fill="#fff8f1"/>
  </g>
</svg>
