<svg xmlns="http://www.w3.org/2000/svg" width="141.207" height="143.237" viewBox="0 0 141.207 143.237">
  <g id="i2" transform="translate(0 0)">
    <ellipse id="Ellipse_1522" data-name="Ellipse 1522" cx="40.626" cy="70.383" rx="40.626" ry="70.383" transform="translate(0 142.474) rotate(-89.689)" fill="#fff8e9"/>
    <g id="Group_45790" data-name="Group 45790" transform="translate(24.324 23.902)">
      <path id="Path_40055" data-name="Path 40055" d="M49.01,189.679c-4.563,2.64-11.978,2.624-16.573-.033s-4.612-6.926-.049-9.566,11.978-2.624,16.573.033S53.573,187.056,49.01,189.679Z" transform="translate(-22.871 -102.644)" fill="#e0974d"/>
      <g id="XMLID_9560_">
        <path id="XMLID_9606_" d="M59.485,132.565l-.9-.456a2.453,2.453,0,0,0-.359-.179h-.016a1.9,1.9,0,0,0-1.646.13L28.212,148.421a5.961,5.961,0,0,0-2.982,5.166v22.065a1.916,1.916,0,0,0,1.027,1.711h0l1.01.521.228-.326a2,2,0,0,0,.636-.228l28.355-16.378a5.961,5.961,0,0,0,2.982-5.166V133.722a1.948,1.948,0,0,0-.212-.88Z" transform="translate(-25.23 -131.801)" fill="#212121"/>
        <g id="XMLID_9582_" transform="translate(8.018 29.706)">
          <path id="XMLID_9605_" d="M47.678,198.762s-.065.147-.2.391a8.313,8.313,0,0,1-1.353,1.776,7.093,7.093,0,0,1-1.239,1.01,6.616,6.616,0,0,1-2.493.994,10.2,10.2,0,0,1-1.548.163,14.582,14.582,0,0,1-2.591-.13,15.785,15.785,0,0,1-3.21-.75s-.407-5.052-.31-8.833.554-9.827.342-12.678c-.212-2.836-.342-3.1-.456-3.129a6.235,6.235,0,0,1-1.923-1.418,13.638,13.638,0,0,1-1.353-1.939,5.6,5.6,0,0,0-.538-.636,2.6,2.6,0,0,1-.359-.505,3.62,3.62,0,0,1-.065-2.656c.163-.456.782-.88.913-1.711.13-.847-.016-1.6.57-2.281s.978-.489,1.19-1.173c.212-.7.2-1.255.7-1.679a9.051,9.051,0,0,1,1.923-.978s-1.336-2.119-1.613-2.461a3.814,3.814,0,0,1-.489-.717,2.039,2.039,0,0,1-.179-1.369,1.826,1.826,0,0,1,1.695-1.3,4.95,4.95,0,0,1,1.711.424c.359.244,2.852,3.716,3.015,3.944v.016s.179-.521,1.092-.505a1.2,1.2,0,0,1,1.173,1.255c0,.424-.016.945-.016.945s1.581,2.233,1.988,2.868a10.334,10.334,0,0,1,1.108,2.689c0,.375-.065,1.6,0,2.2a5.034,5.034,0,0,1-.293,2.64,6.714,6.714,0,0,0-.587,1.793c-.065.277-.065,4.335-.049,6.062C44.272,182.84,44.191,192.064,47.678,198.762Z" transform="translate(-30.144 -145.799)" fill="#fcd1b3"/>
          <path id="XMLID_9604_" d="M41.715,170.966a5.412,5.412,0,0,1-.831,1.141c-.489.489-1.662,1.3-1.744,1.434-.065.114.2,1.01-.521,1.353a3.473,3.473,0,0,1-1.662.261s-.065.473-.293,1.972,2.086,5.736,1.4,10.446a34.72,34.72,0,0,0,.081,9.321,15.785,15.785,0,0,1-3.21-.75s-.407-5.052-.31-8.833.554-9.827.342-12.678c-.212-2.836-.342-3.1-.456-3.129a6.236,6.236,0,0,1-1.923-1.418,13.639,13.639,0,0,1-1.353-1.939,5.6,5.6,0,0,0-.538-.636,2.6,2.6,0,0,1-.359-.505c1.239-1.4,2.656.212,3.976.684a21.917,21.917,0,0,1,3.357,1.727,7.234,7.234,0,0,1,.538,1.124c-.033.1-.489,1.532-.261,1.841a1.252,1.252,0,0,0,1.239.391A21.9,21.9,0,0,0,41.715,170.966Z" transform="translate(-30.03 -139.694)" fill="#f6b486"/>
          <path id="XMLID_9603_" d="M43.628,191.641a8.314,8.314,0,0,1-1.353,1.776,7.094,7.094,0,0,1-1.239,1.01c-.375-.033-.684-.31-.8-1.027-.31-1.972-2.656-17.355-2.754-19.344a7.658,7.658,0,0,1,.766-3.911c.2-.212-.293-.587-.293-.587a17.358,17.358,0,0,1-1.679.75,4.507,4.507,0,0,0,.668-.929,5.337,5.337,0,0,0,1.45-.424,5.4,5.4,0,0,1,1.825-.277,58.586,58.586,0,0,0,.277,13.249A26.838,26.838,0,0,0,43.628,191.641Z" transform="translate(-26.305 -138.288)" fill="#f6b486"/>
          <path id="XMLID_9602_" d="M36.559,161.194a.71.71,0,0,0,0,.782,6.527,6.527,0,0,0,1.01,1.646,1.5,1.5,0,0,1,.554.652c.049.2.228.9.228.9s-3.6-2.51-3.748-3.96C34.44,159.76,36.559,161.194,36.559,161.194Z" transform="translate(-27.352 -143.399)" fill="#f6b486"/>
          <path id="XMLID_9601_" d="M40.664,168.02a7.807,7.807,0,0,1-1.548,2.184,5.3,5.3,0,0,1-2.689.2c-.554-.081,2.412-4.139,2.412-4.139s.766.733.782,1.01C39.784,168.672,40.664,168.02,40.664,168.02Z" transform="translate(-26.242 -139.811)" fill="#f6b486"/>
          <path id="XMLID_9600_" d="M40.665,170.4s-.554,1.287-.929,1.027a4.91,4.91,0,0,1-1.027-1.467c-.147-.293-.684-.456-.684-.456a6.313,6.313,0,0,0,.473-1.695c-.033-.489.44-.31.44-.31a21.661,21.661,0,0,1-.505-2.412c-.13-.961-.864-1.467-1.059-2.4a8.275,8.275,0,0,1-.1-1.907c.016-.407.065-.684.1-.636a4.277,4.277,0,0,0,.668,1.369c.652.945,1.467,2.135,1.467,2.135a6.558,6.558,0,0,1,.994,2.559,7.339,7.339,0,0,1,.179,2.1C40.6,168.773,40.747,169.588,40.665,170.4Z" transform="translate(-25.673 -143.66)" fill="#ffe3cf"/>
          <path id="XMLID_9599_" d="M37.831,161.358a1.468,1.468,0,0,1-.717-.228c-.44-.228-.554-1.483-.521-1.711s.684-.179.815,0a1.8,1.8,0,0,1,.424,1.124C37.928,161.391,37.831,161.358,37.831,161.358Z" transform="translate(-26.097 -144.215)" fill="#ffe3cf"/>
          <path id="XMLID_9598_" d="M36.849,159.66a1.842,1.842,0,0,1,.065,1.124,7.107,7.107,0,0,1-.57,1.662,4.705,4.705,0,0,0,.505,1.206,9.326,9.326,0,0,1-1.222-1.141c-.1-.2-.684-.8-.538-1.043C35.219,161.224,36.849,159.66,36.849,159.66Z" transform="translate(-27.055 -143.967)" fill="#fcd1b3"/>
          <path id="XMLID_9597_" d="M34.14,170.012v3.7a1.206,1.206,0,0,0,.342.864h0a2,2,0,0,0,2.95,0h0a1.278,1.278,0,0,0,.342-.864V164.8L34.14,162.76Z" transform="translate(-27.638 -142.015)" fill="#973d26"/>
          <path id="XMLID_9596_" d="M34.14,167.679V150.747l3.618-.717V171.1Z" transform="translate(-27.638 -150.03)" fill="#973d26"/>
          <path id="XMLID_9595_" d="M43.138,192.345a6.759,6.759,0,0,1-3.732,2,10.2,10.2,0,0,1-1.548.163c-.081-.293-.163-.6-.228-.88a31.376,31.376,0,0,1-.489-7.708,11.273,11.273,0,0,1,0-2.738c.163-1.907-1.01-3.748-1.679-5s-.587-5.019-.473-5.15,1.108-.342,1.646-.587a12.162,12.162,0,0,0,1.972-2.037s.668,4.5,1.027,6.241,2.265,9.37,2.3,9.647C41.948,186.429,42.535,189.379,43.138,192.345Z" transform="translate(-27.151 -137.198)" fill="#ffe3cf"/>
          <path id="XMLID_9594_" d="M38.393,163.272c-.717,1.108-1.972.114-2.1,0-.147-.114-3.536-3.813-3.944-3.83a2.039,2.039,0,0,1-.179-1.369,1.826,1.826,0,0,1,1.695-1.3,4.95,4.95,0,0,1,1.711.424c.359.244,2.852,3.716,3.015,3.944v.016A2.155,2.155,0,0,1,38.393,163.272Z" transform="translate(-28.908 -145.786)" fill="#ffe3cf"/>
          <path id="XMLID_9593_" d="M38.331,161.511a10.064,10.064,0,0,0-1.434-2.1c-.8-.831-1.564-2.021-2.216-2.216a1.9,1.9,0,0,0-2,.163c-1.027.587,2.3,3.553,2.3,3.553s1.32,1.744,1.353,1.776C36.343,162.7,38.331,161.511,38.331,161.511Z" transform="translate(-28.683 -145.655)" fill="#ffebdd"/>
          <path id="XMLID_9592_" d="M36.789,159.935a1.956,1.956,0,0,0-1.32-.684c-.684.049-.88.978-.847,1.3a5.114,5.114,0,0,0,.864,1.287,3.83,3.83,0,0,0,.929-.7C36.838,160.734,37.033,160.6,36.789,159.935Z" transform="translate(-27.337 -144.226)" fill="#fef7f2"/>
          <path id="XMLID_9591_" d="M43.122,171.888a1.389,1.389,0,0,1-1.353.684,1.317,1.317,0,0,1,0,.847,1.452,1.452,0,0,1-1.679.652A32.527,32.527,0,0,1,36.6,172.8a13.365,13.365,0,0,0-2.526-.7,16.063,16.063,0,0,1-2.738-.13,5.6,5.6,0,0,0-.538-.636,3.249,3.249,0,0,1-.424-3.161c.163-.456.782-.88.913-1.711.13-.847-.016-1.6.57-2.281s.978-.489,1.19-1.173c.212-.7.2-1.255.7-1.679a9.052,9.052,0,0,1,1.923-.978,9.068,9.068,0,0,1,1.711.994c.31.342,2.021,2.347,2.689,2.966a12.586,12.586,0,0,1,2.135,2.3,2.731,2.731,0,0,1,.244,2.118.786.786,0,0,1-.8.505c.081.049,1.271.815,1.4.961A1.339,1.339,0,0,1,43.122,171.888Z" transform="translate(-30.15 -143.532)" fill="#ffe3cf"/>
          <path id="XMLID_9590_" d="M40.184,167.708a18.688,18.688,0,0,1-1.662-.945c-.847-.554-3.161-2.135-3.6-2.4-.44-.244-2.461-1.6-2.461-1.6s.684.2.782.244c.1.065,1.076.489,1.19.6C34.562,163.731,39.907,167.512,40.184,167.708Z" transform="translate(-28.696 -142.009)" fill="#f6b486"/>
          <path id="XMLID_9589_" d="M40.917,169.74s-1.157-.619-1.76-.913-4.677-2.559-5.361-2.884c-.684-.342-2.1-1.01-2.249-1.043s.684-.1.782,0,3.357,1.776,3.455,1.874,3.194,1.695,3.422,1.874A17.605,17.605,0,0,1,40.917,169.74Z" transform="translate(-29.282 -140.7)" fill="#f6b486"/>
          <path id="XMLID_9588_" d="M33.775,165.88s-.9.31-.978.913.065,1.157,1.418,1.613a22.129,22.129,0,0,1,2.95,1.157,9.879,9.879,0,0,0,1.727.978.9.9,0,0,0,.994-.44c.163-.244-.929-1.4-.929-1.4s-1.776-1.173-2.249-1.418C36.252,167.037,33.775,165.88,33.775,165.88Z" transform="translate(-28.495 -140.05)" fill="#ffebdd"/>
          <path id="XMLID_9587_" d="M34.8,163.853a1.588,1.588,0,0,0-1.287.277.976.976,0,0,0-.261,1.369c.244.587,1.841,1.548,1.841,1.548s3.1,1.564,3.21,1.679,1.271,1.043,1.5,1.173.7.179.831,0a11.154,11.154,0,0,0,.375-1.874s-1.043-.733-1.6-1.092C38.876,166.559,35.079,164.424,34.8,163.853Z" transform="translate(-28.3 -141.348)" fill="#ffebdd"/>
          <path id="XMLID_9586_" d="M38.041,163.74a31.179,31.179,0,0,0-3.064-2.787,1.85,1.85,0,0,0-1.841.619c-.57.782,1.108,2.135,1.19,2.379.081.228,2.086,1.972,2.314,2.249S39,168.043,39,168.043l1.45-1.206a7.127,7.127,0,0,0-.9-1.483C39.149,164.832,38.041,163.74,38.041,163.74Z" transform="translate(-28.344 -143.175)" fill="#ffebdd"/>
          <path id="XMLID_9585_" d="M38.365,164.752a.743.743,0,0,0-.831-.147,1.361,1.361,0,0,0-.831,1.01.486.486,0,0,0,.293.521s.636.473.668.473C37.713,166.594,38.479,166.5,38.365,164.752Z" transform="translate(-26.029 -140.895)" fill="#fef7f2"/>
          <path id="XMLID_9584_" d="M38.809,166.656s-.717-.587-1.076-.244a1.88,1.88,0,0,0-.6,1.3c.016.473.9.864.9.864S39.33,167.813,38.809,166.656Z" transform="translate(-25.755 -139.783)" fill="#fef7f2"/>
          <path id="XMLID_9583_" d="M37.921,168a6.571,6.571,0,0,0-1.173-.391.878.878,0,0,0-.456.9.771.771,0,0,0,.538.733c.147.033.538.1.538.1S38.166,168.719,37.921,168Z" transform="translate(-26.286 -138.962)" fill="#fef7f2"/>
        </g>
        <path id="XMLID_9581_" d="M40.487,159.716l-6.307,3.634a1.641,1.641,0,0,1-2.461-1.418v-6.176l10.69-6.176v6.8A3.866,3.866,0,0,1,40.487,159.716Z" transform="translate(-21.144 -120.607)" fill="#5e1b00"/>
        <path id="XMLID_9580_" d="M41.127,159.986l-6.307,3.634A1.641,1.641,0,0,1,32.36,162.2v-6.176l10.69-6.176v6.8A3.846,3.846,0,0,1,41.127,159.986Z" transform="translate(-20.741 -120.437)" fill="#963a23"/>
        <path id="XMLID_9579_" d="M60.045,134.028v22.065a5.961,5.961,0,0,1-2.982,5.166L30.451,176.626l-1.744,1.01a1.94,1.94,0,0,1-2.917-1.679V153.893a5.961,5.961,0,0,1,2.982-5.166l28.355-16.361A1.931,1.931,0,0,1,60.045,134.028Z" transform="translate(-24.877 -131.618)" fill="#f9f9f9"/>
        <path id="XMLID_9564_" d="M58.244,133.91v21.038a5.961,5.961,0,0,1-2.982,5.166L28.65,175.482C35.967,151.135,48.629,141.325,58.244,133.91Z" transform="translate(-23.077 -130.474)" fill="#fff"/>
        <g id="Group_45789" data-name="Group 45789" transform="translate(7.985 14.328)">
          <path id="Path_40056" data-name="Path 40056" d="M37.121,146.681a4.423,4.423,0,0,1-1.6,3.243c1.222-.473,1.939.114,1.939,1.516,0,1.793-1.255,3.585-3.308,4.758l-4.025,2.33V148.115l3.944-2.281C35.948,144.758,37.121,145.068,37.121,146.681ZM35.54,147.9c0-.864-.587-1.01-1.548-.44l-2.33,1.353v2.738l2.33-1.353A2.751,2.751,0,0,0,35.54,147.9Zm.359,4.221c0-.929-.717-1.076-1.907-.375l-2.33,1.353v2.982l2.33-1.353A3.272,3.272,0,0,0,35.9,152.124Z" transform="translate(-30.13 -137.692)" fill="#212121"/>
          <path id="Path_40057" data-name="Path 40057" d="M37.272,143.21v10.413l-1.532.88V144.09Z" transform="translate(-26.598 -138.946)" fill="#212121"/>
          <path id="Path_40058" data-name="Path 40058" d="M46.559,143.814a9.816,9.816,0,0,1-4.726,7.936l-3.683,2.119V143.456l3.716-2.151C44.587,139.757,46.559,140.8,46.559,143.814Zm-1.548.913c0-2.135-1.385-2.852-3.178-1.809l-2.167,1.255v7.268l2.233-1.287A6.65,6.65,0,0,0,45.011,144.727Z" transform="translate(-25.08 -140.594)" fill="#212121"/>
        </g>
      </g>
    </g>
    <g id="Group_45792" data-name="Group 45792" transform="translate(80.258 14.433)">
      <path id="Path_40059" data-name="Path 40059" d="M83.51,183.88c-4.563,2.64-11.978,2.624-16.573-.033s-4.612-6.926-.049-9.566,11.978-2.624,16.573.033C88.056,176.954,88.073,181.239,83.51,183.88Z" transform="translate(-57.083 -96.827)" fill="#e0974d"/>
      <g id="XMLID_9607_">
        <path id="XMLID_9636_" d="M93.975,126.755l-.9-.456a2.453,2.453,0,0,0-.359-.179H92.7a1.9,1.9,0,0,0-1.646.13L62.7,142.628a5.961,5.961,0,0,0-2.982,5.166v22.065a1.916,1.916,0,0,0,1.027,1.711h0l1.01.521.228-.326a1.864,1.864,0,0,0,.636-.228l28.355-16.378a5.961,5.961,0,0,0,2.982-5.166V127.928a1.948,1.948,0,0,0-.212-.88Z" transform="translate(-59.72 -125.991)" fill="#212121"/>
        <g id="XMLID_9612_" transform="translate(8.305 29.722)">
          <path id="XMLID_9635_" d="M82.168,192.962s-.065.147-.2.391a8.315,8.315,0,0,1-1.353,1.776,7.1,7.1,0,0,1-1.238,1.01,6.617,6.617,0,0,1-2.493.994,10.2,10.2,0,0,1-1.548.163,14.582,14.582,0,0,1-2.591-.13,15.782,15.782,0,0,1-3.21-.75s-.407-5.052-.31-8.833.554-9.827.342-12.678c-.212-2.836-.342-3.1-.456-3.129a6.235,6.235,0,0,1-1.923-1.418,13.638,13.638,0,0,1-1.353-1.939,5.6,5.6,0,0,0-.538-.636,2.6,2.6,0,0,1-.359-.505,3.62,3.62,0,0,1-.065-2.656c.163-.456.782-.88.913-1.711.13-.847-.016-1.6.57-2.281s.978-.489,1.19-1.173c.212-.7.2-1.255.7-1.678a9.051,9.051,0,0,1,1.923-.978s-1.336-2.119-1.613-2.461a3.817,3.817,0,0,1-.489-.717,2.039,2.039,0,0,1-.179-1.369,1.826,1.826,0,0,1,1.695-1.3,4.95,4.95,0,0,1,1.711.424c.359.244,2.852,3.716,3.015,3.944v.016s.179-.521,1.092-.505a1.2,1.2,0,0,1,1.173,1.255c0,.424-.016.945-.016.945s1.581,2.233,1.988,2.868a10.335,10.335,0,0,1,1.108,2.689c0,.375-.065,1.6,0,2.2a5.034,5.034,0,0,1-.293,2.64,6.714,6.714,0,0,0-.587,1.793c-.065.277-.065,4.335-.049,6.062C78.779,177.04,78.681,186.264,82.168,192.962Z" transform="translate(-64.65 -139.999)" fill="#fcd1b3"/>
          <path id="XMLID_9634_" d="M76.2,165.156a5.414,5.414,0,0,1-.831,1.141c-.489.489-1.662,1.3-1.744,1.434-.065.114.179,1.01-.521,1.353a3.473,3.473,0,0,1-1.662.261s-.065.473-.293,1.972,2.086,5.736,1.4,10.446a34.72,34.72,0,0,0,.081,9.321,15.786,15.786,0,0,1-3.21-.75s-.407-5.052-.31-8.833.554-9.827.342-12.678c-.212-2.836-.342-3.1-.456-3.129a6.236,6.236,0,0,1-1.923-1.418,13.642,13.642,0,0,1-1.353-1.939,5.6,5.6,0,0,0-.538-.636,2.6,2.6,0,0,1-.359-.505c1.222-1.4,2.656.212,3.976.684a21.918,21.918,0,0,1,3.357,1.727,7.232,7.232,0,0,1,.538,1.124c-.033.1-.489,1.532-.261,1.841a1.252,1.252,0,0,0,1.239.391A20.567,20.567,0,0,0,76.2,165.156Z" transform="translate(-64.537 -133.9)" fill="#f6b486"/>
          <path id="XMLID_9633_" d="M78.128,185.841a8.314,8.314,0,0,1-1.353,1.776,7.094,7.094,0,0,1-1.239,1.01c-.375-.033-.684-.31-.8-1.027-.31-1.972-2.656-17.355-2.754-19.344a7.658,7.658,0,0,1,.766-3.911c.2-.212-.293-.587-.293-.587a17.357,17.357,0,0,1-1.679.75,4.507,4.507,0,0,0,.668-.929,5.337,5.337,0,0,0,1.45-.424,5.4,5.4,0,0,1,1.825-.277A58.586,58.586,0,0,0,75,176.129,26.765,26.765,0,0,0,78.128,185.841Z" transform="translate(-60.805 -132.488)" fill="#f6b486"/>
          <path id="XMLID_9632_" d="M71.048,155.384a.71.71,0,0,0,0,.782,6.528,6.528,0,0,0,1.01,1.646,1.5,1.5,0,0,1,.554.652c.049.2.228.9.228.9s-3.6-2.51-3.748-3.96S71.048,155.384,71.048,155.384Z" transform="translate(-61.857 -137.605)" fill="#f6b486"/>
          <path id="XMLID_9631_" d="M75.164,162.21a7.807,7.807,0,0,1-1.548,2.184,5.3,5.3,0,0,1-2.689.2c-.554-.081,2.412-4.139,2.412-4.139s.766.733.782,1.01C74.267,162.862,75.164,162.21,75.164,162.21Z" transform="translate(-60.742 -134.018)" fill="#f6b486"/>
          <path id="XMLID_9630_" d="M75.155,164.6s-.554,1.287-.929,1.027a4.909,4.909,0,0,1-1.027-1.467c-.147-.293-.684-.456-.684-.456a6.314,6.314,0,0,0,.473-1.695c-.033-.489.44-.31.44-.31a21.663,21.663,0,0,1-.505-2.412c-.13-.961-.864-1.467-1.059-2.4a8.275,8.275,0,0,1-.1-1.907c.016-.407.065-.684.1-.636a4.277,4.277,0,0,0,.668,1.369c.652.945,1.467,2.135,1.467,2.135a6.558,6.558,0,0,1,.994,2.559,7.339,7.339,0,0,1,.179,2.1C75.09,162.957,75.237,163.771,75.155,164.6Z" transform="translate(-60.179 -137.86)" fill="#ffe3cf"/>
          <path id="XMLID_9629_" d="M72.331,155.548a1.468,1.468,0,0,1-.717-.228c-.44-.228-.554-1.483-.521-1.711s.684-.179.815,0a1.8,1.8,0,0,1,.424,1.124C72.428,155.581,72.331,155.548,72.331,155.548Z" transform="translate(-60.597 -138.421)" fill="#ffe3cf"/>
          <path id="XMLID_9628_" d="M71.349,153.86a1.842,1.842,0,0,1,.065,1.124,7.107,7.107,0,0,1-.57,1.662,4.706,4.706,0,0,0,.505,1.206,9.327,9.327,0,0,1-1.222-1.141c-.1-.2-.684-.8-.538-1.043A21.1,21.1,0,0,1,71.349,153.86Z" transform="translate(-61.555 -138.167)" fill="#fcd1b3"/>
          <path id="XMLID_9627_" d="M68.63,164.2v3.7a1.206,1.206,0,0,0,.342.864h0a2,2,0,0,0,2.95,0h0a1.279,1.279,0,0,0,.342-.864v-8.914L68.63,156.96V164.2Z" transform="translate(-62.144 -136.215)" fill="#973d26"/>
          <path id="XMLID_9626_" d="M68.63,161.862V144.931l3.634-.7v21.055Z" transform="translate(-62.144 -144.23)" fill="#973d26"/>
          <path id="XMLID_9625_" d="M77.628,186.528a6.862,6.862,0,0,1-3.732,2,10.2,10.2,0,0,1-1.548.163c-.081-.31-.163-.6-.228-.88a31.377,31.377,0,0,1-.489-7.708,11.273,11.273,0,0,1,0-2.738c.163-1.907-1.01-3.748-1.679-4.987-.668-1.255-.587-5.019-.473-5.15s1.108-.342,1.646-.587A12.162,12.162,0,0,0,73.1,164.61s.668,4.5,1.027,6.241,2.265,9.37,2.3,9.647C76.455,180.629,77.041,183.562,77.628,186.528Z" transform="translate(-61.658 -131.398)" fill="#ffe3cf"/>
          <path id="XMLID_9624_" d="M72.893,157.462c-.717,1.108-1.972.114-2.1,0-.147-.114-3.536-3.813-3.944-3.83a2.039,2.039,0,0,1-.179-1.369,1.827,1.827,0,0,1,1.695-1.3,4.95,4.95,0,0,1,1.711.424c.359.244,2.852,3.716,3.015,3.944v.016A2.2,2.2,0,0,1,72.893,157.462Z" transform="translate(-63.408 -139.993)" fill="#ffe3cf"/>
          <path id="XMLID_9623_" d="M72.821,155.7a10.063,10.063,0,0,0-1.434-2.1c-.8-.831-1.564-2.037-2.216-2.216a1.9,1.9,0,0,0-2,.163c-1.027.587,2.3,3.553,2.3,3.553s1.32,1.744,1.353,1.76C70.849,156.89,72.821,155.7,72.821,155.7Z" transform="translate(-63.19 -139.861)" fill="#ffebdd"/>
          <path id="XMLID_9622_" d="M71.279,154.135a1.956,1.956,0,0,0-1.32-.684c-.7.065-.88.978-.847,1.3a5.114,5.114,0,0,0,.864,1.287,3.83,3.83,0,0,0,.929-.7C71.344,154.918,71.54,154.787,71.279,154.135Z" transform="translate(-61.843 -138.426)" fill="#fef7f2"/>
          <path id="XMLID_9621_" d="M77.622,166.078a1.389,1.389,0,0,1-1.353.684,1.317,1.317,0,0,1,0,.847,1.452,1.452,0,0,1-1.679.652A32.536,32.536,0,0,1,71.1,166.99a13.369,13.369,0,0,0-2.526-.7,16.063,16.063,0,0,1-2.738-.13,5.6,5.6,0,0,0-.538-.636,3.249,3.249,0,0,1-.424-3.161c.163-.456.782-.88.913-1.711.13-.847-.016-1.6.57-2.281s.978-.489,1.19-1.173c.212-.7.2-1.255.7-1.678a9.052,9.052,0,0,1,1.923-.978,9.069,9.069,0,0,1,1.711.994c.31.342,2.021,2.347,2.689,2.966a12.586,12.586,0,0,1,2.135,2.3,2.731,2.731,0,0,1,.244,2.119.786.786,0,0,1-.8.505c.081.049,1.271.815,1.4.961A1.344,1.344,0,0,1,77.622,166.078Z" transform="translate(-64.65 -137.739)" fill="#ffe3cf"/>
          <path id="XMLID_9620_" d="M74.684,161.9a18.7,18.7,0,0,1-1.662-.945c-.847-.554-3.161-2.135-3.6-2.4-.44-.244-2.461-1.6-2.461-1.6a6.713,6.713,0,0,1,.782.244c.1.065,1.076.489,1.19.6C69.046,157.938,74.391,161.718,74.684,161.9Z" transform="translate(-63.196 -136.215)" fill="#f6b486"/>
          <path id="XMLID_9619_" d="M75.407,163.93s-1.157-.619-1.76-.913-4.677-2.559-5.361-2.884c-.684-.342-2.1-1.01-2.249-1.043s.684-.1.782,0,3.357,1.776,3.455,1.874,3.194,1.695,3.422,1.874S75.374,163.8,75.407,163.93Z" transform="translate(-63.788 -134.906)" fill="#f6b486"/>
          <path id="XMLID_9618_" d="M68.265,160.08s-.9.31-.978.913.065,1.157,1.418,1.613a22.126,22.126,0,0,1,2.95,1.157,9.88,9.88,0,0,0,1.727.978.9.9,0,0,0,.994-.44c.163-.244-.929-1.4-.929-1.4s-1.776-1.173-2.249-1.418C70.758,161.237,68.265,160.08,68.265,160.08Z" transform="translate(-63.001 -134.25)" fill="#ffebdd"/>
          <path id="XMLID_9617_" d="M69.292,158.053a1.588,1.588,0,0,0-1.287.277.976.976,0,0,0-.261,1.369c.244.587,1.841,1.548,1.841,1.548s3.1,1.564,3.21,1.678,1.271,1.043,1.5,1.173.7.179.831,0a11.154,11.154,0,0,0,.375-1.874s-1.043-.733-1.6-1.092C73.383,160.742,69.586,158.607,69.292,158.053Z" transform="translate(-62.807 -135.548)" fill="#ffebdd"/>
          <path id="XMLID_9616_" d="M72.541,157.93a31.179,31.179,0,0,0-3.064-2.787,1.85,1.85,0,0,0-1.841.619c-.57.782,1.108,2.135,1.19,2.379.081.228,2.086,1.972,2.314,2.249s2.363,1.841,2.363,1.841l1.45-1.206a7.126,7.126,0,0,0-.9-1.483C73.633,159.022,72.541,157.93,72.541,157.93Z" transform="translate(-62.845 -137.381)" fill="#ffebdd"/>
          <path id="XMLID_9615_" d="M72.865,158.942a.743.743,0,0,0-.831-.147,1.361,1.361,0,0,0-.831,1.01.486.486,0,0,0,.293.522s.636.473.668.473C72.2,160.784,72.979,160.686,72.865,158.942Z" transform="translate(-60.529 -135.101)" fill="#fef7f2"/>
          <path id="XMLID_9614_" d="M73.3,160.856s-.717-.587-1.076-.244a1.88,1.88,0,0,0-.6,1.3c.016.473.9.864.9.864S73.836,162,73.3,160.856Z" transform="translate(-60.262 -133.983)" fill="#fef7f2"/>
          <path id="XMLID_9613_" d="M72.411,162.192a6.573,6.573,0,0,0-1.173-.391.878.878,0,0,0-.456.9.771.771,0,0,0,.538.733,3.882,3.882,0,0,0,.538.1S72.672,162.909,72.411,162.192Z" transform="translate(-60.792 -133.168)" fill="#fef7f2"/>
        </g>
        <path id="XMLID_9611_" d="M74.987,153.906l-6.307,3.634a1.641,1.641,0,0,1-2.461-1.418v-6.176l10.69-6.176v6.8A3.846,3.846,0,0,1,74.987,153.906Z" transform="translate(-55.356 -114.797)" fill="#5e1b00"/>
        <path id="XMLID_9610_" d="M75.627,154.186l-6.307,3.634A1.641,1.641,0,0,1,66.86,156.4v-6.176l10.69-6.176v6.8A3.846,3.846,0,0,1,75.627,154.186Z" transform="translate(-54.953 -114.621)" fill="#963a23"/>
        <path id="XMLID_9609_" d="M94.545,128.231V150.3a5.961,5.961,0,0,1-2.982,5.166L64.951,170.829l-1.744,1.01a1.94,1.94,0,0,1-2.917-1.679V148.1a5.961,5.961,0,0,1,2.982-5.166l28.355-16.361A1.925,1.925,0,0,1,94.545,128.231Z" transform="translate(-59.09 -125.805)" fill="#f9f9f9"/>
        <path id="XMLID_9608_" d="M92.744,128.11v21.038a5.961,5.961,0,0,1-2.982,5.166L63.15,169.682C70.467,145.319,83.113,135.525,92.744,128.11Z" transform="translate(-57.289 -124.657)" fill="#fff"/>
        <g id="Group_45791" data-name="Group 45791" transform="translate(8.257 14.334)">
          <path id="Path_40060" data-name="Path 40060" d="M71.611,140.871a4.423,4.423,0,0,1-1.6,3.243c1.222-.473,1.939.114,1.939,1.516,0,1.793-1.255,3.585-3.308,4.758l-4.025,2.33V142.305l3.944-2.281C70.454,138.948,71.611,139.258,71.611,140.871Zm-1.564,1.222c0-.864-.587-1.01-1.548-.44l-2.33,1.353v2.738l2.33-1.353A2.763,2.763,0,0,0,70.047,142.093Zm.359,4.221c0-.929-.717-1.076-1.907-.375l-2.33,1.353v2.982l2.33-1.353A3.272,3.272,0,0,0,70.405,146.314Z" transform="translate(-64.62 -131.887)" fill="#212121"/>
          <path id="Path_40061" data-name="Path 40061" d="M71.772,137.4v10.413l-1.532.88V138.28Z" transform="translate(-61.082 -133.142)" fill="#212121"/>
          <path id="Path_40062" data-name="Path 40062" d="M81.059,138.018a9.816,9.816,0,0,1-4.726,7.936l-3.683,2.118V137.66l3.716-2.151C79.087,133.944,81.059,134.987,81.059,138.018Zm-1.548.9c0-2.135-1.385-2.852-3.178-1.809l-2.167,1.255v7.268l2.233-1.287A6.69,6.69,0,0,0,79.511,138.915Z" transform="translate(-59.564 -134.787)" fill="#212121"/>
        </g>
      </g>
    </g>
    <g id="Group_45794" data-name="Group 45794" transform="translate(48.018 0)">
      <path id="Path_40063" data-name="Path 40063" d="M71.961,195.47c-6.176,3.569-16.215,3.553-22.424-.033S43.3,186.05,49.472,182.5s16.215-3.553,22.424.033S78.137,191.9,71.961,195.47Z" transform="translate(-36.565 -77.655)" fill="#e0974d"/>
      <g id="XMLID_6697_">
        <path id="XMLID_9492_" d="M86.133,118.187l-1.222-.619a2.6,2.6,0,0,0-.473-.244l-.016-.016h0a2.586,2.586,0,0,0-2.233.179L43.811,139.632a8.076,8.076,0,0,0-4.041,6.991v29.855a2.586,2.586,0,0,0,1.4,2.314h0l1.369.7.31-.44a2.506,2.506,0,0,0,.864-.31L82.091,156.6a8.076,8.076,0,0,0,4.041-6.991V119.751a2.621,2.621,0,0,0-.293-1.19Z" transform="translate(-39.77 -117.134)" fill="#212121"/>
        <g id="XMLID_6712_" transform="translate(10.855 40.228)">
          <path id="XMLID_9491_" d="M70.144,207.755a5.437,5.437,0,0,1-.277.538,11.7,11.7,0,0,1-1.825,2.412,10.952,10.952,0,0,1-1.662,1.369,9,9,0,0,1-3.373,1.353,15.641,15.641,0,0,1-2.1.228,20,20,0,0,1-3.5-.179,21.762,21.762,0,0,1-4.351-1.027s-.554-6.844-.424-11.961.766-13.314.473-17.144c-.293-3.846-.473-4.188-.619-4.221a8.426,8.426,0,0,1-2.591-1.923,18.381,18.381,0,0,1-1.825-2.624,7.7,7.7,0,0,0-.733-.864,3.289,3.289,0,0,1-.489-.684,4.9,4.9,0,0,1-.081-3.585c.212-.6,1.059-1.173,1.222-2.314s-.016-2.167.766-3.08c.8-.913,1.32-.652,1.613-1.6s.261-1.695.945-2.281a12.659,12.659,0,0,1,2.607-1.32s-1.825-2.868-2.184-3.324a4.835,4.835,0,0,1-.652-.961,2.907,2.907,0,0,1-.244-1.858,2.514,2.514,0,0,1,2.3-1.776,6.839,6.839,0,0,1,2.314.57c.489.326,3.862,5.036,4.074,5.345a.016.016,0,0,0,.016.016s.228-.7,1.483-.684a1.607,1.607,0,0,1,1.581,1.695c0,.587-.016,1.271-.016,1.271s2.135,3.015,2.689,3.895a13.719,13.719,0,0,1,1.5,3.65c0,.505-.1,2.151,0,2.982a6.677,6.677,0,0,1-.391,3.585,8.569,8.569,0,0,0-.8,2.428c-.081.375-.081,5.867-.065,8.2C65.549,186.211,65.435,198.694,70.144,207.755Z" transform="translate(-46.419 -136.084)" fill="#fcd1b3"/>
          <path id="XMLID_9490_" d="M62.074,170.15a7.662,7.662,0,0,1-1.124,1.548c-.652.668-2.265,1.776-2.347,1.939-.1.163.261,1.369-.7,1.841a4.8,4.8,0,0,1-2.249.342s-.1.636-.407,2.656,2.819,7.757,1.89,14.129a46.471,46.471,0,0,0,.114,12.613,21.764,21.764,0,0,1-4.351-1.027s-.554-6.844-.424-11.961.766-13.314.473-17.144c-.293-3.846-.473-4.188-.619-4.221a8.426,8.426,0,0,1-2.591-1.923,18.381,18.381,0,0,1-1.825-2.624,7.7,7.7,0,0,0-.733-.864,3.289,3.289,0,0,1-.489-.684c1.662-1.89,3.585.277,5.394.929a30.174,30.174,0,0,1,4.53,2.33,10.081,10.081,0,0,1,.717,1.516c-.049.13-.668,2.07-.342,2.477a1.765,1.765,0,0,0,1.679.538A25.857,25.857,0,0,0,62.074,170.15Z" transform="translate(-46.268 -127.845)" fill="#f6b486"/>
          <path id="XMLID_9489_" d="M64.659,198.149a11.7,11.7,0,0,1-1.825,2.412,10.95,10.95,0,0,1-1.662,1.369c-.489-.033-.929-.424-1.076-1.4-.407-2.656-3.6-23.483-3.732-26.188a10.414,10.414,0,0,1,1.043-5.3c.261-.293-.391-.8-.391-.8a22.35,22.35,0,0,1-2.265,1.01,5.834,5.834,0,0,0,.913-1.271,7.328,7.328,0,0,0,1.972-.57,7.3,7.3,0,0,1,2.461-.375,78.354,78.354,0,0,0,.391,17.942C61.6,192.609,63.877,196.862,64.659,198.149Z" transform="translate(-41.211 -125.941)" fill="#f6b486"/>
          <path id="XMLID_9488_" d="M55.1,156.921a.974.974,0,0,0,0,1.059,9.137,9.137,0,0,0,1.353,2.233,2.2,2.2,0,0,1,.75.88c.065.277.31,1.222.31,1.222s-4.856-3.39-5.068-5.378C52.248,154.982,55.1,156.921,55.1,156.921Z" transform="translate(-42.652 -132.852)" fill="#f6b486"/>
          <path id="XMLID_9487_" d="M60.661,166.166s-1.206,2.412-2.1,2.95c-.88.538-2.9.375-3.634.261S58.2,163.77,58.2,163.77s1.027.994,1.076,1.369C59.455,167.046,60.661,166.166,60.661,166.166Z" transform="translate(-41.14 -128)" fill="#f6b486"/>
          <path id="XMLID_9486_" d="M60.671,169.4s-.75,1.76-1.255,1.4a7.053,7.053,0,0,1-1.4-1.988c-.2-.407-.929-.619-.929-.619a8.924,8.924,0,0,0,.636-2.3c-.049-.652.587-.424.587-.424a31.86,31.86,0,0,1-.684-3.276c-.163-1.3-1.157-1.988-1.434-3.227a10.521,10.521,0,0,1-.13-2.591c.033-.554.081-.929.13-.864a6.218,6.218,0,0,0,.913,1.858c.88,1.287,1.988,2.9,1.988,2.9a9.086,9.086,0,0,1,1.353,3.471,10.451,10.451,0,0,1,.244,2.852C60.59,167.181,60.785,168.273,60.671,169.4Z" transform="translate(-40.384 -133.203)" fill="#ffe3cf"/>
          <path id="XMLID_9485_" d="M56.831,157.135a2.1,2.1,0,0,1-.961-.293c-.587-.31-.766-2-.717-2.314.049-.293.929-.244,1.108,0a2.512,2.512,0,0,1,.57,1.532C56.962,157.184,56.831,157.135,56.831,157.135Z" transform="translate(-40.945 -133.946)" fill="#ffe3cf"/>
          <path id="XMLID_9484_" d="M55.507,154.85a2.488,2.488,0,0,1,.1,1.516,8.3,8.3,0,0,1-.782,2.249,7.1,7.1,0,0,0,.684,1.63,16.357,16.357,0,0,1-1.662-1.532c-.13-.277-.929-1.076-.733-1.418C53.291,156.952,55.507,154.85,55.507,154.85Z" transform="translate(-42.244 -133.616)" fill="#fcd1b3"/>
          <path id="XMLID_9483_" d="M51.83,168.844v5a1.737,1.737,0,0,0,.456,1.173h0a2.73,2.73,0,0,0,3.993,0h0a1.737,1.737,0,0,0,.456-1.173V161.788L51.83,159.05Z" transform="translate(-43.032 -130.972)" fill="#973d26"/>
          <path id="XMLID_9482_" d="M51.83,165.694V142.781l4.905-.961v28.5Z" transform="translate(-43.032 -141.82)" fill="#973d26"/>
          <path id="XMLID_9481_" d="M64,199.065a9.281,9.281,0,0,1-5.036,2.721,15.631,15.631,0,0,1-2.1.228c-.114-.407-.212-.815-.31-1.19a42.577,42.577,0,0,1-.668-10.43,14.8,14.8,0,0,1,0-3.716c.228-2.575-1.369-5.068-2.265-6.763-.913-1.695-.782-6.8-.636-6.975.147-.163,1.5-.456,2.216-.8a17.449,17.449,0,0,0,2.673-2.754s.913,6.095,1.4,8.458,3.064,12.678,3.1,13.053C62.4,191.08,63.2,195.056,64,199.065Z" transform="translate(-42.373 -124.461)" fill="#ffe3cf"/>
          <path id="XMLID_9480_" d="M57.593,159.736c-.978,1.483-2.656.147-2.852,0s-4.791-5.166-5.345-5.182a2.907,2.907,0,0,1-.244-1.858,2.514,2.514,0,0,1,2.3-1.776,6.838,6.838,0,0,1,2.314.57c.489.326,3.862,5.036,4.074,5.345a.016.016,0,0,0,.016.016A2.991,2.991,0,0,1,57.593,159.736Z" transform="translate(-44.754 -136.09)" fill="#ffe3cf"/>
          <path id="XMLID_9479_" d="M57.5,157.347a12.74,12.74,0,0,0-1.939-2.836c-1.076-1.124-2.119-2.738-3-3a2.551,2.551,0,0,0-2.705.212c-1.4.8,3.113,4.824,3.113,4.824s1.793,2.347,1.825,2.4C54.825,158.96,57.5,157.347,57.5,157.347Z" transform="translate(-44.446 -135.901)" fill="#ffebdd"/>
          <path id="XMLID_9478_" d="M55.416,155.215a2.5,2.5,0,0,0-1.793-.913c-.945.081-1.19,1.336-1.141,1.776a7.256,7.256,0,0,0,1.157,1.76,5.421,5.421,0,0,0,1.255-.945C55.481,156.291,55.742,156.111,55.416,155.215Z" transform="translate(-42.625 -133.965)" fill="#fef7f2"/>
          <path id="XMLID_9477_" d="M64,171.385a1.854,1.854,0,0,1-1.825.929,1.744,1.744,0,0,1,0,1.157,1.978,1.978,0,0,1-2.281.88c-1.255-.2-2.118-.831-4.726-1.727a18.138,18.138,0,0,0-3.422-.945,23.5,23.5,0,0,1-3.7-.163,7.7,7.7,0,0,0-.733-.864c-1.369-1.434-.782-3.65-.57-4.27.212-.6,1.059-1.173,1.222-2.314s-.016-2.167.766-3.08c.8-.913,1.32-.652,1.613-1.6s.261-1.695.945-2.281a12.659,12.659,0,0,1,2.607-1.32,12.142,12.142,0,0,1,2.314,1.336c.407.456,2.721,3.178,3.634,4.009a16.9,16.9,0,0,1,2.884,3.113,3.676,3.676,0,0,1,.326,2.868,1.021,1.021,0,0,1-1.092.684c.114.081,1.727,1.108,1.89,1.3A1.708,1.708,0,0,1,64,171.385Z" transform="translate(-46.431 -133.024)" fill="#ffe3cf"/>
          <path id="XMLID_9476_" d="M60.01,165.741a20.933,20.933,0,0,1-2.249-1.287c-1.157-.766-4.27-2.9-4.856-3.227s-3.324-2.167-3.324-2.167.913.261,1.059.326a14.96,14.96,0,0,1,1.6.831C52.383,160.364,59.618,165.481,60.01,165.741Z" transform="translate(-44.449 -130.965)" fill="#f6b486"/>
          <path id="XMLID_8809_" d="M61,168.495s-1.564-.847-2.379-1.238-6.323-3.455-7.252-3.911-2.852-1.369-3.047-1.418.913-.13,1.059,0,4.547,2.412,4.677,2.542,4.318,2.3,4.628,2.542S60.948,168.315,61,168.495Z" transform="translate(-45.257 -129.204)" fill="#f6b486"/>
          <path id="XMLID_8808_" d="M51.336,163.27s-1.222.407-1.336,1.238.1,1.564,1.923,2.167a29.7,29.7,0,0,1,3.993,1.564,12.945,12.945,0,0,0,2.347,1.32,1.179,1.179,0,0,0,1.336-.587c.212-.326-1.255-1.907-1.255-1.907s-2.412-1.581-3.031-1.923C54.709,164.834,51.336,163.27,51.336,163.27Z" transform="translate(-44.2 -128.315)" fill="#ffebdd"/>
          <path id="XMLID_8807_" d="M52.719,160.528a2.106,2.106,0,0,0-1.727.375,1.336,1.336,0,0,0-.359,1.841c.342.8,2.493,2.1,2.493,2.1s4.188,2.119,4.351,2.265,1.727,1.418,2.037,1.6.945.244,1.141,0a15.462,15.462,0,0,0,.505-2.542l-2.151-1.483C58.243,164.162,53.093,161.294,52.719,160.528Z" transform="translate(-43.921 -130.071)" fill="#ffebdd"/>
          <path id="XMLID_8806_" d="M57.122,160.373s-3.7-3.7-4.156-3.781a2.462,2.462,0,0,0-2.493.831c-.782,1.059,1.5,2.9,1.613,3.21s2.836,2.656,3.145,3.047c.31.375,3.194,2.493,3.194,2.493l1.972-1.63a9.779,9.779,0,0,0-1.206-2C58.6,161.839,57.122,160.373,57.122,160.373Z" transform="translate(-43.989 -132.555)" fill="#ffebdd"/>
          <path id="XMLID_6715_" d="M57.554,161.735a1.014,1.014,0,0,0-1.124-.212,1.85,1.85,0,0,0-1.124,1.369.639.639,0,0,0,.391.7s.864.636.913.636S57.7,164.1,57.554,161.735Z" transform="translate(-40.852 -129.468)" fill="#fef7f2"/>
          <path id="XMLID_6714_" d="M58.145,164.327s-.978-.8-1.45-.342a2.519,2.519,0,0,0-.815,1.776c.016.652,1.222,1.173,1.222,1.173S58.862,165.875,58.145,164.327Z" transform="translate(-40.482 -127.954)" fill="#fef7f2"/>
          <path id="XMLID_6713_" d="M56.936,166.133a8.543,8.543,0,0,0-1.581-.521,1.171,1.171,0,0,0-.6,1.206,1.075,1.075,0,0,0,.717.994c.179.049.717.13.717.13S57.278,167.11,56.936,166.133Z" transform="translate(-41.196 -126.843)" fill="#fef7f2"/>
        </g>
        <path id="XMLID_6711_" d="M60.424,154.909l-8.539,4.921a2.217,2.217,0,0,1-3.324-1.923v-8.344l14.471-8.344v9.191A5.208,5.208,0,0,1,60.424,154.909Z" transform="translate(-34.236 -101.969)" fill="#5e1b00"/>
        <path id="XMLID_6710_" d="M61.294,155.279,52.754,160.2a2.217,2.217,0,0,1-3.324-1.923v-8.344L63.9,141.59v9.191A5.223,5.223,0,0,1,61.294,155.279Z" transform="translate(-33.688 -101.736)" fill="#963a23"/>
        <path id="XMLID_6709_" d="M86.886,120.168v29.855a8.062,8.062,0,0,1-4.041,6.991L46.83,177.808l-2.347,1.353a2.626,2.626,0,0,1-3.944-2.281V147.025a8.062,8.062,0,0,1,4.041-6.991l38.361-22.147A2.634,2.634,0,0,1,86.886,120.168Z" transform="translate(-39.285 -116.883)" fill="#f9f9f9"/>
        <path id="XMLID_6708_" d="M84.456,120v28.469a8.062,8.062,0,0,1-4.041,6.991L44.4,176.254C54.308,143.3,71.435,130.038,84.456,120Z" transform="translate(-36.855 -115.33)" fill="#fff"/>
        <g id="Group_45793" data-name="Group 45793" transform="translate(10.821 19.419)">
          <path id="Path_40064" data-name="Path 40064" d="M55.862,137.285a6.075,6.075,0,0,1-2.151,4.384c1.646-.636,2.64.147,2.64,2.037,0,2.412-1.695,4.856-4.481,6.453L46.41,153.3v-14.1l5.329-3.08C54.281,134.677,55.862,135.1,55.862,137.285Zm-2.135,1.646c0-1.173-.782-1.369-2.1-.6l-3.161,1.825v3.7l3.161-1.825A3.7,3.7,0,0,0,53.727,138.931Zm.489,5.7c0-1.255-.961-1.45-2.575-.505l-3.161,1.825v4.025l3.161-1.825A4.37,4.37,0,0,0,54.216,144.634Z" transform="translate(-46.41 -125.129)" fill="#212121"/>
          <path id="Path_40065" data-name="Path 40065" d="M56.086,132.58v14.1L54,147.866v-14.1Z" transform="translate(-41.631 -126.828)" fill="#212121"/>
          <path id="Path_40066" data-name="Path 40066" d="M68.641,133.4a13.237,13.237,0,0,1-6.4,10.739l-4.987,2.884v-14.1l5.036-2.9C65.985,127.909,68.641,129.327,68.641,133.4Zm-2.086,1.239c0-2.884-1.874-3.846-4.3-2.444L59.32,133.89v9.827l3.015-1.744A9.025,9.025,0,0,0,66.555,134.639Z" transform="translate(-39.585 -129.051)" fill="#212121"/>
        </g>
      </g>
    </g>
  </g>
</svg>
