<svg xmlns="http://www.w3.org/2000/svg" width="13.221" height="13.221" viewBox="0 0 13.221 13.221">
  <path id="Icon_metro-copyright" data-name="Icon metro-copyright" d="M14.668,12.549v.938a1.09,1.09,0,0,1-.314.766,2.087,2.087,0,0,1-.809.521,5.916,5.916,0,0,1-1.016.28,5.65,5.65,0,0,1-1.011.095,3.979,3.979,0,0,1-2.948-1.2,4.065,4.065,0,0,1-1.183-2.978,4,4,0,0,1,4.088-4.088,6.074,6.074,0,0,1,.65.039,5.554,5.554,0,0,1,.8.155,4.106,4.106,0,0,1,.8.293,1.714,1.714,0,0,1,.594.486,1.106,1.106,0,0,1,.241.7v.938a.122.122,0,0,1-.138.138H13.4a.122.122,0,0,1-.138-.138v-.6q0-.37-.564-.581A3.35,3.35,0,0,0,11.518,8.1a2.615,2.615,0,0,0-1.967.788,2.817,2.817,0,0,0-.762,2.044,3.032,3.032,0,0,0,.788,2.147,2.622,2.622,0,0,0,2.01.848,3.647,3.647,0,0,0,1.188-.207q.6-.207.6-.568v-.6a.134.134,0,0,1,.039-.1.124.124,0,0,1,.09-.039H14.53a.139.139,0,0,1,.095.039.127.127,0,0,1,.043.1ZM11.38,5.509a5.355,5.355,0,0,0-2.139.439A5.432,5.432,0,0,0,6.311,8.878a5.43,5.43,0,0,0,0,4.278,5.432,5.432,0,0,0,2.931,2.931,5.43,5.43,0,0,0,4.278,0,5.432,5.432,0,0,0,2.931-2.931,5.43,5.43,0,0,0,0-4.278,5.432,5.432,0,0,0-2.931-2.931,5.354,5.354,0,0,0-2.139-.439Zm6.61,5.509a6.466,6.466,0,0,1-.887,3.318A6.581,6.581,0,0,1,14.7,16.741a6.653,6.653,0,0,1-6.636,0,6.581,6.581,0,0,1-2.406-2.406,6.653,6.653,0,0,1,0-6.636A6.581,6.581,0,0,1,8.062,5.293a6.653,6.653,0,0,1,6.636,0A6.581,6.581,0,0,1,17.1,7.7,6.466,6.466,0,0,1,17.99,11.017Z" transform="translate(-4.77 -4.407)" fill="#ffc759"/>
</svg>
