<svg xmlns="http://www.w3.org/2000/svg" width="17.65" height="16.026" viewBox="0 0 17.65 16.026">
  <g id="id" transform="translate(-6.75 -8.329)">
    <path id="Path_41126" data-name="Path 41126" d="M20.559,10.078H17.419l.314-2.755a.591.591,0,0,0-1.175-.134l-.329,2.889H9.91l.314-2.755A.591.591,0,1,0,9.049,7.19L8.72,10.078h-2.5a.591.591,0,1,0,0,1.183H8.586l-.72,6.326H4.591a.591.591,0,0,0,0,1.183H7.731l-.314,2.755a.591.591,0,1,0,1.175.134l.329-2.889H15.24l-.314,2.755a.588.588,0,0,0,.124.435.595.595,0,0,0,1.05-.3l.329-2.889h2.5a.591.591,0,1,0,0-1.183H16.564l.72-6.326h3.274a.591.591,0,1,0,0-1.183Zm-11.5,7.509.72-6.326h6.319l-.72,6.326Z" transform="translate(3 1.918)" fill="#9c9c9c" stroke="#9c9c9c" stroke-width="0.5"/>
  </g>
</svg>
