<svg id="linkedin" xmlns="http://www.w3.org/2000/svg" width="16.188" height="16.188" viewBox="0 0 16.188 16.188">
  <g id="_x31_0.Linkedin" transform="translate(0 0)">
    <path id="Path_40984" data-name="Path 40984" d="M48.761,46.368V40.44c0-2.914-.627-5.14-4.027-5.14a3.513,3.513,0,0,0-3.177,1.74h-.04V35.563H38.3V46.368h3.359V41.006c0-1.416.263-2.772,2-2.772,1.72,0,1.74,1.6,1.74,2.853v5.261h3.359Z" transform="translate(-32.574 -30.181)" fill="#0d682f"/>
    <path id="Path_40985" data-name="Path 40985" d="M11.3,36.6h3.359V47.405H11.3Z" transform="translate(-11.037 -31.218)" fill="#0d682f"/>
    <path id="Path_40986" data-name="Path 40986" d="M11.943,10a1.953,1.953,0,1,0,1.943,1.943A1.943,1.943,0,0,0,11.943,10Z" transform="translate(-10 -10)" fill="#0d682f"/>
  </g>
</svg>
