<svg xmlns="http://www.w3.org/2000/svg" width="16.258" height="22.321" viewBox="0 0 16.258 22.321">
  <g id="location" transform="translate(-67.5)">
    <g id="Group_46068" data-name="Group 46068" transform="translate(67.5)">
      <path id="Path_41109" data-name="Path 41109" d="M248.5,0V22.321a.673.673,0,0,0,.562-.3l6.223-9.412A8.129,8.129,0,0,0,248.5,0Z" transform="translate(-240.371)" fill="#ffc759"/>
      <path id="Path_41110" data-name="Path 41110" d="M76.1,22.018l5.191-9.412A9.276,9.276,0,0,0,82.41,8.129C82.41,3.639,79.374,0,75.629,0a8.129,8.129,0,0,0-6.785,12.607l6.223,9.412a.673.673,0,0,0,.562.3A.545.545,0,0,0,76.1,22.018Z" transform="translate(-67.5)" fill="#ffc283"/>
      <path id="Path_41111" data-name="Path 41111" d="M248.5,60V70.868A5.434,5.434,0,1,0,248.5,60Z" transform="translate(-240.371 -57.305)" fill="#eefff4"/>
      <path id="Path_41112" data-name="Path 41112" d="M137.021,65.434c0-3-1.83-5.434-4.087-5.434a5.434,5.434,0,1,0,0,10.868C135.191,70.868,137.021,68.435,137.021,65.434Z" transform="translate(-124.805 -57.305)" fill="#fff"/>
    </g>
  </g>
</svg>
