<svg id="location" xmlns="http://www.w3.org/2000/svg" width="30.615" height="42.032" viewBox="0 0 30.615 42.032">
  <g id="Group_46068" data-name="Group 46068">
    <path id="Path_41109" data-name="Path 41109" d="M248.5,0V42.032a1.267,1.267,0,0,0,1.058-.57L261.277,23.74A15.308,15.308,0,0,0,248.5,0Z" transform="translate(-233.192)" fill="#ffc759"/>
    <path id="Path_41110" data-name="Path 41110" d="M83.69,41.463,93.467,23.74a17.467,17.467,0,0,0,2.112-8.432C95.578,6.853,89.861,0,82.808,0A15.309,15.309,0,0,0,70.031,23.74L81.749,41.463a1.267,1.267,0,0,0,1.058.57A1.026,1.026,0,0,0,83.69,41.463Z" transform="translate(-67.5)" fill="#ffc283"/>
    <path id="Path_41111" data-name="Path 41111" d="M248.5,60V80.467A10.233,10.233,0,1,0,248.5,60Z" transform="translate(-233.192 -54.926)" fill="#eefff4"/>
    <path id="Path_41112" data-name="Path 41112" d="M145.429,70.233c0-5.652-3.446-10.233-7.7-10.233a10.233,10.233,0,1,0,0,20.467C141.984,80.467,145.429,75.885,145.429,70.233Z" transform="translate(-122.426 -54.926)" fill="#fff"/>
  </g>
</svg>
