<svg xmlns="http://www.w3.org/2000/svg" width="79.838" height="58.888" viewBox="0 0 79.838 58.888">
  <g id="money" transform="translate(-8.46 -14.112)">
    <g id="Group_46130" data-name="Group 46130" transform="translate(8.46 14.112)">
      <g id="Group_46129" data-name="Group 46129" transform="translate(0 7.169)">
        <path id="Path_41118" data-name="Path 41118" d="M43.237,35.764H9.705A1.247,1.247,0,0,0,8.46,37.01v5.285A1.247,1.247,0,0,0,9.705,43.54H43.237a1.247,1.247,0,0,0,1.246-1.245V37.01a1.247,1.247,0,0,0-1.246-1.246Z" transform="translate(-8.46 -2.807)" fill="#0d682f"/>
        <path id="Path_41119" data-name="Path 41119" d="M43.237,29.836H9.705A1.247,1.247,0,0,0,8.46,31.082v5.285a1.251,1.251,0,0,0,1.246,1.261H43.237a1.251,1.251,0,0,0,1.246-1.261V31.082a1.247,1.247,0,0,0-1.246-1.246Z" transform="translate(-8.46 -7.865)" fill="#0d682f"/>
        <path id="Path_41120" data-name="Path 41120" d="M43.237,41.683H9.705A1.247,1.247,0,0,0,8.46,42.929v5.3a1.247,1.247,0,0,0,1.246,1.245H43.237a1.247,1.247,0,0,0,1.246-1.245v-5.3a1.247,1.247,0,0,0-1.246-1.246Z" transform="translate(-8.46 2.243)" fill="#0d682f"/>
        <path id="Path_41121" data-name="Path 41121" d="M43.237,17.98H9.705A1.247,1.247,0,0,0,8.46,19.226v5.3a1.247,1.247,0,0,0,1.246,1.245H43.237a1.247,1.247,0,0,0,1.246-1.245v-5.3a1.247,1.247,0,0,0-1.246-1.246Z" transform="translate(-8.46 -17.98)" fill="#0d682f"/>
        <path id="Path_41122" data-name="Path 41122" d="M43.237,23.908H9.705A1.247,1.247,0,0,0,8.46,25.154v5.3A1.247,1.247,0,0,0,9.705,31.7H43.237a1.247,1.247,0,0,0,1.246-1.245v-5.3a1.247,1.247,0,0,0-1.246-1.246Z" transform="translate(-8.46 -12.923)" fill="#0d682f"/>
      </g>
      <path id="Path_41123" data-name="Path 41123" d="M42.564,14.112a29.437,29.437,0,0,0-14.882,4.072,4.423,4.423,0,0,1,3.593,4.343v5.3a4.446,4.446,0,0,1-1.054,2.842,4.446,4.446,0,0,1,1.054,2.842v5.3a4.479,4.479,0,0,1-1.054,2.842A4.446,4.446,0,0,1,31.275,44.5v5.285a4.523,4.523,0,0,1-1.054,2.858,4.446,4.446,0,0,1,1.054,2.842v5.285a4.446,4.446,0,0,1-1.054,2.842,4.48,4.48,0,0,1,1.054,2.842v4.04A29.323,29.323,0,1,0,42.564,14.112Zm1.2,27.8c4.886,1.325,7.68,4.263,7.68,8.032a8.12,8.12,0,0,1-6.5,7.952v1.82a1.6,1.6,0,0,1-3.194,0v-1.82a8.134,8.134,0,0,1-6.515-7.952,1.6,1.6,0,0,1,3.194,0,4.91,4.91,0,1,0,9.82,0c0-3.05-3.337-4.407-5.317-4.966-4.966-1.341-7.7-4.2-7.7-8.032a8.134,8.134,0,0,1,6.515-7.952v-1.82a1.6,1.6,0,1,1,3.194,0v1.82a8.12,8.12,0,0,1,6.5,7.952,1.6,1.6,0,1,1-3.194,0,4.91,4.91,0,1,0-9.82,0c0,2.89,2.906,4.3,5.333,4.966Z" transform="translate(7.941 -14.112)" fill="#ffc759"/>
    </g>
  </g>
</svg>
