<svg id="money" xmlns="http://www.w3.org/2000/svg" width="23.153" height="17.078" viewBox="0 0 23.153 17.078">
  <g id="Group_46130" data-name="Group 46130">
    <g id="Group_46129" data-name="Group 46129" transform="translate(0 2.079)">
      <path id="Path_41118" data-name="Path 41118" d="M18.545,35.764H8.821a.362.362,0,0,0-.361.361v1.533a.362.362,0,0,0,.361.361h9.724a.362.362,0,0,0,.361-.361V36.125a.362.362,0,0,0-.361-.361Z" transform="translate(-8.46 -26.207)" fill="#9c9c9c"/>
      <path id="Path_41119" data-name="Path 41119" d="M18.545,29.836H8.821a.362.362,0,0,0-.361.361V31.73a.363.363,0,0,0,.361.366h9.724a.363.363,0,0,0,.361-.366V30.2a.362.362,0,0,0-.361-.361Z" transform="translate(-8.46 -23.465)" fill="#9c9c9c"/>
      <path id="Path_41120" data-name="Path 41120" d="M18.545,41.683H8.821a.362.362,0,0,0-.361.361v1.537a.362.362,0,0,0,.361.361h9.724a.362.362,0,0,0,.361-.361V42.045a.362.362,0,0,0-.361-.361Z" transform="translate(-8.46 -28.945)" fill="#9c9c9c"/>
      <path id="Path_41121" data-name="Path 41121" d="M18.545,17.98H8.821a.362.362,0,0,0-.361.361v1.537a.362.362,0,0,0,.361.361h9.724a.362.362,0,0,0,.361-.361V18.342a.362.362,0,0,0-.361-.361Z" transform="translate(-8.46 -17.98)" fill="#9c9c9c"/>
      <path id="Path_41122" data-name="Path 41122" d="M18.545,23.908H8.821a.362.362,0,0,0-.361.361v1.537a.362.362,0,0,0,.361.361h9.724a.362.362,0,0,0,.361-.361V24.27a.362.362,0,0,0-.361-.361Z" transform="translate(-8.46 -20.723)" fill="#9c9c9c"/>
    </g>
    <path id="Path_41123" data-name="Path 41123" d="M32,14.112a8.537,8.537,0,0,0-4.316,1.181,1.283,1.283,0,0,1,1.042,1.26V18.09a1.289,1.289,0,0,1-.306.824,1.289,1.289,0,0,1,.306.824v1.537a1.3,1.3,0,0,1-.306.824,1.289,1.289,0,0,1,.306.824v1.533a1.312,1.312,0,0,1-.306.829,1.289,1.289,0,0,1,.306.824v1.533a1.289,1.289,0,0,1-.306.824,1.3,1.3,0,0,1,.306.824v1.172A8.5,8.5,0,1,0,32,14.112Zm.347,8.062c1.417.384,2.227,1.236,2.227,2.329a2.355,2.355,0,0,1-1.885,2.306v.528a.463.463,0,0,1-.926,0v-.528A2.359,2.359,0,0,1,29.873,24.5a.463.463,0,0,1,.926,0,1.424,1.424,0,1,0,2.848,0c0-.884-.968-1.278-1.542-1.44-1.44-.389-2.232-1.218-2.232-2.329a2.359,2.359,0,0,1,1.889-2.306V17.9a.463.463,0,1,1,.926,0v.528a2.355,2.355,0,0,1,1.885,2.306.463.463,0,0,1-.926,0,1.424,1.424,0,1,0-2.848,0c0,.838.843,1.246,1.547,1.44Z" transform="translate(-17.351 -14.112)" fill="#9c9c9c"/>
  </g>
</svg>
