<svg id="notifications" xmlns="http://www.w3.org/2000/svg" width="14.302" height="14.632" viewBox="0 0 14.302 14.632">
  <g id="ak" transform="translate(0 0)">
    <g id="Group_45687" data-name="Group 45687">
      <path id="Path_39418" data-name="Path 39418" d="M17.571,13.976l-1.536-6.6A5.083,5.083,0,0,0,11.016,3H9.872A5.066,5.066,0,0,0,4.863,7.329l-1.556,6.7A1.689,1.689,0,0,0,4.98,15.943H15.908a1.692,1.692,0,0,0,1.663-1.968Z" transform="translate(-3.292 -3)" fill="#212121"/>
      <path id="Path_39419" data-name="Path 39419" d="M15.883,27H13.069a.563.563,0,0,0,0,1.126h2.814A.563.563,0,0,0,15.883,27Z" transform="translate(-7.324 -13.493)" fill="#212121"/>
    </g>
  </g>
</svg>
