<svg xmlns="http://www.w3.org/2000/svg" width="13.324" height="15.97" viewBox="0 0 13.324 15.97">
  <g id="profile" transform="translate(0 0)">
    <path id="Path_39415" data-name="Path 39415" d="M90.878,7.693A3.722,3.722,0,0,0,93.6,6.566a3.722,3.722,0,0,0,1.127-2.72A3.722,3.722,0,0,0,93.6,1.127a3.846,3.846,0,0,0-5.439,0,3.722,3.722,0,0,0-1.127,2.72,3.722,3.722,0,0,0,1.127,2.72A3.723,3.723,0,0,0,90.878,7.693Zm0,0" transform="translate(-84.317 0)" fill="#0d682f"/>
    <path id="Path_39416" data-name="Path 39416" d="M13.291,251.882a9.5,9.5,0,0,0-.129-1.009,7.95,7.95,0,0,0-.248-1.015,5.011,5.011,0,0,0-.417-.946,3.571,3.571,0,0,0-.629-.82,2.773,2.773,0,0,0-.9-.568,3.122,3.122,0,0,0-1.153-.209,1.171,1.171,0,0,0-.625.265c-.187.122-.407.264-.651.42a3.733,3.733,0,0,1-.843.371,3.272,3.272,0,0,1-2.061,0A3.723,3.723,0,0,1,4.789,248c-.242-.155-.462-.3-.652-.42a1.169,1.169,0,0,0-.625-.265,3.118,3.118,0,0,0-1.153.209,2.771,2.771,0,0,0-.9.568,3.571,3.571,0,0,0-.629.82,5.021,5.021,0,0,0-.417.946,7.969,7.969,0,0,0-.248,1.014,9.467,9.467,0,0,0-.129,1.009c-.021.306-.032.623-.032.943a2.652,2.652,0,0,0,.788,2.006,2.835,2.835,0,0,0,2.03.74h7.69a2.835,2.835,0,0,0,2.029-.74,2.651,2.651,0,0,0,.788-2.006c0-.322-.011-.639-.032-.943Zm0,0" transform="translate(0 -239.602)" fill="#0d682f"/>
  </g>
</svg>
