<svg id="success" xmlns="http://www.w3.org/2000/svg" width="66.865" height="66.865" viewBox="0 0 66.865 66.865">
  <g id="Group_76253" data-name="Group 76253">
    <g id="Group_76251" data-name="Group 76251" transform="translate(3.34 0.48)">
      <path id="Path_41134" data-name="Path 41134" d="M66.407,368.312a.979.979,0,0,0-.979.979v.659a.979.979,0,0,0,1.959,0v-.659A.979.979,0,0,0,66.407,368.312Z" transform="translate(-60.223 -320.692)" fill="#b6dac4"/>
      <path id="Path_41135" data-name="Path 41135" d="M66.407,442.881a.979.979,0,0,0-.979.979v.659a.979.979,0,0,0,1.959,0v-.659A.979.979,0,0,0,66.407,442.881Z" transform="translate(-60.223 -385.523)" fill="#b6dac4"/>
      <path id="Path_41136" data-name="Path 41136" d="M91.017,382.4a.976.976,0,0,0,.692-.286l.467-.466a.979.979,0,1,0-1.384-1.386l-.467.466a.979.979,0,0,0,.692,1.672Z" transform="translate(-81.618 -330.83)" fill="#b6dac4"/>
      <path id="Path_41137" data-name="Path 41137" d="M38,432.986l-.467.466a.979.979,0,1,0,1.384,1.386l.467-.466A.979.979,0,0,0,38,432.986Z" transform="translate(-35.722 -376.671)" fill="#b6dac4"/>
      <path id="Path_41138" data-name="Path 41138" d="M101.868,408.12h-.66a.979.979,0,1,0,0,1.959h.66a.979.979,0,1,0,0-1.959Z" transform="translate(-90.479 -355.301)" fill="#b6dac4"/>
      <path id="Path_41139" data-name="Path 41139" d="M28.191,409.1a.979.979,0,0,0-.979-.979h-.66a.979.979,0,1,0,0,1.959h.66A.979.979,0,0,0,28.191,409.1Z" transform="translate(-25.572 -355.301)" fill="#b6dac4"/>
      <path id="Path_41140" data-name="Path 41140" d="M91.709,432.987a.979.979,0,0,0-1.384,1.386l.467.466a.979.979,0,0,0,1.384-1.386Z" transform="translate(-81.618 -376.672)" fill="#b6dac4"/>
      <path id="Path_41141" data-name="Path 41141" d="M38.918,380.259a.979.979,0,1,0-1.384,1.386l.467.466a.979.979,0,0,0,1.384-1.386Z" transform="translate(-35.722 -330.83)" fill="#b6dac4"/>
      <path id="Path_41142" data-name="Path 41142" d="M413.721,3.677a.979.979,0,0,0-.979.979v.659a.979.979,0,1,0,1.959,0V4.656A.979.979,0,0,0,413.721,3.677Z" transform="translate(-362.179 -3.677)" fill="#b6dac4"/>
      <path id="Path_41143" data-name="Path 41143" d="M413.721,78.245a.979.979,0,0,0-.979.979v.659a.979.979,0,0,0,1.959,0v-.659A.979.979,0,0,0,413.721,78.245Z" transform="translate(-362.179 -68.507)" fill="#b6dac4"/>
      <path id="Path_41144" data-name="Path 41144" d="M438.331,17.762a.976.976,0,0,0,.692-.287l.467-.466a.979.979,0,0,0-1.384-1.386l-.467.466a.979.979,0,0,0,.692,1.672Z" transform="translate(-383.575 -13.814)" fill="#b6dac4"/>
      <path id="Path_41145" data-name="Path 41145" d="M385.314,68.351l-.467.466a.979.979,0,0,0,1.384,1.386l.467-.466a.979.979,0,1,0-1.384-1.386Z" transform="translate(-337.677 -59.656)" fill="#b6dac4"/>
      <path id="Path_41146" data-name="Path 41146" d="M449.182,43.485h-.66a.979.979,0,1,0,0,1.959h.66a.979.979,0,0,0,0-1.959Z" transform="translate(-392.435 -38.286)" fill="#b6dac4"/>
      <path id="Path_41147" data-name="Path 41147" d="M375.5,44.464a.979.979,0,0,0-.979-.979h-.66a.979.979,0,0,0,0,1.959h.66A.979.979,0,0,0,375.5,44.464Z" transform="translate(-327.528 -38.286)" fill="#b6dac4"/>
      <path id="Path_41148" data-name="Path 41148" d="M439.022,68.351a.979.979,0,1,0-1.384,1.386l.467.466a.979.979,0,0,0,1.384-1.386Z" transform="translate(-383.574 -59.656)" fill="#b6dac4"/>
      <path id="Path_41149" data-name="Path 41149" d="M385.314,17.475a.979.979,0,1,0,1.384-1.386l-.467-.466a.979.979,0,1,0-1.384,1.386Z" transform="translate(-337.678 -13.814)" fill="#b6dac4"/>
    </g>
    <path id="Path_41150" data-name="Path 41150" d="M206.557.422,208.7,4.35a.812.812,0,0,0,.323.323l3.928,2.148a.812.812,0,0,1,0,1.426l-3.927,2.148a.812.812,0,0,0-.323.323l-2.148,3.928a.813.813,0,0,1-1.426,0l-2.148-3.928a.812.812,0,0,0-.323-.323l-3.928-2.148a.812.812,0,0,1,0-1.426l3.928-2.148a.812.812,0,0,0,.323-.323L205.131.423a.812.812,0,0,1,1.426,0Z" transform="translate(-172.411 0)" fill="#ffb56b"/>
    <path id="Path_41151" data-name="Path 41151" d="M251.926,6.821,248,4.673a.812.812,0,0,1-.323-.323L245.527.422a.812.812,0,0,0-1.426,0l-.967,1.769.66,1.207a4.515,4.515,0,0,0,1.8,1.8,2.668,2.668,0,0,1,0,4.681,4.515,4.515,0,0,0-1.8,1.8l-.66,1.207.967,1.769a.813.813,0,0,0,1.426,0l2.148-3.928a.812.812,0,0,1,.323-.323l3.928-2.148a.813.813,0,0,0,0-1.426Z" transform="translate(-211.382 0)" fill="#ffc759"/>
    <path id="Path_41152" data-name="Path 41152" d="M8.247,88.044l2.148,3.928a.812.812,0,0,0,.323.323l3.928,2.148a.813.813,0,0,1,0,1.426l-3.927,2.148a.812.812,0,0,0-.323.323l-2.148,3.928a.813.813,0,0,1-1.426,0L4.673,98.34a.812.812,0,0,0-.323-.323L.422,95.869a.812.812,0,0,1,0-1.426L4.35,92.3a.812.812,0,0,0,.323-.323l2.148-3.928a.812.812,0,0,1,1.426,0Z" transform="translate(0 -76.179)" fill="#ffb56b"/>
    <path id="Path_41153" data-name="Path 41153" d="M53.617,94.443,49.689,92.3a.812.812,0,0,1-.323-.323l-2.148-3.928a.812.812,0,0,0-1.426,0l-.967,1.769.66,1.207a4.515,4.515,0,0,0,1.8,1.8,2.668,2.668,0,0,1,0,4.681,4.515,4.515,0,0,0-1.8,1.8l-.66,1.207.967,1.769a.812.812,0,0,0,1.426,0l2.148-3.928a.812.812,0,0,1,.323-.323l3.928-2.148A.813.813,0,0,0,53.617,94.443Z" transform="translate(-38.971 -76.179)" fill="#ffc759"/>
    <path id="Path_41154" data-name="Path 41154" d="M404.867,129.669l2.148,3.928a.812.812,0,0,0,.323.323l3.928,2.148a.813.813,0,0,1,0,1.426l-3.928,2.148a.812.812,0,0,0-.323.323l-2.148,3.928a.812.812,0,0,1-1.426,0l-2.148-3.928a.812.812,0,0,0-.323-.323l-3.928-2.148a.813.813,0,0,1,0-1.426l3.928-2.148a.812.812,0,0,0,.323-.323l2.148-3.928A.812.812,0,0,1,404.867,129.669Z" transform="translate(-344.823 -112.368)" fill="#ffb56b"/>
    <path id="Path_41155" data-name="Path 41155" d="M450.237,136.069l-3.928-2.148a.813.813,0,0,1-.323-.323l-2.148-3.928a.812.812,0,0,0-1.426,0l-.967,1.769.66,1.207a4.515,4.515,0,0,0,1.795,1.8,2.668,2.668,0,0,1,0,4.681,4.515,4.515,0,0,0-1.795,1.8l-.66,1.207.967,1.769a.812.812,0,0,0,1.426,0l2.148-3.928a.813.813,0,0,1,.323-.323l3.928-2.148a.813.813,0,0,0,0-1.426Z" transform="translate(-383.795 -112.368)" fill="#ffc759"/>
    <g id="Group_76252" data-name="Group 76252" transform="translate(12.988 21.358)">
      <path id="Path_41156" data-name="Path 41156" d="M301.5,281.638c.151-3.205,1.3-15.632,9.92-33.092a2.484,2.484,0,1,1,4.3,2.464A114.829,114.829,0,0,0,301.7,281.67.1.1,0,0,1,301.5,281.638Z" transform="translate(-275.115 -236.236)" fill="#ffc759"/>
      <path id="Path_41157" data-name="Path 41157" d="M115.073,237.787c-.414-5.46-2.544-26.885-11.124-39.957a2.445,2.445,0,1,0-4.031,2.766c3,4.144,9.972,15.512,14.955,37.22A.1.1,0,0,0,115.073,237.787Z" transform="translate(-99.455 -192.388)" fill="#ffc759"/>
      <path id="Path_41158" data-name="Path 41158" d="M239.359,208.951l-2.266-42.811a2.469,2.469,0,1,1,4.931.011l-2.463,42.8A.1.1,0,0,1,239.359,208.951Z" transform="translate(-219.115 -163.54)" fill="#0d682f"/>
    </g>
  </g>
</svg>
