<svg id="timer" xmlns="http://www.w3.org/2000/svg" width="20" height="22.279" viewBox="0 0 20 22.279">
  <g id="Layer_124" data-name="Layer 124">
    <path id="Path_41117" data-name="Path 41117" d="M13,4.228a10,10,0,1,0,10,10A10,10,0,0,0,13,4.228Zm0,17.778a7.778,7.778,0,1,1,7.778-7.778A7.778,7.778,0,0,1,13,22.006ZM16.833,4.039a1.111,1.111,0,1,1,1.222-1.844l3.333,2.222a1.111,1.111,0,0,1-.611,2.033,1.044,1.044,0,0,1-.611-.189ZM4.3,5.95a1.111,1.111,0,0,1,.311-1.533L7.944,2.195A1.111,1.111,0,1,1,9.167,4.039L5.833,6.261a1.044,1.044,0,0,1-.611.189A1.111,1.111,0,0,1,4.3,5.95Zm11.711,9.711a1.116,1.116,0,1,1-1.578,1.578l-2.222-2.222a1.111,1.111,0,0,1-.322-.789V9.783a1.111,1.111,0,1,1,2.222,0v3.989Z" transform="translate(-3 -1.949)" fill="#212121"/>
  </g>
</svg>
