<svg id="twitter" xmlns="http://www.w3.org/2000/svg" width="19.175" height="15.18" viewBox="0 0 19.175 15.18">
  <path id="_x30_4.Twitter" d="M29.075,19.3a8.239,8.239,0,0,1-2.253.606,3.75,3.75,0,0,0,1.726-2.122,8.419,8.419,0,0,1-2.493.933A4,4,0,0,0,23.178,17.5a3.881,3.881,0,0,0-3.931,3.824,3.406,3.406,0,0,0,.1.863A11.169,11.169,0,0,1,11.266,18.2a3.779,3.779,0,0,0,1.2,5.107,3.855,3.855,0,0,1-1.774-.466,3.891,3.891,0,0,0,3.14,3.8,4.431,4.431,0,0,1-1.774.07,3.935,3.935,0,0,0,3.667,2.658A8.075,8.075,0,0,1,9.9,30.954a11.314,11.314,0,0,0,6.04,1.726A10.93,10.93,0,0,0,27.109,21.814a3.351,3.351,0,0,0-.024-.49A7.684,7.684,0,0,0,29.075,19.3Z" transform="translate(-9.9 -17.5)" fill="#0d682f"/>
</svg>
